<svg xmlns="http://www.w3.org/2000/svg" viewBox="0 0 124.3 104.73"><defs><style>.cls-1{fill:#eeecdf;}.cls-2{fill:#bdc298;}.cls-3{fill:#6d794e;}.cls-4{fill:#91a374;}.cls-5{fill:#a0b08a;}.cls-6{fill:#ddd5ae;}.cls-7{fill:#768b5c;}.cls-8{fill:#5d6849;}.cls-9{fill:#879761;}.cls-10{fill:#b1b879;}.cls-11{fill:#424033;}</style></defs><g id="Слой_2" data-name="Слой 2"><g id="Слой_1-2" data-name="Слой 1"><path class="cls-1" d="M123.13,34a3.15,3.15,0,0,1,1.17,2.64c-.09,2.3,0,4.61,0,6.91-3.78,1.1-7.61,2.06-11.33,3.34-2.2.76-4.59,1.42-6.08,3.5-.71,2.22-2.93,3.26-4,5.16a.55.55,0,0,1-.5.06c-.19-.16-.43-.46-.39-.63a3.74,3.74,0,0,1,.59-1.53,33.53,33.53,0,0,0,5.84-9.33c.09-.23.4-.37.61-.56.58-.16.71-.6.7-1.13h0a1,1,0,0,0,.57-1.12h0a1,1,0,0,0,1.12-1.12h0a.79.79,0,0,0,.57-.56h0c1.43-.13,2.17-1.12,2.81-2.24h0a.69.69,0,0,0,.56-.56h0A15.65,15.65,0,0,0,120.9,34h0Z"/><path class="cls-2" d="M91.39,35.93a4,4,0,0,1-.07-1.09c.12-.65,0-1.71,1-1.55.67.11.5,1.05.5,1.68-.28,3.43.42,6.91-.54,10.3a29.63,29.63,0,0,1-9.5,15.24c-1.8.49-3.3,1.88-5.38,1.87.33-.82,1-1,1.43-1.51,1.58-1.76,4-2.86,4.44-5.52h0l.54-.57a23.26,23.26,0,0,0,4.29-8c.14-.46.27-1-.23-1.21a.88.88,0,0,0-1.15.53,8.8,8.8,0,0,1-2.91,3.58,5.83,5.83,0,0,0-2.21,5.13A43.77,43.77,0,0,1,76.53,60c-.2.19-.48.23-.9,0-.11-.83.8-1.36.89-2.17.31-2.89,1.89-5.18,3.49-7.49a49,49,0,0,1,7.4-7.89c1.46-1.34,2.5-3,3.83-4.45A1.68,1.68,0,0,0,91.39,35.93Z"/><path class="cls-3" d="M21.92,67.53c1.48-2.42,2.6-5.09,5.4-6.46,1.47-.73,2.56-2.09,3.83-3.11,2.54-2.05,5.72-2.44,8.34-4.09a1.81,1.81,0,0,1,1.85-.26,1.05,1.05,0,0,0,1.07,0c2.81-2.08,6.28-.88,9.32-1.88,1.73-.56,2.46.17,2.06,2-.6,2.77-.37,5.63-1.57,8.38-.65,1.49-.81,3.34-1.5,5-1.89,4.46-4,8.6-8.45,11.29-1.66,1-2.93,2.78-4.79,3.69a15.68,15.68,0,0,1-10.93.79l.15-.17c.92,0,1.91.47,2.7-.41,3.09.16,6.09-.08,8.85-1.71.93-.55,1.75-1,1.81-2.23l0,0c2.27-.91,4.43-1.93,5.16-4.59.06-.22.36-.4.59-.55,2.06-1.34,2.64-3.65,3.66-5.66.8-1.57.89-3.51,1.58-4.93,1.27-2.59.93-5.36,1.8-7.94.6-1.81.11-2.19-1.74-1.78-3.11.68-6.46.27-9.3,2.11a.91.91,0,0,1-.53.13c-2.49-.23-4.6,1.1-6.63,2.08A30.73,30.73,0,0,0,28,61.77a21.45,21.45,0,0,0-4.26,4.52,3.19,3.19,0,0,1-1.69,1.39Z"/><path class="cls-4" d="M91.39,35.93A1.68,1.68,0,0,1,91.24,38c-1.33,1.43-2.37,3.11-3.83,4.45A49,49,0,0,0,80,50.35c-1.6,2.31-3.18,4.6-3.49,7.49-.09.81-1,1.34-.89,2.17.42.22.7.18.9,0a43.77,43.77,0,0,0,5.09-5.19,3.58,3.58,0,0,0,1.68.54c-.45,2.66-2.86,3.76-4.44,5.52-.42.47-1.1.69-1.43,1.51,2.08,0,3.58-1.38,5.38-1.87l.43.43a12.66,12.66,0,0,1-6.56,2.72,7.8,7.8,0,0,0-2.39.62c-2.23.39-3.07.87-4,2.25a21.9,21.9,0,0,1-2.3,1c-.59.17-1.38.41-1.72-.37s.37-1.12,1-1.4A10.07,10.07,0,0,1,69.05,65c3.84-.94,5.51-3.79,6.38-7.28,1.15-4.67,3.81-8.42,7.07-11.8,1.94-2,4-3.93,5.93-5.91A15,15,0,0,0,91.39,35.93Z"/><path class="cls-5" d="M56.32,84.48c1.54-1.48,3.57-1.82,5.51-2.2,3.45-.66,6.94-1.13,10.41-1.65a34.14,34.14,0,0,0,7.13-2.24c0,.17,0,.33,0,.5-3.31,2.26-7.12,2.9-11,3.34a8.74,8.74,0,0,0-2.74.4c-.83.39-1.9,0-3,.78a6.16,6.16,0,0,0,4.18.39,27.53,27.53,0,0,1,5.26-.48c.54,2.12,1.13.21,1.7,0l.54,0c.15.88.54,1.81-.48,2.46-.83.54-.2,1.24-.16,2-1-.12-1.67-1.46-2.72-.51-1.29-.91-2.07.18-3.12.61a1.46,1.46,0,0,0,1.41.47c1.29.25,2.21,1.23,3.38,1.7-1,1-2.24.38-3.36.58a5.17,5.17,0,0,1-.55-.07c-.07-.62-.55-.82-1-1.17-.74-.61-2.63-.84-1.18-2.56.28-.33-.18-.54-.52-.72-.82-.45-1.59,0-2.39,0-.18-.32-.37-.33-.56,0-.61,0-1.28.09-1.68-.56.19-.2.7-.31.2-.7-.07.23-.14.47-.2.7l-1.16,0A5.9,5.9,0,0,1,56.32,84.48Z"/><path class="cls-2" d="M109.57,70c.55-.07,1.18-.27,1.52.29a1.34,1.34,0,0,1-.18,1.32,10,10,0,0,1-11.25,5.1c-.69-.14-1.49.32-2.17-.52C99,74.46,99.64,72,102.06,71c2.07-.38,4.11-1.09,6.27-.56A1.22,1.22,0,0,0,109.57,70Z"/><path class="cls-5" d="M70.9,93.45a20.38,20.38,0,0,1-11.32,1.9A35.11,35.11,0,0,0,46,96.44c-2.77.75-4.94,2.57-7,4.47-.48.44-.91.94-1.39,1.38s-.9.85-1.46.45-.32-1.28,0-1.74c1.06-1.39,2-3,3.74-3.64A1.64,1.64,0,0,0,41.72,96a3.08,3.08,0,0,1,2-1.39c.8,0,1.15-.75,1.71-1.14.41.06.94-.43,1.22,0s-.18.93-.62,1.24a2.16,2.16,0,0,0-.37.37c-.28,0-.55,0-.83.08s-.67.19-.59.45c.16.57.58.2.87.08a3.26,3.26,0,0,0,.65-.49c.64-.07,1.3-.09,1.94-.22,3.74-.77,7.44-1.33,11.32-.53a10.15,10.15,0,0,0,6.33-.41c1.79.06,3.42-.67,5.13-1Z"/><path class="cls-2" d="M77.65,12.16A4.5,4.5,0,0,1,81,9.92c0,2.52,0,5,0,7.57a7.09,7.09,0,0,1-2.64,5.33c-.46-.84.25-1.91-.61-2.9,0,1.7-.83,3.07-.67,4.59h0A2.24,2.24,0,0,1,76,23.05a9.74,9.74,0,0,1,1.54-9.59C77.86,13,78.34,12.68,77.65,12.16Z"/><path class="cls-6" d="M103.48,4.6a.32.32,0,0,1,.29-.3c.44-.09,1,0,1.29-.3,1.81-1.64,4.25-1.92,6.31-3,0,.37,0,.73,0,1.1a11.34,11.34,0,0,0-1.76,3.4c-1.4,3.35-3.56,6-7.16,7.15,0-.51,0-1,0-1.55l.54-.57a1.21,1.21,0,0,0,.55-1.14,2.41,2.41,0,0,0,.77-.18c.22-.12.55-.46.51-.54-.27-.51-.59-.17-.84.05a3.45,3.45,0,0,0-.46.65,1.2,1.2,0,0,0-.58,1.11l-.57.54c-.4.11-.93.49-1.06-.26A5.59,5.59,0,0,1,102,7.83C102.45,6.73,103.6,6,103.48,4.6Z"/><path class="cls-5" d="M77.11,24.51c-.16-1.52.63-2.89.67-4.59.86,1,.15,2.06.61,2.9A7.09,7.09,0,0,0,81,17.49c0-2.53,0-5,0-7.57.87-.48,1.93-.72,1.35.74A8.75,8.75,0,0,0,82,15.83a7.87,7.87,0,0,1-1.46,6.07c-1.49,2.15-3.08,4.23-2.15,7.08-1.15.06-1.15-.61-1.3-1.1a21.34,21.34,0,0,0-1.68-4.09c-2.14-3.9-1.31-7.84,2.23-11.63.69.52.21.84-.15,1.3A9.74,9.74,0,0,0,76,23.05a2.24,2.24,0,0,0,1.15,1.46c.09.24.17.28.2.11S77.18,24.55,77.11,24.51Z"/><path class="cls-3" d="M7,57.71c.37-.54.74-1.07,1.1-1.61,1.28-1.9,2.53-3.79.55-6a1,1,0,0,1,0-1.29,1.55,1.55,0,0,1,1.58-.27,4.54,4.54,0,0,1,3.06,4.79,23.57,23.57,0,0,0-.16,4.9c.27,2.73-1.33,4.34-4.49,5L8,62.67c3.76-1.05,4.84-2.51,4-5.42-.78-.08-.63,1.13-1.56,1,0-1.2,1-2.6-.46-3.81a20.54,20.54,0,0,1-2.64,3.69Zm4.77-2.19c1.47-3.28,1-4.78-2.5-6.21C10.81,51.44,10.58,53.66,11.72,55.52Z"/><path class="cls-7" d="M56.32,84.48a5.9,5.9,0,0,0,3.91,1.17c.06,1.17-1.29,1.83-1.12,3-1.1-.13-2.2-.24-3.3-.39a8.33,8.33,0,0,0-7.56,2.33c-1.28,0-1.54,1.41-2.56,1.74l-.23-.26a6.13,6.13,0,0,1,3.45-3.42C51.57,87.56,53.6,85.42,56.32,84.48Z"/><path class="cls-6" d="M46.56,39.18c.63-2.43.17-4.85.24-7.23A5,5,0,0,1,47.43,29c.92-1.3,2.07-1.2,2.79.2a2.23,2.23,0,0,1,.42,1.59C49.76,33.79,48.85,36.78,46.56,39.18Z"/><path class="cls-1" d="M88.35,104.18a2,2,0,0,1-2.81,0c.14-1-1.19-1.32-1.14-2.29h0a2.62,2.62,0,0,0,2.26-1.69h0a6.3,6.3,0,0,0,2.15-.4,4,4,0,0,1,4.45,1.6c-1,1-2.41,1.38-3.57,2C89.23,103.7,88.29,103.07,88.35,104.18Zm-1-1.47c-.14-.08-.28-.22-.42-.21s-.27.15-.41.23c.14.08.28.21.42.21S87.21,102.79,87.34,102.71Z"/><path class="cls-4" d="M79.38,78.89c0-.17,0-.33,0-.5,1-.47,2-1.43,3-.49.85.79.16,1.91-.12,2.87a16.85,16.85,0,0,1-9.07,11.09c-.82-.73-1.08.49-1.69.49a1,1,0,0,0-.65-.68c-.36-.62-1.29-.32-1.63-1,1.12-.2,2.38.42,3.36-.58,1-.83,2.42-.12,3.37-1,3.53-2.63,5.1-6.32,6-10.38C80.86,78,80.2,79,79.38,78.89Z"/><path class="cls-7" d="M7,57.71l.39.42c-.92,1.58-2.92,2.18-3.7,4,.79.23,1.67-.45,2.1.83.15.46,1.42-.64,2.28-.28l.59.53c-2,.41-4,.58-5.29,2.6-.56.9-1.43.56-1.78-.48A2.85,2.85,0,0,1,2,63.2C3,60.8,5,59.26,7,57.71Z"/><path class="cls-7" d="M83.24,60.94l-.43-.43a29.63,29.63,0,0,0,9.5-15.24h.57c0,2.7-1.28,5.05-2.52,7.29C88.56,55.79,86.65,59,83.24,60.94Z"/><path class="cls-2" d="M66.47,48.72a22.39,22.39,0,0,1-3.16,3.47,14.57,14.57,0,0,1,1.16-8.1l.79,0,.61.58h0c.22,1.1-.48,2.34.52,3.32Z"/><path class="cls-6" d="M106.86,50.4c1.49-2.08,3.88-2.74,6.08-3.5,3.72-1.28,7.55-2.24,11.33-3.34-.7,1.72-2.44,1.78-3.84,2.18-2.3.65-4.65,1.14-6.94,1.84S109.14,49.62,106.86,50.4Z"/><path class="cls-5" d="M102.43,12.64c3.6-1.16,5.76-3.8,7.16-7.15a11.34,11.34,0,0,1,1.76-3.4c.18,5.05-4.4,10.53-9.53,11.67A1.28,1.28,0,0,1,102.43,12.64Z"/><path class="cls-2" d="M102.43,12.64a1.28,1.28,0,0,0-.61,1.12,22.21,22.21,0,0,0-2.28,2c.34-4.08.4-8.22,3.94-11.16.12,1.35-1,2.13-1.47,3.23a5.59,5.59,0,0,0-.73,2.92c.13.75.66.37,1.06.26l.08.08C102.42,11.61,102.42,12.13,102.43,12.64Z"/><path class="cls-3" d="M19.13,82.68c1.29-1.53,1.33-3.34,1.23-5.22a24.27,24.27,0,0,1,.55-8,3.49,3.49,0,0,1,1-1.92l.17.15a9.59,9.59,0,0,1-.61,3.39c-.07,0-.19.09-.18.12a1.77,1.77,0,0,0,.12.37V73.9c-.05,0-.16.1-.15.13a2.41,2.41,0,0,0,.15.33l.06,2.88c-.51.32-.55.67-.05,1,0,.38.08.77.11,1.16l0,.6a1.21,1.21,0,0,0-.5,1.32,4.19,4.19,0,0,1-1.6,1.58Z"/><path class="cls-6" d="M88.35,104.18c-.06-1.11.88-.48,1.32-.74,1.16-.67,2.52-1,3.57-2a4,4,0,0,0-4.45-1.6,6.3,6.3,0,0,1-2.15.4c2-1.93,4.53-2.17,6.4-.59,1.36,1.14,1.3,2.46-.19,3.38A7.74,7.74,0,0,1,88.35,104.18Z"/><path class="cls-8" d="M5.88,87.93c-1.1,1.76-3.15,2.19-4.72,3.31-.77.55-1.27-.11-1.14-.88a7.29,7.29,0,0,1,1.47-3.55c.38.52.75,1.08,1.51.53,0,.55,0,1.1,0,1.64-.24.06-.29.14-.13.19S3,89.05,3,89c1.13.11,1.7-1.17,2.8-1.13Z"/><path class="cls-3" d="M26.55,82.84a12.12,12.12,0,0,1-1.33-.29,3.4,3.4,0,0,0-4.12,1.3c-.51.65-1.09,1.24-1.66,1.84s-1.11.9-1.68.35-.34-1.18.3-1.62l.08.07c.15.47.38,1,.89.42a14.89,14.89,0,0,1,3.07-3.22l3.61,0,.14,0,.13,0,.58.6a.58.58,0,0,0,.14.42Z"/><path class="cls-4" d="M92.88,45.26h-.57c1-3.39.26-6.87.54-10.3A13.63,13.63,0,0,1,92.88,45.26Z"/><path class="cls-5" d="M66.47,48.72l-.06-.7a10.6,10.6,0,0,0,1.08-4.15c.05-.42.09-1-.45-1.16s-.84.21-1.14.53a8.13,8.13,0,0,0-.64.87l-.79,0a4.44,4.44,0,0,1,1.58-2.23c1-.69,2-.41,2.08.73C68.23,44.77,68.58,47.1,66.47,48.72Z"/><path class="cls-3" d="M3,87.34c-.76.55-1.13,0-1.51-.53a4.58,4.58,0,0,1,1.56-1.87c1.77-1.51,2.19-1.42,3.79.68H6.38c-2-.94-2.36-.79-3.35,1.44v.19Z"/><path class="cls-6" d="M84.4,101.87c-.05,1,1.28,1.27,1.14,2.29-3.25-.65-3.39-.72-5-2.47Z"/><path class="cls-2" d="M111.37,1c-2.06,1.09-4.5,1.37-6.31,3-.29.26-.85.21-1.29.3A5.51,5.51,0,0,1,106.48,2a22.24,22.24,0,0,0,4-1.86C111.2-.34,111.34.41,111.37,1Z"/><path class="cls-4" d="M109.57,70a1.22,1.22,0,0,1-1.24.44c-2.16-.53-4.2.18-6.27.56C104.31,68.75,106.91,69.17,109.57,70Z"/><path class="cls-6" d="M120.9,34a15.65,15.65,0,0,1-5.62,2.81A8.41,8.41,0,0,1,120.9,34Z"/><path class="cls-7" d="M70.31,66.53c.91-1.38,1.75-1.86,4-2.25A11.72,11.72,0,0,1,70.31,66.53Z"/><path class="cls-6" d="M114.72,37.4c-.64,1.12-1.38,2.11-2.81,2.24C112.6,38.59,113.26,37.5,114.72,37.4Z"/><path class="cls-6" d="M86.65,100.19a2.62,2.62,0,0,1-2.26,1.69C84.49,100.45,85.46,100.17,86.65,100.19Z"/><path class="cls-9" d="M71.53,92.35c.61,0,.87-1.22,1.69-.49a7,7,0,0,1-2.32,1.59L70.43,93Z"/><path class="cls-6" d="M123.13,34l-2.24,0A2.81,2.81,0,0,1,123,32.94c.29,0,.82-.24.82.29C123.79,33.49,123.36,33.75,123.13,34Z"/><path class="cls-7" d="M45.38,93.44c-.56.39-.91,1.11-1.71,1.14a6.55,6.55,0,0,1,1.79-2.47l.23.26C45.59,92.73,45.48,93.08,45.38,93.44Z"/><path class="cls-8" d="M6.38,85.63h.46a2.44,2.44,0,0,1-1,2.31l-.08-.07C5.56,87,6.11,86.35,6.38,85.63Z"/><path class="cls-3" d="M18.06,84.42a3.12,3.12,0,0,1,1.07-1.74l.28.26c-.24.67-.44,1.36-1.27,1.55Z"/><path class="cls-9" d="M41.72,96a1.64,1.64,0,0,1-1.8,1.39A3.55,3.55,0,0,1,41.72,96Z"/><path class="cls-6" d="M111.35,40.2a1,1,0,0,1-1.12,1.12A1.81,1.81,0,0,1,111.35,40.2Z"/><path class="cls-6" d="M109.66,42.44c0,.53-.12,1-.7,1.13C109.1,43.14,109.16,42.65,109.66,42.44Z"/><path class="cls-6" d="M110.23,41.32a1,1,0,0,1-.57,1.12A1.06,1.06,0,0,1,110.23,41.32Z"/><path class="cls-6" d="M111.92,39.64a.79.79,0,0,1-.57.56Z"/><path class="cls-6" d="M115.28,36.83a.69.69,0,0,1-.56.56A.7.7,0,0,1,115.28,36.83Z"/><path class="cls-5" d="M83.3,55.35a3.58,3.58,0,0,1-1.68-.54,5.83,5.83,0,0,1,2.21-5.13,8.8,8.8,0,0,0,2.91-3.58.88.88,0,0,1,1.15-.53c.5.24.37.75.23,1.21a23.26,23.26,0,0,1-4.29,8l-.54.57Z"/><path class="cls-4" d="M83.29,55.36l.54-.57Z"/><path class="cls-10" d="M26,81.65l-.13,0-.14,0c.2-.16.41-.49.6-.47a11.62,11.62,0,0,0,6.45-1.71c.46-.2.48-.39,0-.6a1.28,1.28,0,0,0-1.19-.41c.38-1.27-1.4-1-1.45-2.12,1.6-1.71,3.78-1.83,5.94-2,3.43-.37,4.76-.83,6.13-2.11-2.25.28-4.37,1.07-6.62,1h0a2,2,0,0,1,1.22-1.7c.48-.25,1.21-.54,1.31-.94.5-2.12,2.18-2.06,3.8-2.46s3.68-.56,5-2.13l.2-.3-.3.19a6.05,6.05,0,0,0-2.63.82,4.22,4.22,0,0,1-3,.17c.37-1.84,2.88-1.1,3-3l-1.41-.44a38.58,38.58,0,0,0,4.74-4.74,2.62,2.62,0,0,0,1.08-1.13,3.08,3.08,0,0,0,1.57-2.14c-1,.58-1.56,1.11-1.69,2a1.26,1.26,0,0,0-1.17,1.09c-1,.63-2.25.21-3.12.67-1.13.6-1.14,2.27-2,3.21-.49.52-.87,1.22-1.85,1.4-.41-1.42.74-2.67.44-4a1.25,1.25,0,0,0,.52-1.15l.55-.58a1.13,1.13,0,0,0,.61-1.08l.2-.27-.28.19a1.15,1.15,0,0,0-.52,1.17l-.57.55a1.18,1.18,0,0,0-.61,1.08c-1.59,2-1.22,4.59-2.2,6.77-.21.13-.84-.23-.56.42.06.13.45-.16.57-.41.23.16.46.56.32.62-1.19.52-1.69,2-3.13,2.18-1.72-1.16-.9-2.94-1.11-4.47.51-.25,1-.55.87-1.21a.51.51,0,0,0-.39-.22c-.66.28-.42.9-.5,1.41-1.29,1.45-1.06,3.28-1.25,5-.28.25-.51.66-.21.89,1,.7,0,.91-.26,1.32a3.18,3.18,0,0,1-.52.1,2.72,2.72,0,0,0-.71-1.78c-.81-.87-1.65.74-2.58,0-.09-1.7.89-3.32,1-5.24a1.63,1.63,0,0,0-1.11,1.31c-.43,1.42-.82,2.85-1.28,4.26-.19.6-.38,1.36-1.21,1.31s-.79-.86-.85-1.5A5.84,5.84,0,0,0,25,67.79a17.9,17.9,0,0,0-1.3,4.35c0,.43-.1,1.11-.75.82-1-.43-.78.19-.84.72-.17,1.78.76,3.45.53,5.23h0l-1.12.54c0-.39-.07-.78-.1-1.16s0-.69,0-1l-.06-2.88a.9.9,0,0,0,0-.46V71.56a1.38,1.38,0,0,0,.06-.49,9.59,9.59,0,0,0,.61-3.39,3.19,3.19,0,0,0,1.69-1.39A21.45,21.45,0,0,1,28,61.77a30.73,30.73,0,0,1,6.59-4.56c2-1,4.14-2.31,6.63-2.08a.91.91,0,0,0,.53-.13c2.84-1.84,6.19-1.43,9.3-2.11,1.85-.41,2.34,0,1.74,1.78C52,57.25,52.3,60,51,62.61c-.69,1.42-.78,3.36-1.58,4.93-1,2-1.6,4.32-3.66,5.66-.23.15-.53.33-.59.55-.73,2.66-2.89,3.68-5.16,4.59,0-.94.05-2-1.47-1.25-.82.38-1.71.61-2.57.91l-.43.33c-.25,0-.56,0-.59.34,0,0,.1.17.15.16,1.64-.16,3.23-.84,4.93-.51-.06,1.19-.88,1.68-1.81,2.23-2.76,1.63-5.76,1.87-8.85,1.71l-1.1-.07A3.69,3.69,0,0,0,26,81.65ZM45.67,57c-.25.19-.74.32-.22.74l.21-.75.56-.56c.18-.19.71-.28.21-.68-.07.23-.13.46-.19.69ZM30.33,64a3.22,3.22,0,0,0,.53-.6c.05-.09-.09-.29-.14-.45a3.57,3.57,0,0,0-.55.55C30.12,63.62,30.26,63.83,30.33,64Z"/><path class="cls-11" d="M28.3,82.19l1.1.07c-.79.88-1.78.37-2.7.41a.58.58,0,0,1-.14-.42Z"/><path class="cls-6" d="M79.38,78.89c.82.15,1.48-.87,2.64-.21-.94,4.06-2.51,7.75-6,10.38,0-.55-.11-1.44.16-1.59,1.57-.87.9-3,2.35-3.93a1.14,1.14,0,0,0-.06-1.73c-.82-.69-.71.41-1,.67-.53.42-1,.18-1.55,0-.88-.32-1.44-.08-1.54.92l-.54,0c-.62-1.26-.66-1.26-1.7,0a27.53,27.53,0,0,0-5.26.48,6.16,6.16,0,0,1-4.18-.39c1.14-.8,2.21-.39,3-.78a8.74,8.74,0,0,1,2.74-.4C72.26,81.79,76.07,81.15,79.38,78.89Z"/><path class="cls-2" d="M74.3,83.39c.1-1,.66-1.24,1.54-.92.52.19,1,.43,1.55,0,.33-.26.22-1.36,1-.67a1.14,1.14,0,0,1,.06,1.73c-1.45.95-.78,3.06-2.35,3.93-.27.15-.12,1-.16,1.59-1,.92-2.39.21-3.37,1-1.17-.47-2.09-1.45-3.38-1.7l1.71-1.08c1-.95,1.76.39,2.72.51,0-.74-.67-1.44.16-2C74.84,85.2,74.45,84.27,74.3,83.39Z"/><path class="cls-4" d="M59.11,88.69c-.17-1.21,1.18-1.87,1.12-3l1.16,0h0c.4.65,1.07.52,1.68.56h0c.19.31.38.3.56,0h0c.8,0,1.57-.48,2.39,0,.34.18.8.39.52.72-1.45,1.72.44,2,1.18,2.56.43.35.91.55,1,1.17A19.34,19.34,0,0,1,64,89.48c-1.35-.47-2.77-1.28-4.3-.47Z"/><path class="cls-3" d="M59.68,89c1.53-.81,3,0,4.3.47a19.34,19.34,0,0,0,4.72,1.13,5.17,5.17,0,0,0,.55.07c.34.67,1.27.37,1.63,1C66.79,92.29,63.26,90.52,59.68,89Z"/><path class="cls-4" d="M70.94,87.32,69.23,88.4a1.46,1.46,0,0,1-1.41-.47C68.87,87.5,69.65,86.41,70.94,87.32Z"/><path class="cls-2" d="M72.06,83.32c1-1.24,1.08-1.24,1.7,0C73.19,83.53,72.6,85.44,72.06,83.32Z"/><path class="cls-4" d="M61.39,85.62c.06-.23.13-.47.2-.7.5.39,0,.5-.2.7Z"/><path class="cls-4" d="M63.07,86.18c.19-.32.38-.31.56,0h-.56Z"/><path class="cls-2" d="M45.38,93.44c.1-.36.21-.71.31-1.07,1-.33,1.28-1.78,2.56-1.74,1.44-.14,3,0,4.28-.51A8.62,8.62,0,0,1,56,89.58c.62,0,1.3-.17,1.78.5s-.66,1.09-.16,1.73c2.46-.25,4.62.76,6.89,1.19.54.11.68.57.75,1a10.15,10.15,0,0,1-6.33.41c-3.88-.8-7.58-.24-11.32.53-.64.13-1.3.15-1.94.22l-.1-.12a2.16,2.16,0,0,1,.37-.37c.44-.31,1-.65.62-1.24S45.79,93.5,45.38,93.44Z"/><path class="cls-6" d="M65.3,94.05c-.07-.48-.21-.94-.75-1-2.27-.43-4.43-1.44-6.89-1.19-.5-.64.59-1.12.16-1.73s-1.16-.5-1.78-.5a8.62,8.62,0,0,0-3.51.54c-1.27.53-2.84.37-4.28.51a8.33,8.33,0,0,1,7.56-2.33c1.1.15,2.2.26,3.3.39l.57.32c3.58,1.51,7.11,3.28,11.2,2.66a1,1,0,0,1,.65.68l-1.1.66C68.72,93.38,67.09,94.11,65.3,94.05Z"/><path class="cls-2" d="M45.71,95.21a3.26,3.26,0,0,1-.65.49c-.29.12-.71.49-.87-.08-.08-.26.31-.41.59-.45s.55,0,.83-.08Z"/><path class="cls-2" d="M103.49,9.36a3.45,3.45,0,0,1,.46-.65c.25-.22.57-.56.84-.05,0,.08-.29.42-.51.54a2.41,2.41,0,0,1-.77.18Z"/><path class="cls-2" d="M102.91,10.47a1.2,1.2,0,0,1,.58-1.11l0,0a1.21,1.21,0,0,1-.55,1.14Z"/><path class="cls-2" d="M102.34,11l.57-.54,0,0-.54.57Z"/><path class="cls-2" d="M77.11,24.51c.07,0,.2.09.2.11s-.11.13-.2-.11Z"/><path class="cls-2" d="M8,62.67c-.86-.36-2.13.74-2.28.28-.43-1.28-1.31-.6-2.1-.83.78-1.81,2.78-2.41,3.7-4A20.54,20.54,0,0,0,10,54.44c1.46,1.21.5,2.61.46,3.81.93.13.78-1.08,1.56-1C12.86,60.16,11.78,61.62,8,62.67Z"/><path class="cls-6" d="M11.72,55.52c-1.14-1.86-.91-4.08-2.5-6.21C12.71,50.74,13.19,52.24,11.72,55.52Z"/><path class="cls-6" d="M87.34,102.71c-.13.08-.27.23-.41.23s-.28-.13-.42-.21c.14-.08.27-.23.41-.23S87.2,102.63,87.34,102.71Z"/><path class="cls-6" d="M65.26,44.11a8.13,8.13,0,0,1,.64-.87c.3-.32.62-.72,1.14-.53s.5.74.45,1.16A10.6,10.6,0,0,1,66.41,48c-1-1-.3-2.22-.52-3.32.25-.09.3-.18.12-.22s-.09.13-.14.21Z"/><path class="cls-2" d="M18.14,84.49c.83-.19,1-.88,1.27-1.55A4.19,4.19,0,0,0,21,81.36l.53-.76c.59-.42,1.27-.78,1.12-1.7h0c.8.24,1.23-.25,1.65-.8.31-.16.63-.38,1,0-.86,1.38-2.65,2-3.2,3.62A14.89,14.89,0,0,0,19,84.91C18.52,85.52,18.29,85,18.14,84.49Z"/><path class="cls-7" d="M22.66,78.9c.15.92-.53,1.28-1.12,1.7l0-.56,0-.6Z"/><path class="cls-8" d="M21.51,80l0,.56-.53.76A1.21,1.21,0,0,1,21.51,80Z"/><path class="cls-8" d="M21.48,77.24c0,.35,0,.69,0,1C20.93,77.91,21,77.56,21.48,77.24Z"/><path class="cls-8" d="M21.42,73.9a.9.9,0,0,1,0,.46,2.41,2.41,0,0,1-.15-.33S21.37,73.94,21.42,73.9Z"/><path class="cls-8" d="M21.48,71.07a1.38,1.38,0,0,1-.06.49,1.77,1.77,0,0,1-.12-.37S21.41,71.11,21.48,71.07Z"/><path class="cls-10" d="M6.38,85.63c-.27.72-.82,1.37-.58,2.23C4.7,87.82,4.13,89.1,3,89H3c0-.54,0-1.09,0-1.64l0-.08c.23,0,.3-.09.19-.24s-.13,0-.19,0C4,84.84,4.35,84.69,6.38,85.63Z"/><path class="cls-10" d="M3,89c0,.06-.12.19-.14.18S2.75,89,3,89Z"/><path class="cls-8" d="M22.1,81.69c.55-1.66,2.34-2.24,3.2-3.62-.36-.34-.68-.12-1,0A5.07,5.07,0,0,1,27.76,75l-.62.81c-.15.2-.45.51-.4.6.22.37.59.17.92.09,0,.76-1,1.15-.76,2.22,1.54.56,3.11-.49,4.68-.23a1.28,1.28,0,0,1,1.19.41c0,.2,0,.4,0,.6a11.62,11.62,0,0,1-6.45,1.71c-.19,0-.4.31-.6.47Z"/><path class="cls-8" d="M28.3,82.19l-1.74.06-.58-.6A3.69,3.69,0,0,1,28.3,82.19Z"/><path class="cls-8" d="M3,87.07c.06,0,.18-.07.19,0s0,.24-.19.24Z"/><path class="cls-9" d="M35.56,69.36c1.44-.16,1.94-1.66,3.13-2.18.14-.06-.09-.46-.32-.62h0c1-2.18.61-4.79,2.2-6.77l.1.09c.3,1.34-.85,2.59-.44,4,1-.18,1.36-.88,1.85-1.4.9-.94.91-2.61,2-3.21.87-.46,2.15,0,3.12-.67l.21.18a38.58,38.58,0,0,1-4.74,4.74l1.41.44c-.16,1.86-2.67,1.12-3,3a4.22,4.22,0,0,0,3-.17,6.05,6.05,0,0,1,2.63-.82l.1.11c-1.27,1.57-3.22,1.7-5,2.13s-3.3.34-3.8,2.46c-.1.4-.83.69-1.31.94a2,2,0,0,0-1.22,1.7c-1.12,0-2.38.36-2.85-1.19.21-.41,1.21-.62.26-1.32-.3-.23-.07-.64.21-.89C34.13,70.41,35,70.65,35.56,69.36Z"/><path class="cls-7" d="M27.76,75a5.07,5.07,0,0,0-3.45,3.14c-.42.55-.85,1-1.65.8.23-1.78-.7-3.45-.53-5.23.06-.53-.14-1.15.84-.72.65.29.73-.39.75-.82A17.9,17.9,0,0,1,25,67.79a5.84,5.84,0,0,1,.42,2.74c.06.64-.05,1.43.85,1.5s1-.71,1.21-1.31c.46-1.41.85-2.84,1.28-4.26a1.63,1.63,0,0,1,1.11-1.31c-.1,1.92-1.08,3.54-1,5.24.93.75,1.77-.86,2.58,0a2.72,2.72,0,0,1,.71,1.78l0,0c-.91,0-1.4.62-2,1.14l-.57,1.11A2.94,2.94,0,0,0,27.76,75Z"/><path class="cls-3" d="M29.66,74.41c.19-.37.38-.74.58-1.11a1.9,1.9,0,0,0,2-1.14l0,0a3.18,3.18,0,0,0,.52-.1c.47,1.55,1.73,1.21,2.85,1.19h0l.49,1.08c-2.16.15-4.34.27-5.94,2,.05,1.1,1.83.85,1.45,2.12-1.57-.26-3.14.79-4.68.23-.22-1.07.74-1.46.76-2.22C28.32,75.78,29,75.09,29.66,74.41Z"/><path class="cls-7" d="M35.56,69.36c-.55,1.29-1.43,1-2.38.51.19-1.72,0-3.55,1.25-5l0,0C34.66,66.42,33.84,68.2,35.56,69.36Z"/><path class="cls-9" d="M36.07,74.36l-.49-1.08c2.25,0,4.37-.75,6.62-1C40.83,73.53,39.5,74,36.07,74.36Z"/><path class="cls-3" d="M40.06,78.32c-1.7-.33-3.29.35-4.93.51-.05,0-.15-.11-.15-.16,0-.38.34-.33.59-.34A1.06,1.06,0,0,0,36,78c.86-.3,1.75-.53,2.57-.91,1.52-.72,1.43.31,1.47,1.25Z"/><path class="cls-9" d="M48.4,57.51c.13-.89.66-1.42,1.69-2a3.08,3.08,0,0,1-1.57,2.14Z"/><path class="cls-7" d="M34.43,64.87c.08-.51-.16-1.13.5-1.41a.51.51,0,0,1,.39.22c.09.66-.36,1-.87,1.21Z"/><path class="cls-7" d="M30.33,64c-.07-.21-.21-.42-.16-.5a3.57,3.57,0,0,1,.55-.55c.05.16.19.36.14.45A3.22,3.22,0,0,1,30.33,64Z"/><path class="cls-9" d="M47.23,58.6a1.26,1.26,0,0,1,1.17-1.09l.12.14a2.62,2.62,0,0,1-1.08,1.13Z"/><path class="cls-9" d="M46.24,56.47c.06-.23.12-.46.19-.69.5.4,0,.49-.21.68Z"/><path class="cls-9" d="M41.74,58.15A1.15,1.15,0,0,1,42.26,57l.08.08a1.13,1.13,0,0,1-.61,1.08Z"/><path class="cls-9" d="M45.66,57l-.21.75c-.52-.42,0-.55.22-.74Z"/><path class="cls-9" d="M38.37,66.56c-.12.25-.51.54-.57.41-.28-.65.35-.29.56-.42Z"/><path class="cls-9" d="M41.18,58.72a1.25,1.25,0,0,1-.52,1.15l-.1-.09a1.18,1.18,0,0,1,.61-1.08Z"/><path class="cls-8" d="M36,78a1.06,1.06,0,0,1-.43.33Z"/><path class="cls-3" d="M32.76,79.47c0-.2,0-.4,0-.6C33.24,79.08,33.22,79.27,32.76,79.47Z"/><path class="cls-9" d="M46.74,65.93l.3-.19-.2.3Z"/><path class="cls-9" d="M41.17,58.7l.57-.55h0l-.55.58Z"/><path class="cls-9" d="M45.67,57l.57-.56h0c-.18.19-.37.38-.56.56Z"/><path class="cls-9" d="M42.26,57l.28-.19-.2.27Z"/><path class="cls-5" d="M63.08,86.19h.56C63.46,86.49,63.27,86.5,63.08,86.19Z"/><path class="cls-2" d="M65.87,44.69c0-.08.11-.22.14-.21s.13.13-.12.22Z"/><path class="cls-10" d="M29.66,74.41c-.67.68-1.34,1.37-2,2.06-.33.08-.7.28-.92-.09,0-.09.25-.4.4-.6l.62-.81A2.94,2.94,0,0,1,29.66,74.41Z"/><path class="cls-10" d="M32.21,72.16a1.9,1.9,0,0,1-2,1.14C30.81,72.78,31.3,72.11,32.21,72.16Z"/></g></g></svg>