<svg xmlns="http://www.w3.org/2000/svg" viewBox="0 0 26.37 70.24"><defs><style>.cls-1{fill:#515141;}.cls-2{fill:#5d6849;}.cls-3{fill:#b1b879;}.cls-4{fill:#6d794e;}.cls-5{fill:#424033;}.cls-6{fill:#768b5c;}.cls-7{fill:#ddd5ae;}.cls-8{fill:#91a374;}.cls-9{fill:#a7b06d;}.cls-10{fill:#a0b08a;}.cls-11{fill:#879761;}.cls-12{fill:#bdc298;}</style></defs><g id="Слой_2" data-name="Слой 2"><g id="Слой_1-2" data-name="Слой 1"><path class="cls-1" d="M15,29.39c.4.59.56.08.7-.18a2.77,2.77,0,0,1,1.53-1.48c.52-.15.79.17.56.74-1.36.15-1.68,1.17-1.83,2.26-.09.71-.05,1.43-.07,2.14-.18.07-.23.17-.16.32L16,33c1.83-1,1.77-2.78,1.78-4.52.85.6.61,1.41.45,2.21,0,.57.63.5.81.87-1,.62-2.19,1.11-2.37,2.53a5.7,5.7,0,0,0-.41.43c.26.33.49.12.72-.08a2.55,2.55,0,0,1,.39,0c.51.52,1.2.23,1.79.39-.47.55-1.36.1-2,.83,2.05-.16,3.83-.13,5.21,1.35a11.52,11.52,0,0,0-5.12-.41c.07.27.06.44.14.53,1.57,1.8,5.92,2.23,8,.78.79-.56.34-1-.19-1.34a10,10,0,0,0-5.58-1.79c0-.18,0-.35.05-.52a6.15,6.15,0,0,0,2.18,0c1.42,0,2.46.92,3.58,1.6a1.91,1.91,0,0,1,1.06,1.81c-.07.8-.84,1-1.46,1.17-2.7.77-5.35,1.09-7.79-.82-1.06-.83-1.48-.64-1.51.8,0,2.3-.34,4.57-.52,6.85a4.29,4.29,0,0,1-.4,2.14c0-.52-.08-1-.11-1.55l-.09-1.39c0-.42.09-.83.13-1.24.66-.67.31-1.52.4-2.29a12.26,12.26,0,0,1,0-3.09,2.54,2.54,0,0,0-.79-2.69c-.07-2.28-1.42-3.62-3.5-5a5,5,0,0,0,1.08,3A28.37,28.37,0,0,1,13.74,36c.1.55.75,1.2-.47,1.41a6.46,6.46,0,0,0-3.19,1.22l-.38.1-.4-.4c.58-.41,1.36-.51,1.9-1.28a3.43,3.43,0,0,0-2.37.1,6.74,6.74,0,0,0-3.09,3c-.61,1.06-.4,1.62.74,1.56,1.82-.09,3.67-.27,5.07-1.7,1-.36,1.12-1.83,2.47-2.12l.19,2.64c0,1.16-.07,2.33-.11,3.49a1.41,1.41,0,0,1-.41,0h0l-.15-1.49V39.46a.36.36,0,0,0-.48.14c-1.76,2.48-4.34,2.9-7.1,2.77-1.29-.06-1.7-.74-1.17-1.94a7.76,7.76,0,0,1,3.33-3.76c.45-.25,1-.28,1.37-.73-.48-.71-1-1.42-1.46-2.15a1.27,1.27,0,0,1-.14-1.46c.45-.62,1-.38,1.59-.09a2.52,2.52,0,0,0,.39.12c.21,0,.24-.1.25-.29,0-.7-.39-1.57.53-2s1.5.7,2.51,1.06c.23-2-.55-3.88-.69-5.78h.69l.15.82c.46,1.32.08,2.8.78,4.08.19,1.32-.3,2.8,1,4.3-.17-1.85-.74-3.27-.57-4.74ZM12.12,36c-.41-.81-1.85-.94-1-2.12,0,0-.39-.42-.45-.39-1,.58-1.32-.7-2.1-.89C9.09,34.91,9.92,35.71,12.12,36Z"/><path class="cls-1" d="M24.43,55.43c.9.32.37.78.07,1.13-1.4,1.69-5.36,2.9-7.56,1.67a11.6,11.6,0,0,1-1.5-.92,1.37,1.37,0,0,0-2.12.32A6.42,6.42,0,0,0,12.15,60c-.75,2.63-1.53,5.25-2.29,7.88-.08.28-.15.57-.22.86-.21.84-.64,1.73-1.58,1.45s-.69-1.33-.48-2.11c.83-3.14,2.09-6.16,2.69-9.36.38-2-.34-3.22-2.41-3.26C4.09,55.4,2.27,52.81.58,50.09c-.74-1.19-.19-2,1.25-2,2.29,0,4.23,1.09,6.37,2.13.08-.91.11-1.75.23-2.59a1,1,0,0,1,.77-1,1.05,1.05,0,0,1,1.1.57A14.9,14.9,0,0,1,12,50.75c1-2.26,1-4.49,1.32-6.67h.35l.09,1.42c0,1.16,0,2.32-.08,3.49-.65.45-.37,1.16-.48,1.76a24.8,24.8,0,0,0-1.33,5.77l-.86.05c-.14-.46-.29-.92-.44-1.38.46-.07.85-.19.85-.78a18.06,18.06,0,0,0,0-2.85,6.28,6.28,0,0,0-2.16-4.18c-.81,1.63-.24,3.2-.44,4.7H8.37C8.05,51.5,7.85,50.8,7,50.73l0,0c0-.29-.23-.39-.46-.45A.62.62,0,0,0,6,50c-1.63-.43-3.17-1.43-5.13-.75,1.1,1.74,1.8,3.58,3.8,4.28l.06,0c.17.68.75.79,1.3.93a2.6,2.6,0,0,0,2.7,0c.52-.75-.12-1.53.05-2.28.82.91,1.91,1.68,1.78,3.13-.21-.06-.48-.22-.61-.14-.37.2-.11.49.06.67s.66.55,1,.83c.1.32.19.65.29,1a82.85,82.85,0,0,1-2.68,9.38,3.1,3.1,0,0,0-.06,2.67,88,88,0,0,0,3.32-12.16l0-.86.37,0h.47c.72.45.4-.22.48-.46l0,0c.82-.36,1.41-1.12,2.31-1.34h.22l.21,0c.32.54.82.31,1.28.31.28.15.7,0,.88.4-.58.28-1.32,0-1.82.51-.29.11-.93.13-.41.6C18.15,58.62,22.52,58,24.43,55.43Z"/><path class="cls-1" d="M12.8,13.34c-1,1.5-.08,3,0,4.47,0,.57.72.47.89.91l-.06.4a.46.46,0,0,0-.2.55,1.91,1.91,0,0,0,.12,1.11,2.18,2.18,0,0,0,0,1.51c.09.51.18,1-.4,1.36-.44-1.1-.84-2.21-1.33-3.29a5.22,5.22,0,0,0-2.05-2.29c-.26-.16-.54-.29-.81-.07a.65.65,0,0,0-.11.82c.38.72.81,1.41,1.22,2.11.08.41.67.68.52,1.31-.85-.33-1.19-1.13-2-1.26a12.39,12.39,0,0,0-3.88-1c.49-.58,1.2-.28,1.79-.43l1.67.27c-.12-2.78-.12-2.78,2.38-2.57a2.5,2.5,0,0,0-.15-1.48,1.7,1.7,0,0,0-2.06-1.49,6.16,6.16,0,0,1-5.71-2.64l.71-.07c.65.46,1.28.94,1.94,1.39a4.55,4.55,0,0,0,4.74.37l0,.49c.9,1,1,2.26,1.3,3.46A4.68,4.68,0,0,0,12.71,20c-.43-2.54-1.21-4.73-.7-7A.83.83,0,0,1,12.8,13.34Z"/><path class="cls-1" d="M16.33,18a11.56,11.56,0,0,1,5.09-3c1.89-.43,2.6.26,2,2.06-1,3-2.76,5.19-6.13,5.69-2.29.33-2.69.88-2.64,3.24,0,.66.11,1.33.17,2-.25.13-.6.31-.61-.15,0-1.58-.36-3.18.2-4.74a4.48,4.48,0,0,0,.11-2.15c.38-.88,1.34-1.53,1.07-2.67C15.86,18.21,16.14,18.22,16.33,18Zm4-1.49a5.66,5.66,0,0,0-3.65,2.26c-.24.3-.4.63.11.86a.53.53,0,0,1,.42.45,1.86,1.86,0,0,0-1,1.68,4.54,4.54,0,0,0,4.88-2.11.36.36,0,0,0,.16-.24c1-.94,1.14-2.26,1.66-3.48a2.06,2.06,0,0,0-2.58.58Z"/><path class="cls-2" d="M8.69,21c.77.13,1.11.93,2,1.26.15-.63-.44-.9-.52-1.31A1.56,1.56,0,0,1,11.82,22c.33.81.68,1.61,1,2.41l.28.49.05.45h-.69c-1.3-1.82-1.33-1.83-3.72-1A1.12,1.12,0,0,0,7.88,24c.42-.5,1.36-.22,1.44-.55C9,21,6.78,24.05,6.45,21.86a11,11,0,0,1-4.11-1.23A9.23,9.23,0,0,1,6.68,21C7.34,21.18,8,21.73,8.69,21Z"/><path class="cls-3" d="M24.43,55.43c-1.91,2.56-6.28,3.19-8.53,1.18-.52-.47.12-.49.41-.6.7.23,1.42.42,2.1.71a2,2,0,0,0,1.89-.26c1.09-.71,1.05-.76,1.29-.74.51,0,1,.6,1.61,0a8.3,8.3,0,0,0-5.95-.66c-.46,0-1,.23-1.28-.31,2-.91,4-.62,6.06-.41.69.59,1.85.14,2.38,1.07Z"/><path class="cls-2" d="M12.8,13.34a.83.83,0,0,0-.79-.43H11.8a7.35,7.35,0,0,1,.55-2.69c.55.33.43.87.46,1.37-.05.24-.38.48-.08.71.09.07.38-.06.54-.16a6.65,6.65,0,0,0,.65-.54H14l.11-.06c2.43-2,1.82-4.68,1.6-7.25-.05-.54-.51-.64-1-.36l-.94.54-.63-.06c.69-.91,1.58-1.92,2.68-1.42.92.41,1,1.72,1,2.77a18.24,18.24,0,0,1-.1,2.87A6,6,0,0,1,12.8,13.34Z"/><path class="cls-4" d="M6.55,2.34c.79.73,1.27-.61,1.63-.39C9.46,2.7,9.58,1.73,10,1c.23-.45.46-1,1.06-1s1,.59,1.16,1.16a4.83,4.83,0,0,1,.12,1.08l-.54,0c-.48-.21-.13-1-.95-1.15a6.48,6.48,0,0,1-.28,2.56c-.47.31-.11,1.07-.68,1.45-.28-.76-.11-1.62-1-1.93C7.8,3,7.55,3.88,7.16,4.57L6,4.48c-1-.68-.37-1.23.14-1.79Z"/><path class="cls-2" d="M15,50.31c.19-.47.38-1,.59-1.41.13-.3.57-.51.69-.36.83,1,1.5.51,2.32,0s1.06.15,1.24.75a2.17,2.17,0,0,1-.45,1.85c-.52.79-1.1,1.53-1.66,2.29s-1.23.5-1.94.29c.15-.68.74-1.08.56-1.73,0-.58,0-1.16,0-1.73,0-.18,0-.47-.25-.39s-.26.32-.38.5l-.54,0Zm3.76-.79c-.62,0-.9.5-1.24.86s-.75.74-.51,1.32a.53.53,0,0,0,.34.23c.73.13,1-.38,1.31-.9S19.28,50.05,18.74,49.52Z"/><path class="cls-4" d="M3.44,11.58l-.71.07a6.67,6.67,0,0,1-2-2.27C.1,8.44.3,7.93,1.37,7.64a8.93,8.93,0,0,1,3.05,0c1.07.09.53-.52.44-.94l.43,0,.7-.9c.46.1.82.5,1.34.41,0,.48.06,1,.08,1.45-.37.25-.61.63-1.25.51A2.29,2.29,0,0,0,4,8.4H3.56c-.92-.58-1.53.12-2.45.38l1,1.2Z"/><path class="cls-5" d="M7.88,24a1.12,1.12,0,0,1,.88.43c-3,.8-6.28-.55-8.43-3.48.11-.14.23-.28.35-.41A9.81,9.81,0,0,0,7.88,24Z"/><path class="cls-6" d="M13.12,24.94l-.28-.49c.37-.15.35-.48.37-.8.58-.32.49-.85.4-1.36a2.18,2.18,0,0,1,0-1.51l.93.09A4.48,4.48,0,0,1,14.4,23c-.56,1.56-.25,3.16-.2,4.74,0,.46.36.28.61.15A2.11,2.11,0,0,1,15,29.39l-.38.46-.47.44c-.7-1.28-.32-2.76-.78-4.08C13.82,25.69,13.88,25.25,13.12,24.94Z"/><path class="cls-5" d="M16.33,52c.18.65-.41,1-.56,1.73.71.21,1.36.39,1.94-.29A14.68,14.68,0,0,1,23,54l-.95.36c-2-.21-4.09-.5-6.06.41l-.21,0h-.22c-.25-.87-1.13.18-1.46-.47L14.17,53c.29,0,.67.56.86-.13C15.63,52.78,15.83,52.14,16.33,52Z"/><path class="cls-2" d="M5.29,6.66l-.43,0A7.29,7.29,0,0,1,3.47,2.85c-.12-.62-.16-1.38.54-1.74s1.25.1,1.78.47a5.46,5.46,0,0,1,.76.76l-.45.35c-.5-.23-.84-.85-1.62-.68C4,3.69,4.94,5.13,5.29,6.66Z"/><path class="cls-2" d="M.68,20.52c-.12.13-.24.27-.35.41-.67-.63-.19-1,.32-1.34a4.79,4.79,0,0,1,2.74-.46,9.69,9.69,0,0,1,3.21.43c-.59.15-1.3-.15-1.79.43C3.45,20.29,2,19.57.68,20.52Z"/><path class="cls-4" d="M21.72,34.25a6.15,6.15,0,0,1-2.18,0L19,33.81c.34-.55.91-1,1-1.68.06-.89-.47-.72-1-.59-.18-.37-.84-.3-.81-.87a1.11,1.11,0,0,0,.82.13c1.81-.08,2.17.25,1.52,1.91C20,34.19,20.92,34.06,21.72,34.25Z"/><path class="cls-5" d="M11.75,2.2l.54,0c.06.57.13,1.14.16,1.71s.37.5.74.46l.63.06a14.89,14.89,0,0,0-1.93,3.08l-.49-.47A10.35,10.35,0,0,0,11.75,2.2Z"/><path class="cls-6" d="M16.33,18a.75.75,0,0,1-.74.25c-.37-.23-.33-.84-.86-.92l-1,1.44c-.17-.44-.87-.34-.89-.91.87.28.87-.58,1.22-.95,1-1.1,1.34-1.07,1.92.33C16.08,17.45,16.07,17.75,16.33,18Z"/><path class="cls-7" d="M14.17,53l-.09,1.32c-.42-.15-.33-.56-.43-.87l.07-1.79,0,0c.65-.42.4-1.11.5-1.7l.31-.12.47.46h.18l-.9,2.29A.27.27,0,0,0,14.17,53Z"/><path class="cls-1" d="M14.51,49.85,14.2,50c0-.36,0-.71-.08-1.07l.05-.82h.46Z"/><path class="cls-5" d="M14.63,48.09h-.46l.06-1.73.34-.1c0,.52.07,1,.11,1.55A.22.22,0,0,1,14.63,48.09Z"/><path class="cls-6" d="M13.7,44.08h-.36a1.91,1.91,0,0,1,.21-1.49Z"/><path class="cls-8" d="M19.49,34.74a10,10,0,0,1,5.58,1.79c.53.34,1,.78.19,1.34-2,1.45-6.38,1-8-.78-.08-.09-.07-.26-.14-.53a11.52,11.52,0,0,1,5.12.41c-1.38-1.48-3.16-1.51-5.21-1.35.67-.73,1.56-.28,2-.83A1.65,1.65,0,0,0,19.49,34.74Z"/><path class="cls-9" d="M11.55,40.06c-1.4,1.43-3.25,1.61-5.07,1.7-1.14.06-1.35-.5-.74-1.56a6.74,6.74,0,0,1,3.09-3,3.43,3.43,0,0,1,2.37-.1c-.54.77-1.32.87-1.9,1.28a4.85,4.85,0,0,0-.66,0c-.54.08-.71.46-.69.94,0,.3.06.59.42.68.56.13.78-.27,1-.65.12-.19.22-.38.33-.57l.38-.1C10.68,39,10.49,40.17,11.55,40.06Zm-4.45.29c-.09.11-.25.22-.25.32s.17.21.33.1a.27.27,0,0,0,.13-.17C7.35,40.42,7.27,40.34,7.1,40.35Z"/><path class="cls-6" d="M11.55,40.06c-1.06.11-.87-1.06-1.47-1.42a6.46,6.46,0,0,1,3.19-1.22c1.22-.21.57-.86.47-1.41l.51-.46A2.54,2.54,0,0,1,15,38.24a12.26,12.26,0,0,0,0,3.09,2.42,2.42,0,0,1-.36.1c-.12-.3-.11-.66-.44-.85L14,37.94C12.67,38.23,12.57,39.7,11.55,40.06Z"/><path class="cls-10" d="M14.25,35.55l-.51.46a28.37,28.37,0,0,0-1.91-2.43,5,5,0,0,1-1.08-3C12.83,31.93,14.18,33.27,14.25,35.55Z"/><path class="cls-8" d="M19,31.54c.52-.13,1.05-.3,1,.59-.05.72-.62,1.13-1,1.68l-1.7.59a2.55,2.55,0,0,0-.39,0l-.31-.35C16.8,32.65,18,32.16,19,31.54Z"/><path class="cls-3" d="M17.73,28.46c0,1.74.05,3.5-1.78,4.52l-.11-.11c0-.71,0-1.43.07-2.14.15-1.09.47-2.11,1.83-2.26Z"/><path class="cls-8" d="M12.12,36c-2.2-.33-3-1.13-3.53-3.4.78.19,1.09,1.47,2.1.89.06,0,.46.38.45.39C10.27,35.1,11.71,35.23,12.12,36Z"/><path class="cls-9" d="M14.1,30.29l.47-.44c-.17,1.47.4,2.89.57,4.74C13.8,33.09,14.29,31.61,14.1,30.29Z"/><path class="cls-6" d="M9.7,38.74c-.11.19-.21.38-.33.57-.22.38-.44.78-1,.65C8,39.87,8,39.58,8,39.28c0-.48.15-.86.69-.94a4.85,4.85,0,0,1,.66,0Z"/><path class="cls-3" d="M14.21,40.58c.33.19.32.55.44.85,0,.73,0,1.46,0,2.19,0,.41-.09.82-.13,1.24-.31-.18-.29-.51-.38-.79C14.14,42.91,14.17,41.74,14.21,40.58Z"/><path class="cls-5" d="M17.32,34.4l1.7-.59.52.41c0,.17,0,.34-.05.52a1.65,1.65,0,0,1-.38,0C18.52,34.63,17.83,34.92,17.32,34.4Z"/><path class="cls-6" d="M14.1,44.07c.09.28.07.61.38.79l.09,1.39-.34.1c-.11-.31-.12-.67-.45-.86l-.09-1.42A1.41,1.41,0,0,0,14.1,44.07Z"/><path class="cls-5" d="M14.61,43.62c0-.73,0-1.46,0-2.19a2.42,2.42,0,0,0,.36-.1C14.92,42.1,15.27,43,14.61,43.62Z"/><path class="cls-9" d="M13.12,24.94c.76.31.7.75.2,1.27l-.15-.82C13.15,25.24,13.14,25.09,13.12,24.94Z"/><path class="cls-8" d="M16.93,34.42c-.23.2-.46.41-.72.08a5.7,5.7,0,0,1,.41-.43Z"/><path class="cls-3" d="M16,33l-.27.21c-.07-.15,0-.25.16-.32Z"/><path class="cls-3" d="M8.83,52.07c.2-1.5-.37-3.07.44-4.7a6.28,6.28,0,0,1,2.16,4.18,18.06,18.06,0,0,1,0,2.85c0,.59-.39.71-.85.78h0c.13-1.45-1-2.22-1.78-3.13Zm2.13,1a8.28,8.28,0,0,0-1.24-4.13c.22,1.51.37,2.55.54,3.58C10.28,52.6,10.46,52.66,11,53.05Z"/><path class="cls-3" d="M11.91,57.42A88,88,0,0,1,8.59,69.58a3.1,3.1,0,0,1,.06-2.67,82.85,82.85,0,0,0,2.68-9.38Z"/><path class="cls-4" d="M8.82,52.06c-.17.75.47,1.53-.05,2.28L7.16,52.91A6,6,0,0,0,3.62,51c-.12-.91-1.33-.53-1.6-1.38a7.62,7.62,0,0,1,3.43,1.06c.88.47.62-.33.59-.77a.62.62,0,0,1,.54.35.42.42,0,0,0,.46.45l0,0c.28,1.26.44,1.42,1.35,1.34h.45Z"/><path class="cls-3" d="M6,50c0,.44.29,1.24-.59.77A7.62,7.62,0,0,0,2,49.66c.27.85,1.48.47,1.59,1.38A.85.85,0,0,0,4,52.11a1.23,1.23,0,0,1,.71,1.37c-2-.7-2.7-2.54-3.8-4.28C2.87,48.52,4.41,49.52,6,50Z"/><path class="cls-8" d="M4.71,53.48A1.23,1.23,0,0,0,4,52.11.85.85,0,0,1,3.61,51a6,6,0,0,1,3.55,1.87l1.61,1.43a2.6,2.6,0,0,1-2.7,0c.2-.14.91-.07.31-.56a2,2,0,0,0-1.61-.37Z"/><path class="cls-11" d="M17.25,55.1a8.3,8.3,0,0,1,5.95.66c-.59.56-1.1,0-1.61,0-.24,0-.2,0-1.29.74a2,2,0,0,1-1.89.26c-.68-.29-1.4-.48-2.1-.71.5-.52,1.24-.23,1.82-.51C18,55.08,17.53,55.25,17.25,55.1Z"/><path class="cls-11" d="M13.65,53.42c.1.31,0,.72.43.87.33.65,1.21-.4,1.46.47-.9.22-1.49,1-2.31,1.34a3.18,3.18,0,0,0-.15-2,4.61,4.61,0,0,0-.78,2.38l-.37,0,0,0a24.8,24.8,0,0,1,1.33-5.77h.4c0,.31.05.62.08.93l0,0A1.09,1.09,0,0,0,13.65,53.42Z"/><path class="cls-5" d="M12.3,56.52a4.61,4.61,0,0,1,.78-2.38,3.18,3.18,0,0,1,.15,2l0,0-.48.46Z"/><path class="cls-9" d="M13.78,45.49c.33.19.34.55.45.86l-.06,1.73c0,.28,0,.55-.05.82a.68.68,0,0,1-.42.08h0C13.73,47.81,13.75,46.65,13.78,45.49Z"/><path class="cls-12" d="M8.37,52.07C7.46,52.15,7.3,52,7,50.73,7.85,50.8,8.05,51.5,8.37,52.07Z"/><path class="cls-3" d="M4.77,53.45a2,2,0,0,1,1.61.37c.6.49-.11.42-.31.56C5.52,54.24,4.94,54.13,4.77,53.45Z"/><path class="cls-4" d="M11,56.55c-.33-.28-.68-.53-1-.83s-.43-.47-.06-.67c.13-.08.4.08.61.14h0c.15.46.3.92.44,1.38Z"/><path class="cls-11" d="M11.91,57.42l-.58.11c-.1-.33-.19-.66-.29-1h0l.86-.05,0,0C11.92,56.84,11.92,57.13,11.91,57.42Z"/><path class="cls-9" d="M13.62,50.74h-.4c.11-.6-.17-1.31.48-1.76h0C13.67,49.56,13.64,50.15,13.62,50.74Z"/><path class="cls-11" d="M12.77,56.53l.48-.46C13.17,56.31,13.49,57,12.77,56.53Z"/><path class="cls-12" d="M7,50.75a.42.42,0,0,1-.46-.45C6.81,50.36,7,50.46,7,50.75Z"/><path class="cls-8" d="M3.56,8.41H4c3,.42,5.47,1.59,6.14,4.94A4.55,4.55,0,0,1,5.38,13c-.66-.45-1.29-.93-1.94-1.39L2.11,10C2,8.88,3.18,9,3.56,8.41Zm4.35,4.05c.38,0,.7.61,1.19.09a7.47,7.47,0,0,0-3.82-2.34c.88,1.23,2.16,1.25,2.64,2.27-.62.08-1.17-.68-2-.23C7,12.75,7,12.75,7.91,12.46Z"/><path class="cls-5" d="M10.12,13.34C9.45,10,7,8.82,4,8.4a2.29,2.29,0,0,1,2.18-.27c.64.12.88-.26,1.25-.51.47.71.8,1.55,1.82,2,.13-1.09-.6-1.94-.42-2.89h0l.79,1,.24,1.26c.28-.53.38-1-.07-1.4C9.7,6,8.66,4.69,8.87,3.13c.86.31.69,1.17,1,1.93.57-.38.21-1.14.68-1.45a16.94,16.94,0,0,1,.41,3.54,2,2,0,0,0-.19,1.95c.32-.52.43-1,.91-1.11a23.18,23.18,0,0,0-.38,4.85c-.19.54-.46,1-1.12,1Z"/><path class="cls-8" d="M.68,20.52C2,19.57,3.45,20.29,4.81,20a12.39,12.39,0,0,1,3.88,1c-.67.75-1.35.2-2,0a9.23,9.23,0,0,0-4.34-.36,11,11,0,0,0,4.11,1.23C6.78,24.05,9,21,9.32,23.43c-.08.33-1,.05-1.44.55A9.81,9.81,0,0,1,.68,20.52Z"/><path class="cls-9" d="M13.21,23.65c0,.32,0,.65-.37.8-.34-.8-.69-1.6-1-2.41a1.56,1.56,0,0,0-1.69-1.11c-.41-.7-.84-1.39-1.22-2.11A.65.65,0,0,1,9,18c.27-.22.55-.09.81.07a5.22,5.22,0,0,1,2.05,2.29C12.37,21.44,12.77,22.55,13.21,23.65Z"/><path class="cls-11" d="M10.15,13.83c.66,0,.93-.45,1.12-1l.53.06H12c-.51,2.31.27,4.5.7,7a4.68,4.68,0,0,1-1.26-2.66C11.14,16.09,11.05,14.81,10.15,13.83Z"/><path class="cls-3" d="M13.72,18.72l1-1.44c.53.08.49.69.86.92.26,1.14-.7,1.79-1.08,2.67l-.93-.09a1.91,1.91,0,0,1-.12-1.11c.07-.19.13-.37.2-.55Z"/><path class="cls-6" d="M13.66,19.12c-.07.18-.13.36-.2.55A.46.46,0,0,1,13.66,19.12Z"/><path class="cls-8" d="M21.12,19.6a4.54,4.54,0,0,1-4.88,2.11,1.86,1.86,0,0,1,1-1.68C19.11,18.78,19.11,18.78,21.12,19.6Z"/><path class="cls-6" d="M21.12,19.6c-2-.82-2-.82-3.89.43a.53.53,0,0,0-.42-.45,7.21,7.21,0,0,1,2.52-1.92c.52-.22,1.07-.48,1-1.2h0c.58.1,1.45-.09,1.07,1a4.82,4.82,0,0,0-.15,1.89A.36.36,0,0,1,21.12,19.6Z"/><path class="cls-8" d="M21.28,19.36a4.82,4.82,0,0,1,.15-1.89c.38-1.1-.49-.91-1.07-1a2.06,2.06,0,0,1,2.58-.58C22.42,17.1,22.28,18.42,21.28,19.36Z"/><path class="cls-8" d="M20.35,16.46c0,.72-.5,1-1,1.2a7.21,7.21,0,0,0-2.52,1.92c-.51-.23-.35-.56-.11-.86A5.66,5.66,0,0,1,20.35,16.46Z"/><path class="cls-3" d="M11.8,12.9l-.53-.06A23.86,23.86,0,0,1,11.64,8a.39.39,0,0,0,.25-.44,14.89,14.89,0,0,1,1.93-3.08l.94-.54c.48-.28.94-.18,1,.36.22,2.57.83,5.25-1.6,7.25-.5-.92-1.29-1.78-.2-2.89.28-.29.17-1,.24-1.48a1.05,1.05,0,0,0,.47-.86,4.91,4.91,0,0,0,.48-.43c.18-.22.35-.53,0-.72s-.5.1-.56.4-.06.42-.08.63a1.1,1.1,0,0,0-.45.88c-1.12.75-1.18,2.08-1.73,3.14A7.35,7.35,0,0,0,11.8,12.9Z"/><path class="cls-11" d="M14.19,7.17c-.07.5,0,1.19-.24,1.48-1.09,1.11-.3,2,.2,2.89L14,11.6H12.81c0-.5.09-1-.46-1.37.55-1.06.61-2.39,1.73-3.14Z"/><path class="cls-3" d="M12.81,11.58h1.1a5.54,5.54,0,0,1-.64.54c-.16.1-.45.23-.54.16C12.43,12.06,12.76,11.82,12.81,11.58Z"/><path class="cls-8" d="M9.58,7.66l-.79-1-.09-.1.11.09c-.18,1,.55,1.8.42,2.89-1-.4-1.35-1.24-1.82-1.95,0-.49,0-1-.08-1.45a3.35,3.35,0,0,0-.17-1.6C7.55,3.88,7.8,3,8.87,3.13,8.66,4.69,9.7,6,9.75,7.52Z"/><path class="cls-9" d="M10.93,7.15a16.94,16.94,0,0,0-.41-3.54,6.48,6.48,0,0,0,.28-2.56c.82.13.47.94.95,1.15a10.35,10.35,0,0,1-.35,4.88Z"/><path class="cls-9" d="M5.29,6.66C4.94,5.13,4,3.69,4.48,2c.78-.17,1.12.45,1.62.68C5.59,3.25,5,3.8,6,4.48L6,5.76Z"/><path class="cls-1" d="M6,5.76,6,4.48l1.2.09a3.35,3.35,0,0,1,.17,1.6C6.81,6.26,6.45,5.86,6,5.76Z"/><path class="cls-8" d="M18.74,49.52c.54.53.15,1-.1,1.51s-.58,1-1.31.9A.53.53,0,0,1,17,51.7c-.24-.58.17-1,.51-1.32S18.12,49.57,18.74,49.52Z"/><path class="cls-3" d="M16.33,52c-.5.19-.7.83-1.3.89a.58.58,0,0,0,0-.32l.68-2.19c.12-.18.21-.45.38-.5s.25.21.25.39C16.34,50.79,16.33,51.37,16.33,52Z"/><path class="cls-5" d="M15.7,50.33c-.23.73-.46,1.46-.68,2.19l-.76.07.9-2.29Z"/><path class="cls-12" d="M3.56,8.41C3.18,9,2,8.88,2.11,10l-1-1.2C2,8.53,2.64,7.83,3.56,8.41Z"/><path class="cls-11" d="M14.26,52.59l.76-.07a.58.58,0,0,1,0,.32c-.19.69-.57.09-.86.13A.27.27,0,0,1,14.26,52.59Z"/><path class="cls-4" d="M10.93,7.15l.47-.07.49.47a.39.39,0,0,1-.25.44c-.47.12-.58.59-.9,1.11A2,2,0,0,1,10.93,7.15Z"/><path class="cls-5" d="M13.62,50.74c0-.59.05-1.18.08-1.76a.68.68,0,0,0,.42-.08c0,.36.05.71.08,1.07-.1.59.15,1.28-.5,1.7C13.67,51.36,13.64,51.05,13.62,50.74Z"/><path class="cls-5" d="M13.65,53.42a1.09,1.09,0,0,1,.07-1.79C13.7,52.23,13.67,52.82,13.65,53.42Z"/><path class="cls-6" d="M7.1,40.35c.17,0,.25.07.21.25a.27.27,0,0,1-.13.17c-.16.11-.32.07-.33-.1S7,40.46,7.1,40.35Z"/><path class="cls-6" d="M11,53.05c-.5-.39-.68-.45-.7-.55-.17-1-.32-2.07-.54-3.58A8.28,8.28,0,0,1,11,53.05Z"/><path class="cls-2" d="M7.92,12.48c-.48-1-1.76-1-2.64-2.27A7.47,7.47,0,0,1,9.1,12.55c-.49.52-.81,0-1.19-.09Z"/><path class="cls-4" d="M7.91,12.46c-.89.29-.89.29-2-.21.81-.45,1.36.31,2,.23Z"/><path class="cls-8" d="M9.75,7.52c.45.39.35.87.07,1.4L9.58,7.66Z"/><path class="cls-11" d="M14.52,6.19c0-.21.05-.42.09-.63s.23-.59.56-.4.15.5,0,.72a4.91,4.91,0,0,1-.48.43Z"/><path class="cls-11" d="M14.08,7.07a1.1,1.1,0,0,1,.45-.88l.13.12a1.05,1.05,0,0,1-.47.86Z"/><polygon class="cls-5" points="8.81 6.68 8.7 6.59 8.79 6.7 8.81 6.68"/></g></g></svg>