<svg xmlns="http://www.w3.org/2000/svg" viewBox="0 0 46.36 74.98"><defs><style>.cls-1{fill:#515141;}.cls-2{fill:#424033;}.cls-3{fill:#b1b879;}.cls-4{fill:#5d6849;}.cls-5{fill:#a7b06d;}.cls-6{fill:#99a45f;}.cls-7{fill:#879761;}.cls-8{fill:#f9f5ea;}.cls-9{fill:#768b5c;}.cls-10{fill:#6d794e;}.cls-11{fill:#bdc298;}</style></defs><g id="Слой_2" data-name="Слой 2"><g id="Слой_1-2" data-name="Слой 1"><path class="cls-1" d="M43,27.1c1-.12,1.23.59,1.42,1.32a9.56,9.56,0,0,1-.06,4.81c-.13.58-.23,1,.53,1.11s1.08.93,1,1.71-.24,1.6-.34,2.4c-.13,1-1.14,2,.48,2.77.38.18.27.93.11,1.45a9.29,9.29,0,0,1-1,2.66c-.2.3-.64.67-.1,1.11,1.3,1.07.58,2.12-.14,3.07-.42.57-.78,1.28-1.6,1.42l-.06,0c-.1-1,.83-1.31,1.21-2,.64-1.11.63-1.32-.62-2.05-.46-.26-.45-.48-.25-.84s.4-.61.6-.91c.52-.39.48-1,.71-1.58.74-1.62.7-1.64-1-2.51l.8-2.53A4,4,0,0,0,45,36.13c0-.42,0-1-.52-1.1-1.37-.19-1.21-.91-.88-1.9a10.66,10.66,0,0,0,.23-2.2c.54-1.07-.26-2-.22-2.87-.78-.52-1.58.37-2.28-.41.16-.65.38-1.35.5-2.06a6,6,0,0,0-.87-3.8c-.44-.85-1.43.08-2.07-.51A6.67,6.67,0,0,0,39,19c-.51-2.92-.47-2.93-3.15-2.43a13.11,13.11,0,0,0-1-4.71c-.28-.64-.59-1.27-1.45-.81s-1.39,0-1.59-.81A8.12,8.12,0,0,0,30,6.78v0c-.63-1.28-1.28-.77-1.94,0-.65-.07-.74-.59-.91-1.09a8.89,8.89,0,0,0-2.18-3.57c-.67-.66-1.39-1.66-2.6-.79a9.07,9.07,0,0,0-3.13,4.56l0,0c-.3.17-.58.66-.94.4-1.37-1-2,.06-2.7.94a9.14,9.14,0,0,0-1.37,3c-.17.64-.48,1.16-1.24.63s-1.25,0-1.48.64a9.8,9.8,0,0,0-1.08,4.48c.06.71-.19,1.24-1,.9-1.09-.46-1.46.19-1.83,1A4.74,4.74,0,0,0,7,21.05c.2.81,0,1.5-1.1,1.39s-1.41.54-1.41,1.5a15.42,15.42,0,0,0,.36,4.34c-2.51.44-3,1.13-2.42,3.63A8.25,8.25,0,0,1,3,34.18c-2.05.57-2.35,1.07-1.83,3a20.86,20.86,0,0,0,.74,2.32c.33.86.48,1.52-.78,1.68-.5.06-.62.6-.47,1.07s.41,1.1.62,1.65a4.32,4.32,0,0,0,1.39,1.67l.12.9c-2,.54-2.14.77-.94,2.34.62.81,1.38,1.52,2.07,2.27-1.43,1.39-1.43,1.39-.08,2.87.38.42,1,.73.94,1.41l-.12,0C3.38,55,2.82,54,2.12,53,1.89,52.72,1.74,52.2,2,52c1-1,.15-1.68-.38-2.41-.87-1.17-2.19-2.28-.29-3.69.39-.29,0-.67-.21-1A4.59,4.59,0,0,1,0,41.85c0-.37,0-1,.2-1,1.62-.59.7-1.69.49-2.55a8.56,8.56,0,0,1-.5-2.6c0-.43.1-1.12.36-1.24,1.85-.82,1-2.25,1-3.54s-.07-2.76,1.62-3.25c.56-.16.59-.51.55-1-.08-1-.11-1.92-.12-2.88s.57-2,1.44-2c1.55.09,1.28-.78,1.2-1.63-.12-1.34.64-2.39,1.12-3.54.11-.25.41-.63.59-.61,1.81.24,1.59-1.24,1.87-2.23a19.53,19.53,0,0,1,1.28-3.31c.3-.58.68-1,1.4-.59.92.46,1.12-.17,1.35-.86a9.41,9.41,0,0,1,2-3.39c.41-.45.82-.8,1.29-.53,1,.57,1.34,0,1.81-.74A12.27,12.27,0,0,1,21.87.71c1.23-.92,1.5-1,2.68,0a10.26,10.26,0,0,1,3,4.05c.23.6.42.86,1.07.54.89-.44,1.37.25,1.86.79a14.64,14.64,0,0,1,2.22,4.07c1.79-.39,2-.33,2.71,1.22A14.65,14.65,0,0,1,36.21,14c.21.84.17,1.86,1.58,1.31.48-.18.76.36,1,.72a5.18,5.18,0,0,1,.92,2.7c.06,1-.18,2.06,1.45,1.91.42,0,.57.63.72,1a9.6,9.6,0,0,1,.66,5C42.26,27.26,42.52,27.31,43,27.1Z"/><path class="cls-2" d="M24.32,68.68l-.21,1.79L23.42,70l.75-8.86c1.56-.7,3-1.8,4.85-1.46.81,0,1.62.07,2.43.13a13.73,13.73,0,0,0,8-2.18c.31-.18.84-.4.5-.75-1-1.09,0-1.27.61-1.71a6.78,6.78,0,0,0,2.4-2.24.87.87,0,0,0-.11-1.18v-.83l.44,0,.06,0c1,1.78.08,3-1.25,4-.7.57-1.69.85-1.26,2.18.17.51-.64.92-1.11,1.26a13.27,13.27,0,0,1-7,2.34,23.07,23.07,0,0,1-4-.18c-2.36-.29-3.85.87-4.07,3.22-.14,1.47-.16,3-.23,4.42A.28.28,0,0,0,24.32,68.68Z"/><path class="cls-3" d="M24.17,61.15,23.42,70a38.28,38.28,0,0,1-.65,4.89l-.18.08-.19,0a2.44,2.44,0,0,1-.61-2.58,28.41,28.41,0,0,0,1-9.45l0-.86a7.7,7.7,0,0,1,.44-2.73c0-3.4,0-6.8.05-10.21h.33l.27,7.61a11.4,11.4,0,0,1,.3,3.54C24.14,60.55,24.16,60.85,24.17,61.15Z"/><path class="cls-2" d="M22.74,62l0,.86H22c-1.13-2.47-1.84-2.9-4.42-2.46a17.2,17.2,0,0,1-8.49-.27A4.32,4.32,0,0,1,7,58.94a2.32,2.32,0,0,0-.43-.5c-.75-.53,1-1.3-.19-1.8a3.52,3.52,0,0,1-1.74-1.31l.12,0c1.44.16,2.45,1.11,3.71,1.75-1.41,1.28-1.42,1.36,0,2a7.49,7.49,0,0,0,2.76.78,27,27,0,0,0,5.32-.14,4.22,4.22,0,0,0,1.08-.06,3.54,3.54,0,0,1,4.19,1.48A8,8,0,0,0,22.74,62Z"/><path class="cls-1" d="M22,62.9h.8a28.41,28.41,0,0,1-1,9.45,2.44,2.44,0,0,0,.61,2.58c-1.7-.23-2.08-.55-1.67-1.75C21.87,69.83,21.91,66.37,22,62.9Z"/><path class="cls-4" d="M22.77,74.9A38.28,38.28,0,0,0,23.42,70l.69.46a10.2,10.2,0,0,1-.43,3.38C23.55,74.34,23.36,74.8,22.77,74.9Z"/><path class="cls-3" d="M24.32,68.68a.28.28,0,0,1,.08-.46,2,2,0,0,1,.05.34S24.36,68.64,24.32,68.68Z"/><path class="cls-5" d="M1.27,43.89c-.21-.55-.45-1.09-.62-1.65s0-1,.47-1.07c1.26-.16,1.11-.82.78-1.68a20.86,20.86,0,0,1-.74-2.32c-.52-1.92-.22-2.42,1.83-3a8.25,8.25,0,0,0-.54-2.27c-.54-2.5-.09-3.19,2.42-3.63a15.42,15.42,0,0,1-.36-4.34c0-1,.3-1.61,1.41-1.5s1.3-.58,1.1-1.39a4.74,4.74,0,0,1,.47-3.21c.37-.81.74-1.46,1.83-1,.83.34,1.08-.19,1-.9a9.8,9.8,0,0,1,1.08-4.48c.23-.6.61-1.26,1.48-.64s1.07,0,1.24-.63a9.14,9.14,0,0,1,1.37-3c.66-.88,1.33-1.89,2.7-.94.36.26.64-.23.94-.4.29,1.06-.34,1.62-1.21,1.54-1.58-.13-1.39.79-1.29,1.75,0,1.25-.57,2.4-.51,3.66,0,.55-.48.65-.93.7l0,0L15,13c-.24.1-.22.31-.24.51-.27.74-1.1.93-1.52,1.54-.2.3-.77.58-.59.85.78,1.2.08,2.27-.09,3.4a1.3,1.3,0,0,0,.71,1.27,2.48,2.48,0,0,1,1.06,1.84l0,0A7.54,7.54,0,0,0,11.21,22c-.7.44-.23,1.27-.59,1.84-.63.05-1-.63-1.65-.51-.27-.09-.7-.25-.76.05a6.09,6.09,0,0,0,0,1.76c.18,2.24.63,4.46,0,6.71a3.52,3.52,0,0,0,.45,2.78,4.72,4.72,0,0,1,.81,2.94,1.43,1.43,0,0,0,.89,1.34v0c.16,1-.45,1.4-1.55,1.5,1,.5,1.94-.06,2.54.73l-.63.18c.47,1.12-.55,1.44-1.35,2,1.14.07,2,.09,2.88.21a.63.63,0,0,1,.57.78c-.1.4-.46.23-.74.18s-.59-.12-.54.35c.22.38.64.29,1,.44a.83.83,0,0,1,.44,1.1c-.13.48-.51.41-.89.32-.89-.22-1.48.49-2.22.76a2.21,2.21,0,0,0-1.25-.51c-.46-1-.58-2.19-1.77-2.68l-.43-.45a1.23,1.23,0,0,0-1.52-1.22,1.68,1.68,0,0,0,1.48,1.25.57.57,0,0,0,.45.44c-.22,1.23.94,1.75,1.36,2.65-.66,0-1.46,0-1.6.82s.66.84,1.17,1.08c.3.14.36.45.4.75H7.22a1.39,1.39,0,0,0-1-.43c-2.38-.23-2.38-.23-1.7-2.43.09-.28.19-.56.28-.83a1.77,1.77,0,0,0-.69-2.11C3,42.74,2.18,43.1,1.27,43.89Zm9.31-24.7a2.2,2.2,0,0,0,0,2A2.17,2.17,0,0,0,10.58,19.19Z"/><path class="cls-5" d="M30,6.78a8.12,8.12,0,0,1,1.86,3.42c.2.85.64,1.32,1.59.81s1.17.17,1.45.81a13.11,13.11,0,0,1,1,4.71c-.56.39-.45,1-.56,1.55-.37,1.73-.12,3.56-.89,5.21h-.84c-.47-.06-.84-.25-.9-.77-.17-1.3-.89-.84-1.53-.47-1,.61-.65,1.66-.72,2.56-.92,0-1.33.82-2,1.23-.43.26-.65.57-.4,1.07s.46,1.1,1.16,1.18c.3,0,.73-.14.59-.43-.62-1.23.56-2,.65-3.05,1.08-1,1.8.25,2.69.45L31.7,29.53v0c-1.2.4-1.43,1.91-2.64,2.3-.53-.52-.88-1.24-1.76-1.56,0,.46-.07.75-.07,1a3.75,3.75,0,0,1-1.48,2.78c-.74.65-.66-1.21-1.58-1a1.66,1.66,0,0,1-.44,0l-.12-4,.51-.85c1-1.24,2.45-2.19,2.76-3.94A6.06,6.06,0,0,0,29,20.55,3.28,3.28,0,0,1,30.82,18c0,.73,0,1.45,0,2.18s.37,1,1,.51a3.54,3.54,0,0,0,1.23-3.58c-.29-1.17-.67.1-1-.06a.42.42,0,0,0-.72-.14c-1.11,1.07-1.42.09-1.83-.67a6.21,6.21,0,0,1,.16-.86c.17-.56.51-1.21-.12-1.59-.47-.29-1,.21-1.39.46-.2.1-.34.31-.54.38-.73.25-1.45.54-.85-.8.17-.36-.52-.21-.83-.27-.1-1,1.2-1.6.88-2.7h0l.49-.45a6.26,6.26,0,0,0,.87-.1c.37-.1.7-.35.65-.76s-.51-.46-.87-.48c-.51,0-1,0-1.54,0l0-.87c1.15.23,2.35,0,3.6.46Z"/><path class="cls-3" d="M34.36,23.3c.77-1.66.52-3.49.89-5.22.11-.56,0-1.16.56-1.55C38.49,16,38.45,16,39,19a6.67,6.67,0,0,1,0,2.32c.64.59,1.63-.34,2.07.51a6,6,0,0,1,.87,3.8c-.12.71-.34,1.41-.5,2.06.7.78,1.5-.11,2.28.41,0,.9.76,1.8.22,2.87a11.06,11.06,0,0,0-2.68,1c-.69.43-1.39.84-2.09,1.23a1.53,1.53,0,0,1-1.67.17c-.56-.4-.4-1.06-.3-1.64.06-.36.27-.7.31-1.05s.11-1.07-.69-1.19a18,18,0,0,0-.41,3c-.28,1.49-1.28,2.65-1.53,4.11a1,1,0,0,0-.45,1h0c-1.19.53-1.21,2-2.2,2.69-.06-1.12.23-2.34-.92-3.15-.17-1.86-.15-1.82-1.64-1.17-.79.35-1.36,1.11-2.27,1.21l-1.47,0c.63-1.16,2.16-1.4,2.78-2.31,1.12-1.67,2.55-3.22,3.06-5.26v0c1.21-.9,1.61-2.31,2.24-3.57l.44.46c.59.79,1.13-.13,1.7-.05.54-.18,1-.51.89-1.11s-.75-.6-1.18-.83-.66,0-1,.17-.35-.26-.44-.48Zm-3.8,11.38c.73.3,1.85-.06,2.17,1.06.06.21.41.13.54-.05,1-1.37,2-2.73,2-4.52,0-1-1.11-1.59-1.65-.91C32.5,31.61,30.56,32.41,30.56,34.68Z"/><path class="cls-6" d="M42.83,51.76a.87.87,0,0,1,.11,1.18,6.78,6.78,0,0,1-2.4,2.24c-.61.44-1.65.62-.61,1.71.34.35-.19.57-.5.75a13.73,13.73,0,0,1-8,2.18c-.81-.06-1.62-.09-2.43-.13,0-.35-.08-.93.32-.93,1.17,0,2.26-1.32,3.52.06a10.24,10.24,0,0,0,.67-2.56c1.13-.46,2.2-1.19,3.52-.72.68.25.9-.25,1.11-.72a5.57,5.57,0,0,0,.23-2.15c.18-.16.56-.27.16-.59l-.18.57A2.1,2.1,0,0,0,37,53.2c-1,1-2.29,1.11-3.57,1.44-1.12.29-2-.34-3-.19a2.52,2.52,0,0,0,.43-1.36c1.24-1.74,3.11-1.82,5.1-1.78-.48-.88-1.82,0-1.93-1.2l.91-.55.9.46c.32.44.73.39,1.18.24A5,5,0,0,0,40.6,46c.77-.13,1.35-.45,1.34-1.35.78.09,1.64-.28,2.28.47-.2.3-.41.6-.6.91s-.21.58.25.84c1.25.73,1.26.94.62,2.05-.38.67-1.31,1-1.21,2l-.44,0c-.28.14-.64.25-.52.65C42.34,51.68,42.65,51.7,42.83,51.76Z"/><path class="cls-6" d="M1.27,43.89c.91-.79,1.75-1.15,2.86-.16a1.77,1.77,0,0,1,.69,2.11c-.09.27-.19.55-.28.83-.68,2.2-.68,2.2,1.7,2.43a1.39,1.39,0,0,1,1,.43c1.26.78,2.67.34,4,.47h0c.11.32.42.68-.13.89s-.54.55-.07.7c1.26.38,1.69,1.55,2.45,2.4l0,0a5.47,5.47,0,0,1-3.59-.22c-.6-.28-.74.19-.84.65l-.09.15L9,54.44c1.09,0,2,.19,2.3,1.51.17.83.9,1.07,1.7,1.06,2.86,0,2.86,0,3.53,2.71a27,27,0,0,1-5.32.14,7.49,7.49,0,0,1-2.76-.78c-1.39-.62-1.38-.7,0-2-1.26-.64-2.27-1.59-3.71-1.75,0-.68-.56-1-.94-1.41-1.35-1.48-1.35-1.48.08-2.87-.69-.75-1.45-1.46-2.07-2.27C.64,47.23.75,47,2.78,46.46c.19.25.43.41.65.1A.6.6,0,0,0,3.36,46a3.78,3.78,0,0,0-.7-.44A4.32,4.32,0,0,1,1.27,43.89Z"/><path class="cls-6" d="M30,6.78V8.61c-1.25-.49-2.45-.23-3.6-.46-.06,0-.13-.09-.19-.09a.25.25,0,0,0-.19.11c-.11.5-.42,1.06-.28,1.48.41,1.22-.17,2.33-.26,3.48A2.88,2.88,0,0,1,23.2,15.9c0-1.66.09-3.14,0-4.6s.57-2.87-.55-4.23a5.57,5.57,0,0,0-.27,2.54c-.07,1.57-.05,1.57-1.8,1.21h0a.92.92,0,0,0-.51-.9c-.13-.25-.29-.5-.4-.76-.65-1.43-.84-1.48-2.21-.54a4,4,0,0,0-.49.43,1.65,1.65,0,0,0-.32.07c-.1-1-.29-1.88,1.29-1.75.87.08,1.5-.48,1.21-1.54l0,0c.71.1,1-.49,1.42-.87.57-.58,1.17.09,1.71-.08V1.33c1.21-.87,1.93.13,2.6.79A8.89,8.89,0,0,1,27.1,5.69c.17.5.26,1,.91,1.09L30,6.8Z"/><path class="cls-6" d="M34.81,36.56c.25-1.46,1.25-2.62,1.53-4.11a18,18,0,0,1,.41-3c.8.12.74.69.69,1.19s-.25.69-.31,1.05c-.1.58-.26,1.24.3,1.64a1.53,1.53,0,0,0,1.67-.17c.7-.39,1.4-.8,2.09-1.23a11.06,11.06,0,0,1,2.68-1,10.66,10.66,0,0,1-.23,2.2c-.33,1-.49,1.71.88,1.9.52.08.53.68.52,1.1a4,4,0,0,1-.36,2.37c-.37-.44-.69-.51-1,.1s-.51.85-.84.14c-.63-1.35-.93,0-1.38.13l-1.35.44,0-1.81v0l.46-.47c-.18-.25-.32-.19-.44.05l0,0-1-.12c0-1.41,1.56-2.2,1.66-3.61-.73-.23-1.12.19-1.58.37-3.39,1.35-3.39,1.35-4,4.67-1.08.44-1.08.44-.93-.87h0C34.77,37.33,34.77,36.93,34.81,36.56Zm6.69.08c-.2.07-.23.14-.1.16s.07-.1.1-.16c.19-.07.23-.14.09-.16S41.53,36.58,41.5,36.64Zm.62-1.45c0,.06-.06.12,0,.17s.09,0,.14.06a.61.61,0,0,0,0-.18S42.17,35.21,42.12,35.19Z"/><path class="cls-5" d="M41.51,38.87c.45-.13.75-1.48,1.38-.13.33.71.64.34.84-.14s.58-.54,1-.1c-.27.84-.54,1.69-.8,2.53a11,11,0,0,0-2.74,3.48c0,.05,0,.14,0,.21a2.28,2.28,0,0,1-1.9.9c-.12-1.79,1.44-2.9,1.82-4.49C42.72,40.66,41.85,39.72,41.51,38.87Z"/><path class="cls-7" d="M41.16,44.72c0-.07,0-.16,0-.21A11,11,0,0,1,43.88,41c1.75.87,1.79.89,1,2.51-.23.53-.19,1.19-.71,1.58-.64-.75-1.5-.38-2.28-.47Z"/><path class="cls-5" d="M22.32,1.33V4.94c-.54.17-1.14-.5-1.71.08-.37.38-.71,1-1.42.87A9.07,9.07,0,0,1,22.32,1.33Z"/><path class="cls-5" d="M30,6.8,28,6.78C28.67,6,29.32,5.52,30,6.8Z"/><path class="cls-5" d="M2.66,45.56a3.78,3.78,0,0,1,.7.44.6.6,0,0,1,.07.56c-.22.31-.46.15-.65-.1Z"/><path class="cls-8" d="M43,27.1c-.52.21-.78.16-.49-.47Z"/><path class="cls-9" d="M33.53,56.26a10.24,10.24,0,0,1-.67,2.56c-1.26-1.38-2.35-.06-3.52-.06-.4,0-.3.58-.32.93-1.86-.34-3.29.76-4.85,1.46,0-.3,0-.6,0-.9a5.61,5.61,0,0,1,2.65-2.66,7.46,7.46,0,0,0,4-.92h0c.93.15,1.73-.53,2.66-.45Z"/><path class="cls-1" d="M42.83,51.76c-.18-.06-.49-.08-.51-.18-.12-.4.24-.51.52-.65Z"/><path class="cls-10" d="M13.47,54c-.76-.85-1.19-2-2.45-2.4-.47-.15-.44-.5.07-.7s.24-.57.13-.89l1.28.06a4.28,4.28,0,0,0,.34.79c.12.15.4.34.54.29.41-.13.11-.45.1-.7s0-.29,0-.44l1.73,1.4a1.58,1.58,0,0,0,.63,1.13c1.3.77,2,2.09,3,3.15.2.37.66.9.55,1.1-.43.79.12.77.57.92a1.29,1.29,0,0,0,1.5-.55h.48a2.8,2.8,0,0,0,1.26,2.18A7.7,7.7,0,0,0,22.74,62a8,8,0,0,1-.94-.9,3.54,3.54,0,0,0-4.19-1.48,4.22,4.22,0,0,1-1.08.06C15.86,57,15.86,57,13,57c-.8,0-1.53-.23-1.7-1.06-.29-1.32-1.21-1.5-2.3-1.51H9c.1-.46.24-.93.84-.65a5.47,5.47,0,0,0,3.59.22c.59,1.16.59,1.16,2,1C14.68,54.63,14.28,54,13.47,54Z"/><path class="cls-4" d="M23.18,59.31a2.8,2.8,0,0,1-1.26-2.18,5.28,5.28,0,0,0-1.35-6.25l.09-.43c1.24.3,1.33-.41,1.27-1.36s0-2.08,0-3.11l-.05-.89c.3-.46-.53-1.72.95-1.32.27,1.77-.37,3.61.44,5.33C23.21,52.51,23.2,55.91,23.18,59.31Z"/><path class="cls-4" d="M23.83,56.71l-.27-7.61h1c.86.44,1-.69,1.62-.74a1.34,1.34,0,0,1,.63,0c.31.16.28.46.16.76-.4,1-1.17,1.9-1.1,3.09-1.51,1-1.51,1,.1,1.94.28.16.31.46.37.74l-.45.44-.43.46h0c-.51,0-.83.2-.83.75Z"/><path class="cls-6" d="M23.23,49.1c-.81-1.72-.17-3.56-.44-5.33h0a.78.78,0,0,0,.36-1l0-.73a21,21,0,0,0,0-4.69h.45c.07,3.19.13,6.39.19,9.58,0,.72,0,1.44,0,2.16h-.51Z"/><path class="cls-2" d="M23.83,56.71l.82-.16a1.22,1.22,0,0,0,.83-.75h0a1.53,1.53,0,0,0,.43,0l.42.42c-1,.89-.94,1,.45,1.4h0a5.63,5.63,0,0,0-2.64,2.66A11.4,11.4,0,0,0,23.83,56.71Z"/><path class="cls-3" d="M9.45,37.53a4.72,4.72,0,0,0-.81-2.94,3.52,3.52,0,0,1-.45-2.78c.63-2.25.18-4.47,0-6.71a6.09,6.09,0,0,1,0-1.76c.06-.3.49-.14.76-.05a4.74,4.74,0,0,0,1.56,1.46,4.52,4.52,0,0,1,1.55,3c.16.93-1,.73-1.26,1.28a1,1,0,0,0-.9.8c-.3,1.44.51,2.34,1.49,3.18.62.55,1,.33,1.34-.34a1.24,1.24,0,0,0-.21-1.6,6.87,6.87,0,0,1-1.32-2H13l0,0a9.55,9.55,0,0,0,1.66,3.6l.18.83a1.21,1.21,0,0,0-1,.35c-.3.12-.69,0-.92.37a2.86,2.86,0,0,0,1.75.59l.89.08.95,1.3a3.79,3.79,0,0,0,.6,2.09c.25.49.45,1.22,0,1.4-1.26.45-1.44,1.61-1.82,2.58-2.29-.76-1.38-3.09-2.77-4.36v3.22c-1.07-.44-1.22-1.76-2.21-2.28v0A1.44,1.44,0,0,0,9.45,37.53Z"/><path class="cls-3" d="M11.21,22a7.54,7.54,0,0,1,3.12.45c.08.2.16.23.19.08s-.11-.07-.16-.11a2.48,2.48,0,0,0-1.06-1.84,1.3,1.3,0,0,1-.71-1.27c.17-1.13.87-2.2.09-3.4-.18-.27.39-.55.59-.85.42-.61,1.25-.8,1.52-1.54l.45,0,0,0a5.26,5.26,0,0,1,1.37,3.62c.06,1.36,0,2.71,1,3.89.48.54,1.13,1.34.58,2.2-.67,1-1.61.19-2.42.19l-.31-.23c-.2.4.11.44.37.52,1.08,1.06,2.67.69,3.9,1.37a6.42,6.42,0,0,0,.23,1.51,1.12,1.12,0,0,1-1.46,1.29c-1.66-.51-1.67-.51-1.89,1.14a1.3,1.3,0,0,1-.46,1c-.1-.45.22-1-.26-1.38a8.16,8.16,0,0,0-.79,2.79c-1-.68-.73-2.16-2.05-2.28l0,0V24.41c-.54.47-.28,1-.83,1.13C11.5,24.45,11.71,23.1,11.21,22Z"/><path class="cls-6" d="M15.18,51.39,13.45,50h0c-.24-.32-.22-.87-.77-.86a6,6,0,0,0-.1.82l-.09.09L11.22,50h0c.12-1-.26-1.67-1.34-1.79h0l-.09-.82c.74-.27,1.33-1,2.22-.76.38.09.76.16.89-.32a.83.83,0,0,0-.44-1.1c-.32-.15-.74-.06-1-.44,0-.47.25-.4.54-.35s.64.22.74-.18a.63.63,0,0,0-.57-.78c-.86-.12-1.74-.14-2.88-.21.8-.55,1.82-.87,1.35-2l.62-.18,2.15,1.8,0,0c.53.61,1,1.22,1.58,1.81,1.23,1.34,2.75,2.4,3.72,4A1.91,1.91,0,0,0,18,50c-.09,1.16-.72,1.47-1.74,1.39A8,8,0,0,0,15.18,51.39Z"/><path class="cls-10" d="M15.74,23.39c.81,0,1.75.85,2.42-.19.55-.86-.1-1.66-.58-2.2-1-1.18-.94-2.53-1-3.89a5.26,5.26,0,0,0-1.37-3.62c.45-.05,1-.15.93-.7-.06-1.26.53-2.41.51-3.66A1.65,1.65,0,0,1,17,9.06c0,2.22,0,4.44,0,6.65a5.76,5.76,0,0,0,1.1,3.67c.54-.56-.09-1.38.73-1.87,0,1.22-.06,2.33,0,3.43.14,2.26,1.28,3.27,3.49,3.19a7.45,7.45,0,0,1,0,2.31c-.64.13-.86-.44-1.31-.46h0c-.19-1-.19-1-.9-.88l-.4,0c-1.23-.68-2.82-.31-3.9-1.37A.75.75,0,0,1,15.74,23.39Z"/><path class="cls-7" d="M11.21,22c.5,1.14.29,2.49.95,3.58.55-.14.29-.66.83-1.13v4.65H11.22c-.13,0-.26,0-.4,0,.3-.55,1.42-.35,1.26-1.28a4.52,4.52,0,0,0-1.55-3A4.74,4.74,0,0,1,9,23.29c.63-.12,1,.56,1.65.51C11,23.23,10.51,22.4,11.21,22Z"/><path class="cls-6" d="M8.09,49.52c0-.3-.1-.61-.4-.75-.51-.24-1.3-.29-1.17-1.08s.94-.78,1.6-.82h0l.46.45,1.32.89h0C9.79,49.33,8.68,49.07,8.09,49.52Z"/><path class="cls-10" d="M13.46,42.88l-2.15-1.8c-.59-.79-1.55-.23-2.53-.73,1.1-.1,1.71-.49,1.55-1.5,1,.52,1.14,1.84,2.21,2.28v0l.45.54C13.17,42,13.49,42.39,13.46,42.88Z"/><path class="cls-10" d="M8.09,49.52c.59-.45,1.7-.19,1.8-1.31,1.08.12,1.46.77,1.34,1.79-1.34-.13-2.75.31-4-.47Z"/><path class="cls-10" d="M6.78,44.2c1.19.49,1.31,1.7,1.77,2.68h0a2.16,2.16,0,0,1-.44,0h0c-.42-.9-1.58-1.42-1.36-2.65Z"/><path class="cls-10" d="M6.31,43.78a1.68,1.68,0,0,1-1.48-1.25,1.23,1.23,0,0,1,1.52,1.22Z"/><path class="cls-7" d="M10.58,19.19a2.17,2.17,0,0,1,0,2A2.2,2.2,0,0,1,10.58,19.19Z"/><path class="cls-10" d="M9.89,48.21l-1.32-.89a1.63,1.63,0,0,1,0-.44h0a2.21,2.21,0,0,1,1.25.51Z"/><path class="cls-10" d="M9.45,37.53a1.44,1.44,0,0,1,.89,1.34A1.43,1.43,0,0,1,9.45,37.53Z"/><path class="cls-10" d="M15.24,13.51l-.45,0c0-.2,0-.41.24-.51Z"/><path class="cls-10" d="M6.35,43.75l.43.45,0,0a.57.57,0,0,1-.45-.44Z"/><path class="cls-10" d="M23.76,47c-.06-3.19-.12-6.39-.19-9.58h-.45a21.63,21.63,0,0,1,0,4.69,6.27,6.27,0,0,1-2.56-2.28c.09-.69-.27-1.51.59-1.95.6.3.23,1.36,1.12,1.41V34.4c0-1.18,0-2.36,0-3.53l0-.91.13-.93h1.18l.12,4c.22,1.26.43,2.53.71,4.13a16.69,16.69,0,0,0,4.62-5.38c1.21-.39,1.44-1.9,2.64-2.3-.51,2-1.94,3.59-3.06,5.26-.62.91-2.15,1.15-2.78,2.31a4.05,4.05,0,0,0-1.43,1.36.84.84,0,0,0,.15,1.34c.22,1.47-.48,2.85-.43,4.3,0,.78-.54,2,1.13,1.82.22,0,.17.64.2,1l-.9,1.32v0C24.06,48,24.26,47.23,23.76,47Z"/><path class="cls-10" d="M20.56,10.82c1.75.36,1.73.36,1.8-1.21a5.57,5.57,0,0,1,.27-2.54c1.12,1.36.45,2.86.55,4.23s0,2.94,0,4.6a2.88,2.88,0,0,0,2.23-2.77c.09-1.15.67-2.26.26-3.48-.14-.42.17-1,.28-1.48a.25.25,0,0,1,.19-.11c.06,0,.13.06.19.09,0,.29,0,.58,0,.87,0,.64-.24,1.33.42,1.81.32,1.1-1,1.67-.88,2.7.14,1.4-1.07,2.25-1.4,3.46-1.51,1-1.21,2.64-1.37,4.11l-.81,0A4.42,4.42,0,0,0,21,17.27c-.32-.29-.78-.62-.67-1.07.17-.71.72-.09,1.07-.2a.73.73,0,0,0,.43-.43,16.77,16.77,0,0,0,.37-2.81c0-.74-.91-.88-1.28-1.41Z"/><path class="cls-11" d="M24.54,17c.33-1.21,1.54-2.06,1.4-3.46.31.06,1-.09.83.27-.6,1.34.12,1,.85.8.2-.07.34-.28.54-.38.43-.25.92-.75,1.39-.46.63.38.29,1,.12,1.59a6.21,6.21,0,0,0-.16.86v0c-1.18.14-1.24,1.07-1.37,1.94-.06.43,0,1-.59,1-.91.09-1.47-.85-2.4-.91C24.51,18.21,24.65,17.46,24.54,17Z"/><path class="cls-6" d="M29.07,31.81a16.69,16.69,0,0,1-4.62,5.38c-.28-1.6-.49-2.87-.71-4.13a1.66,1.66,0,0,0,.44,0c.92-.23.84,1.63,1.58,1a3.75,3.75,0,0,0,1.48-2.78c0-.29,0-.58.07-1C28.19,30.57,28.54,31.29,29.07,31.81Z"/><path class="cls-1" d="M22.36,21.06l.81,0c.26,2.09-.3,4.25.48,6.3l.48.78-.51.85H22.44C22.29,27.85,21.23,27.11,21,26c.45,0,.67.59,1.31.46a7.45,7.45,0,0,0,0-2.31C22.33,23.11,22.34,22.09,22.36,21.06Z"/><path class="cls-3" d="M32.06,17c.32.16.7-1.11,1,.06a3.54,3.54,0,0,1-1.23,3.58c-.62.44-.95.16-1-.51s0-1.45,0-2.18Z"/><path class="cls-10" d="M32.06,17,30.82,18A3.28,3.28,0,0,0,29,20.55a6,6,0,0,1-2.15,3.69l-.12-.1c.09-.75.63-1.3.85-2,.66-2,1.81-3.8,1.9-6v0c.41.76.72,1.74,1.83.67A.42.42,0,0,1,32.06,17Z"/><path class="cls-3" d="M33.06,25.07c-.89-.2-1.61-1.41-2.69-.45h0c.07-.9-.31-1.95.72-2.56.64-.37,1.36-.83,1.53.47.06.52.43.71.9.77C33.36,23.89,33.21,24.48,33.06,25.07Z"/><path class="cls-10" d="M33.06,25.07c.15-.59.3-1.18.46-1.77h.84c0,.28,0,.55,0,.83-.6.51-.39,1.2-.4,1.84-.63,1.26-1,2.67-2.24,3.57C32.15,28,32.61,26.56,33.06,25.07Z"/><path class="cls-3" d="M30.37,24.62c-.09,1-1.27,1.82-.65,3.05.14.29-.29.46-.59.43-.7-.08-.9-.66-1.16-1.18s0-.81.4-1.07c.67-.41,1.08-1.23,2-1.23Z"/><path class="cls-6" d="M26.82,10.83c-.66-.48-.42-1.17-.42-1.81.51,0,1,0,1.54,0,.36,0,.81,0,.87.48s-.28.66-.65.76a6.26,6.26,0,0,1-.87.1c-.67-.39-.37.25-.49.45Z"/><path class="cls-10" d="M24.13,28.18l-.48-.78c1.35-.79,2-2.27,3.11-3.26l.12.1C26.58,26,25.16,26.94,24.13,28.18Z"/><path class="cls-10" d="M26.8,10.84c.12-.2-.18-.84.49-.45Z"/><path class="cls-6" d="M24.59,39.78a.84.84,0,0,1-.15-1.34,4.05,4.05,0,0,1,1.43-1.36l1.47,0a4.11,4.11,0,0,0-.08.86c.13,1.75,1,2.15,2.61,1.41,1.08-.51.69-1.69,1.38-2.31,1.15.81.86,2,.92,3.15h0l-.44.53a6.08,6.08,0,0,1-2.24,2.12c-.21-1.11-1-.93-1.69-.69s-1.37-.13-1.37-.9C26.41,39.93,25.73,39.63,24.59,39.78Z"/><path class="cls-11" d="M30.56,34.68c0-2.27,1.94-3.07,3-4.42.54-.68,1.62-.09,1.65.91.06,1.79-1,3.15-2,4.52-.13.18-.48.26-.54.05C32.41,34.62,31.29,35,30.56,34.68Z"/><path class="cls-11" d="M31.25,37.06c-.69.62-.3,1.8-1.38,2.31-1.58.74-2.48.34-2.61-1.41a4.11,4.11,0,0,1,.08-.86c.91-.1,1.48-.86,2.27-1.21C31.1,35.24,31.08,35.2,31.25,37.06Z"/><path class="cls-4" d="M29.48,42.86a6.08,6.08,0,0,0,2.24-2.12c.15-.17.3-.35.44-.53h0c1-.69,1-2.16,2.2-2.69-.15,1.31-.15,1.31.93.87,1.38-.29,2.81-.42,3.92-1.43l1,.12a.83.83,0,0,0,0,.44v0c-.74,0-1.17.6-1.75.91a1.63,1.63,0,0,0-1,.32l-.78.16a7.25,7.25,0,0,0-3.16,1.22,9.16,9.16,0,0,0-2.72,3.53l-.77.14-.54-.55A1.61,1.61,0,0,0,29.48,42.86Z"/><path class="cls-5" d="M33.94,26c0-.64-.2-1.33.4-1.84.09.22,0,.71.44.48s.63-.37,1-.17,1.12.15,1.18.83-.35.93-.89,1.11c-.59-.81-1.14-.21-1.7.05Z"/><path class="cls-10" d="M34.38,26.42c.56-.26,1.11-.86,1.7-.05C35.51,26.29,35,27.21,34.38,26.42Z"/><path class="cls-4" d="M34.81,36.56c0,.37,0,.77-.45,1A1,1,0,0,1,34.81,36.56Z"/><path class="cls-7" d="M25.89,52.21c-.07-1.19.7-2.08,1.1-3.09.12-.3.15-.6-.16-.76a1.34,1.34,0,0,0-.63,0c-.63,0-.76,1.18-1.62.74v-.88c1.34-.2,2-1.25,2.66-2.23h0a.44.44,0,0,0,.44-.44h0a.42.42,0,0,0,.44-.44h1.31c.15.46-.56,1.23.49,1.36a1,1,0,0,1,.87.82c.53,1.61.53,1.54,1.93.71a2.09,2.09,0,0,0,1.19-2.14,3,3,0,0,1,.5-2.09.64.64,0,0,1,.75-.31c.49.19.32.51.18.88-.72,1.87-.71,1.88,1.21,2.49a1.44,1.44,0,0,1-.41,1.2c-.53.55-.25,1.07,0,1.59l-.43.43-.9-.46c0-.25.31-.53.07-.73s-.52,0-.71.19a2.6,2.6,0,0,0-.32.51c-.7.61-1.39,1.25-2.11,1.84s-.88.17-1-.47c.48-.35,1.15-.61.56-1.48a2.71,2.71,0,0,0-.6,1.44,2.25,2.25,0,0,0-.9.91c-1.71.79-.92.94-3.34.36A1.9,1.9,0,0,0,25.89,52.21Z"/><path class="cls-9" d="M30.36,54.45c1-.15,1.9.48,3,.19,1.28-.33,2.56-.43,3.57-1.44a2.1,2.1,0,0,1,1.42-.55l0,0a5.57,5.57,0,0,1-.23,2.15c-.21.47-.43,1-1.11.72-1.32-.47-2.39.26-3.52.72l-.05,0c-1.07-.93-1.88-.28-2.66.45h0l-1.37-.11c0-.41,0-.82,0-1.23h0a.83.83,0,0,0,.9-.9Z"/><path class="cls-9" d="M25.89,52.21a1.9,1.9,0,0,1,.66-.08c2.42.58,1.63.43,3.34-.36,0,.62,0,1.29.9,1.32a2.52,2.52,0,0,1-.43,1.36h0a1.56,1.56,0,0,0-.9.9h0l-.88,0-.09-.11.76-1.77c-1.13.6-1.86,1.36-2.89,1.44l0,0c-.06-.28-.09-.58-.37-.74C24.38,53.24,24.38,53.24,25.89,52.21Z"/><path class="cls-3" d="M35.77,50c.14-.15.29-.29.43-.43a9.88,9.88,0,0,0,2.23-3.05L40.6,46A5,5,0,0,1,37,50.26C36.5,50.41,36.09,50.46,35.77,50Z"/><path class="cls-4" d="M30.79,53.09c-.9,0-.86-.7-.9-1.32a2.25,2.25,0,0,1,.9-.91l0,0c.09.64.34,1,1,.47s1.41-1.23,2.11-1.84c0,.19,0,.39.05.58.11,1.19,1.45.32,1.93,1.2C33.9,51.27,32,51.35,30.79,53.09Z"/><path class="cls-10" d="M40.6,46l-2.17.54c-.51-.15-1.07.32-1.57-.09.15-.49.11-1.06.63-1.38.52.39.86,1.38,1.77.55a2.28,2.28,0,0,0,1.9-.9l.78-.07C42,45.55,41.37,45.87,40.6,46Z"/><path class="cls-1" d="M34,50.11c0-.19,0-.39-.05-.58a2.6,2.6,0,0,1,.32-.51c.19-.2.46-.41.71-.19s0,.48-.07.73Z"/><path class="cls-9" d="M38.37,52.65l.18-.57c.4.32,0,.43-.16.59Z"/><path class="cls-10" d="M9,54.44l-.09.16L9,54.45Z"/><path class="cls-5" d="M22.36,21.06c0,1,0,2.05-.05,3.07-2.21.08-3.35-.93-3.49-3.19-.07-1.1,0-2.21,0-3.43-.82.49-.19,1.31-.73,1.87A5.76,5.76,0,0,1,17,15.71c0-2.21,0-4.43,0-6.65a4,4,0,0,1,.49-.43c1.37-.94,1.56-.89,2.21.54.11.26.27.51.4.76a1.14,1.14,0,0,0,.51.9h0l.39.53c.37.53,1.28.67,1.28,1.41a16.77,16.77,0,0,1-.37,2.81.73.73,0,0,1-.43.43c-.35.11-.9-.51-1.07.2-.11.45.35.78.67,1.07A4.42,4.42,0,0,1,22.36,21.06Z"/><path class="cls-10" d="M20.58,10.83a1.14,1.14,0,0,1-.51-.9A.92.92,0,0,1,20.58,10.83Z"/><path class="cls-7" d="M39.26,45.62c-.91.83-1.25-.16-1.77-.55.14-.71,1.28-1.5.44-2-1.37-.88-.9-1.57-.18-2.4a1.87,1.87,0,0,0,.59-1.34c0-.14,0-.27,0-.41a.87.87,0,0,1,.84.53c.4.93.66.33.93-.1l1.35-.44c.34.85,1.21,1.79-.43,2.26C40.7,42.72,39.14,43.83,39.26,45.62Z"/><path class="cls-3" d="M39.22,37c-1.11,1-2.54,1.14-3.92,1.43.61-3.32.61-3.32,4-4.67.46-.18.85-.6,1.58-.37C40.78,34.76,39.25,35.55,39.22,37Z"/><path class="cls-5" d="M40.16,39.31c-.27.43-.53,1-.93.1a.87.87,0,0,0-.84-.53c0-.15,0-.31,0-.47.58-.31,1-.92,1.75-.91Z"/><path class="cls-5" d="M42.12,35.19c.05,0,.14,0,.14.05a.61.61,0,0,1,0,.18c-.05,0-.14,0-.14-.06S42.1,35.25,42.12,35.19Z"/><path class="cls-5" d="M40.13,37.52a.83.83,0,0,1,0-.44l0,0,.44-.05Z"/><path class="cls-5" d="M41.5,36.64c0,.06-.07.17-.1.16s-.1-.09.1-.16Z"/><path class="cls-4" d="M40.59,37.05l-.44.05C40.27,36.86,40.41,36.8,40.59,37.05Z"/><path class="cls-5" d="M41.5,36.64c0-.06.07-.17.09-.16s.1.09-.09.16Z"/><path class="cls-4" d="M29.44,56.56l1.37.11a7.46,7.46,0,0,1-4,.92h0l1.37-.93Z"/><path class="cls-4" d="M30.82,56.67c.78-.73,1.59-1.38,2.66-.45C32.55,56.14,31.75,56.82,30.82,56.67Z"/><path class="cls-7" d="M15.18,51.39a8,8,0,0,1,1.09,0c1,.08,1.65-.23,1.74-1.39a1.91,1.91,0,0,1,.73-1.29,1.47,1.47,0,0,1,.93,1.28.88.88,0,0,0,.9.94,5.28,5.28,0,0,1,1.35,6.25h-.48c-1.1-.09-1.59-1.26-2.62-1.47-1-1.06-1.71-2.38-3-3.15A1.58,1.58,0,0,1,15.18,51.39Z"/><path class="cls-4" d="M18.82,55.67c1,.21,1.52,1.38,2.62,1.47a1.29,1.29,0,0,1-1.5.55c-.45-.15-1-.13-.57-.92C19.48,56.57,19,56,18.82,55.67Z"/><path class="cls-6" d="M13.47,54c.81,0,1.21.65,1.92,1-1.37.16-1.37.16-2-1Z"/><path class="cls-6" d="M13.45,50c0,.15,0,.29,0,.44s.31.57-.1.7c-.14,0-.42-.14-.54-.29a4.28,4.28,0,0,1-.34-.79l.09-.09.87,0Z"/><path class="cls-6" d="M13.46,42.88c0-.49-.29-.84-.47-1.24a.69.69,0,0,0-.45-.54V37.91c1.39,1.27.48,3.6,2.77,4.36.38-1,.56-2.13,1.82-2.58.48-.18.28-.91,0-1.4a3.79,3.79,0,0,1-.6-2.09H17a.6.6,0,0,0,.46.46h0a.55.55,0,0,0,.45.45h0a3.53,3.53,0,0,0,1.37,2.17c.21.32.45.58.88.51l0,0c.26,1.57,1.71,2.16,2.64,3.18l0,.84h0c-1.48-.4-.65.86-.94,1.32-1.65-.12-2.14,1.32-3,2.22-1.68-1.21-1.48-3.33-2.35-5.26a5.25,5.25,0,0,0-.34,2.6h0c-1-.4-1.41-1.76-2.68-1.8Z"/><path class="cls-10" d="M13.44,42.86c1.27,0,1.65,1.4,2.68,1.8a.39.39,0,0,0,.08.14s.07,0,.11,0l-.18-.18a5.25,5.25,0,0,1,.34-2.6c.87,1.93.67,4.05,2.35,5.26A5.64,5.64,0,0,0,21,49.42c0-1,0-1.69,0-2.4a.92.92,0,0,1,.87-1c0,1,0,2.07,0,3.11s0,1.66-1.27,1.36l-.09.43a.88.88,0,0,1-.9-.94,1.47,1.47,0,0,0-.93-1.28c-1-1.59-2.49-2.65-3.72-4C14.48,44.08,14,43.47,13.44,42.86Z"/><path class="cls-7" d="M21.89,46A.92.92,0,0,0,21,47c0,.71,0,1.42,0,2.4a5.64,5.64,0,0,1-2.21-2.11c.89-.9,1.38-2.34,3-2.22C21.86,45.39,21.88,45.68,21.89,46Z"/><path class="cls-1" d="M24.59,48.24v.86h-.84c0-.72,0-1.44,0-2.16C24.26,47.23,24.06,48,24.59,48.24Z"/><path class="cls-9" d="M25.48,55.8a1.22,1.22,0,0,1-.83.75C24.65,56,25,55.79,25.48,55.8Z"/><path class="cls-9" d="M25.91,55.76a1.53,1.53,0,0,1-.43,0l.43-.46,0,0C25.94,55.49,25.93,55.62,25.91,55.76Z"/><path class="cls-9" d="M25.91,55.33l.45-.44,0,0-.43.44Z"/><path class="cls-2" d="M22.76,42.93c-.93-1-2.38-1.61-2.64-3.18a1.32,1.32,0,0,1,.44,0,6.27,6.27,0,0,0,2.56,2.28l0,.73A2,2,0,0,0,22.76,42.93Z"/><path class="cls-10" d="M22.76,42.93a2,2,0,0,1,.39-.13.78.78,0,0,1-.36,1Z"/><path class="cls-9" d="M28.15,56.65l-1.37.93c-1.39-.43-1.41-.51-.45-1.4.69-.39,1.3-1,2.18-.93l.09.11A2.6,2.6,0,0,0,28.15,56.65Z"/><path class="cls-1" d="M28.51,55.25c-.88,0-1.49.54-2.18.93l-.42-.42c0-.14,0-.27,0-.4l.43-.44c1-.08,1.76-.84,2.89-1.44Z"/><path class="cls-7" d="M20.56,39.79a1.32,1.32,0,0,0-.44,0l0,0a2,2,0,0,0-.89-1,2.07,2.07,0,0,0-1.36-1.64h0a.55.55,0,0,0-.45-.45h0a.55.55,0,0,0-.46-.46h0a3.41,3.41,0,0,0-1.18-2.35,7.76,7.76,0,0,0-.2-1.07c-.22-.63-.58-.5-1-.1A9.55,9.55,0,0,1,13,29.08c1.32.12,1.08,1.6,2.05,2.28a8.16,8.16,0,0,1,.79-2.79c.48.39.16.93.26,1.38-.3,1.82.87,3.17,1.5,4.7a.64.64,0,0,0,.69.42c.47-.08.43-.5.48-.86.11-.69-.26-1.49.59-2.39.17,1.37-.29,2.49.35,3.46.2.31.33.69.74.7s.56-.44.53-.78c-.1-1.13.63-.89,1.27-.8v4.85c-.89,0-.52-1.11-1.12-1.41C20.29,38.28,20.65,39.1,20.56,39.79Z"/><path class="cls-11" d="M10.82,29c.14,0,.27,0,.4,0a6.87,6.87,0,0,0,1.32,2,1.24,1.24,0,0,1,.21,1.6c-.33.67-.72.89-1.34.34-1-.84-1.79-1.74-1.49-3.18A1,1,0,0,1,10.82,29Z"/><path class="cls-4" d="M15.83,33.85A3.41,3.41,0,0,1,17,36.2h-.45l-.95-1.3-.06-.83Z"/><path class="cls-4" d="M14.72,34.82A2.86,2.86,0,0,1,13,34.23c.23-.34.62-.25.92-.37C14.41,34,14.8,34.19,14.72,34.82Z"/><path class="cls-4" d="M14.68,32.68c.37-.4.73-.53,1,.1a7.76,7.76,0,0,1,.2,1.07l-.28.22-.69-.56Z"/><path class="cls-6" d="M14.86,33.51l.69.56.06.83-.89-.08c.08-.63-.31-.85-.83-1A1.21,1.21,0,0,1,14.86,33.51Z"/><path class="cls-6" d="M22.27,34.4c-.64-.09-1.37-.33-1.27.8,0,.34,0,.79-.53.78s-.54-.39-.74-.7c-.64-1-.18-2.09-.35-3.46-.85.9-.48,1.7-.59,2.39-.05.36,0,.78-.48.86a.64.64,0,0,1-.69-.42c-.63-1.53-1.8-2.88-1.5-4.7a1.3,1.3,0,0,0,.46-1c.22-1.65.23-1.65,1.89-1.14a1.12,1.12,0,0,0,1.46-1.29,6.42,6.42,0,0,1-.23-1.51l.4,0A1.76,1.76,0,0,0,21,26h0c.25,1.13,1.31,1.87,1.46,3.05,0,.31-.08.62-.13.93-.27.05-.61.07-.64.42s.31.42.59.49C22.26,32,22.27,33.22,22.27,34.4Z"/><path class="cls-5" d="M15.74,23.39a.75.75,0,0,0,.06.29c-.26-.08-.57-.12-.37-.52Z"/><path class="cls-5" d="M14.36,22.38c.05,0,.16.09.16.11s-.11.12-.19-.08Z"/><path class="cls-10" d="M13.46,50l-.87,0a6,6,0,0,1,.1-.82C13.24,49.13,13.22,49.68,13.46,50Z"/><path class="cls-1" d="M21,26a1.76,1.76,0,0,1-.9-.88C20.81,25,20.81,25,21,26Z"/><path class="cls-5" d="M8.55,46.88a1.63,1.63,0,0,0,0,.44l-.46-.45A2.16,2.16,0,0,0,8.55,46.88Z"/><path class="cls-3" d="M12.54,41.1a.69.69,0,0,1,.45.54Z"/><path class="cls-7" d="M29.48,42.86a1.61,1.61,0,0,1-.07.37,2,2,0,0,0-1.26,1.86h0a.39.39,0,0,0-.44.44h0a.4.4,0,0,0-.44.44h0c-.82-.15-1.15.64-1.76.91,0-.36,0-1-.2-1-1.67.15-1.1-1-1.13-1.82-.05-1.45.65-2.83.43-4.3,1.14-.15,1.82.15,1.83,1.49,0,.77.5,1.18,1.37.9S29.27,41.75,29.48,42.86Z"/><path class="cls-1" d="M25.49,46.9c.61-.27.94-1.06,1.76-.91-.69,1-1.32,2-2.66,2.23Z"/><path class="cls-7" d="M22.26,30.87c-.28-.07-.61-.12-.59-.49S22,30,22.31,30C22.3,30.26,22.28,30.57,22.26,30.87Z"/><path class="cls-5" d="M26.76,24.14c-1.13,1-1.76,2.47-3.11,3.26-.78-2-.22-4.21-.48-6.3C23.33,19.63,23,18,24.54,17c.11.47,0,1.22.61,1.26.93.06,1.49,1,2.4.91.56-.06.53-.6.59-1,.13-.87.19-1.8,1.37-1.94-.09,2.16-1.24,4-1.9,6C27.39,22.84,26.85,23.39,26.76,24.14Z"/><path class="cls-3" d="M32.16,40.21c-.14.18-.29.36-.44.53C31.87,40.57,32,40.39,32.16,40.21Z"/><path class="cls-5" d="M38.34,39.29a1.87,1.87,0,0,1-.59,1.34c-.72.83-1.19,1.52.18,2.4.84.54-.3,1.33-.44,2-.52.32-.48.89-.63,1.38-.09.12-.19.23-.29.35-1.92-.61-1.93-.62-1.21-2.49.14-.37.31-.69-.18-.88a.64.64,0,0,0-.75.31,3,3,0,0,0-.5,2.09A2.09,2.09,0,0,1,32.74,48c-1.4.83-1.4.9-1.93-.71a1,1,0,0,0-.87-.82c-1.05-.13-.34-.9-.49-1.36h0a3.86,3.86,0,0,0,2.88-1c-.53-.45-1-.27-1.53-.31l-.09-.12a9.16,9.16,0,0,1,2.72-3.53,2.25,2.25,0,0,1-.85,2.13.62.62,0,0,0-.19.78c.17.28.5.26.78.19a5.49,5.49,0,0,0,3.42-4.32l.78-.15A1,1,0,0,0,38.34,39.29Z"/><path class="cls-3" d="M36.6,38.89a5.49,5.49,0,0,1-3.42,4.32c-.28.07-.61.09-.78-.19a.62.62,0,0,1,.19-.78,2.25,2.25,0,0,0,.85-2.13A7.25,7.25,0,0,1,36.6,38.89Z"/><path class="cls-1" d="M28.15,45.09a2,2,0,0,1,1.26-1.86l.54.55,0,0c-.53.26-.54.75-.53,1.24H28.15Z"/><path class="cls-3" d="M38.34,39.29a1,1,0,0,1-1-.55,1.58,1.58,0,0,1,1-.33c0,.16,0,.32,0,.47S38.36,39.15,38.34,39.29Z"/><path class="cls-5" d="M30,43.78l.77-.14.09.12c-.24.37-.51.5-.82.07Z"/><path class="cls-6" d="M36.57,46.8c.1-.12.2-.23.29-.35.5.41,1.06-.06,1.57.09a9.88,9.88,0,0,1-2.23,3.05c-.29-.52-.57-1,0-1.59A1.44,1.44,0,0,0,36.57,46.8Z"/><path class="cls-4" d="M30.79,50.86a2.71,2.71,0,0,1,.6-1.44c.59.87-.08,1.13-.56,1.48Z"/><path class="cls-1" d="M27.25,46a.4.4,0,0,1,.44-.44A.44.44,0,0,1,27.25,46Z"/><path class="cls-1" d="M27.7,45.54a.39.39,0,0,1,.44-.44A.42.42,0,0,1,27.7,45.54Z"/><path class="cls-6" d="M28.15,56.65a2.6,2.6,0,0,1,.45-1.29l.88,0c0,.41,0,.82,0,1.23Z"/><path class="cls-6" d="M29.47,55.34a1.56,1.56,0,0,1,.9-.9A.83.83,0,0,1,29.47,55.34Z"/><path class="cls-4" d="M17.89,37.09a2.07,2.07,0,0,1,1.36,1.64c0,.18,0,.36,0,.53A3.53,3.53,0,0,1,17.89,37.09Z"/><path class="cls-2" d="M19.26,39.26c0-.17,0-.35,0-.53a2,2,0,0,1,.89,1C19.71,39.84,19.47,39.58,19.26,39.26Z"/><path class="cls-4" d="M17.45,36.64a.55.55,0,0,1,.45.45A.55.55,0,0,1,17.45,36.64Z"/><path class="cls-4" d="M17,36.19a.55.55,0,0,1,.46.46A.6.6,0,0,1,17,36.19Z"/><path class="cls-6" d="M16.13,44.65l.18.18s-.09,0-.11,0a.39.39,0,0,1-.08-.14Z"/><path class="cls-7" d="M30,43.83c.31.43.58.3.82-.07.49,0,1-.14,1.53.31a3.86,3.86,0,0,1-2.88,1C29.45,44.58,29.46,44.09,30,43.83Z"/></g></g></svg>