<svg xmlns="http://www.w3.org/2000/svg" viewBox="0 0 45.34 87.63"><defs><style>.cls-1{fill:#5d6849;}.cls-2{fill:#bdc298;}.cls-3{fill:#b1b879;}.cls-4{fill:#424033;}.cls-5{fill:#515141;}.cls-6{fill:#91a374;}.cls-7{fill:#a0b08a;}.cls-8{fill:#879761;}.cls-9{fill:#a7b06d;}.cls-10{fill:#ddd5ae;}.cls-11{fill:#768b5c;}.cls-12{fill:#6d794e;}.cls-13{fill:#f9f5ea;}.cls-14{fill:#99a45f;}.cls-15{fill:#9f8da5;}</style></defs><g id="Слой_2" data-name="Слой 2"><g id="Слой_1-2" data-name="Слой 1"><path class="cls-1" d="M26.73,14.74l0-4.94A6.6,6.6,0,0,1,26.73,14.74Z"/><path class="cls-2" d="M34.29,13.08c-.14-.16-.43-.38-.4-.48.42-1.15.5-2.48,1.68-3.22A9.08,9.08,0,0,1,34.29,13.08Z"/><path class="cls-2" d="M36.89,6.74A2.11,2.11,0,0,1,38,4.48C37.61,5.22,37.67,6.19,36.89,6.74Z"/><path class="cls-2" d="M35.56,9.4c-.05-.78,0-1.49.9-1.8A2.2,2.2,0,0,1,35.56,9.4Z"/><path class="cls-2" d="M35.08,7.12c0,.59-.26.93-.89.91C34.35,7.6,34.39,7.05,35.08,7.12Z"/><path class="cls-2" d="M36.44,7.62c0-.38.06-.74.47-.92C36.83,7.05,36.8,7.42,36.44,7.62Z"/><path class="cls-2" d="M35.17,6.33c.48.33.29.59-.11.82A.79.79,0,0,1,35.17,6.33Z"/><path class="cls-1" d="M25.75,11.15c-.62-.68-.39-1.42,0-2.17v2.17Z"/><path class="cls-3" d="M24,40.11c0,.14,0,.29,0,.44-.59.25-.54.76-.51,1.26l.06,0c-.48.13-.45.56-.54.91-.29.89-.95,1.68-.64,2.7-.08,1.06-.8,2-.63,3.09h0a1.09,1.09,0,0,0-.44,1.37l0,0c-.46.15-.38.56-.43.9a.4.4,0,0,0,.32.44c0,.69-.85,1.18-.5,2.13a3.14,3.14,0,0,0,1.72-1.46l.64-.42.05.66-1.36,1.77a15.52,15.52,0,0,0-2.86,4.61c-1.5,3.3-1.89,6.94-3.35,10.23-.41.94-.67,2-1.09,2.89a1.44,1.44,0,0,0,.31,1.8c0,.59.75.49.9,1l-.14.48,0,0c-1.46.69-1.94,2.11-2.54,3.41a49.58,49.58,0,0,0-2.36,6.86,2.3,2.3,0,0,1-1,1.64c.27-1-.59-1.43-.49-2.18.89-2.92,2.12-5.73,2.53-8.78,1-1,1-1.27-.21-2.25l0-.49.86-.06.5.07a4.78,4.78,0,0,0,.84-2.25c.48-1.47,1-2.93,1.43-4.41,1.23-4.05,2.87-8,2.13-12.43.08-.43.2-.83.72-.92.26.38.51.56.69,0a8.15,8.15,0,0,0,.16-.86l.88-.09q1.49-6.87,3-13.73c.63,0,.84.53,1.22.84ZM18.21,54a.34.34,0,0,0-.39.39.8.8,0,0,0,.23.55c.2.13.41,0,.47-.26A.5.5,0,0,0,18.21,54Z"/><path class="cls-4" d="M24,40.11l-.1-1a11.23,11.23,0,0,1,1.46-4.39C27.16,31,28.54,27,30.1,23.12l.13-.83,0,0c.39-.18.4-.56.46-.91h.18c.52.58-.24,1.3.14,2.19l1-1.76c.23-.62.85-1.05.92-1.76.23-.31.63-.62,0-.92l0,0c1,.62,1.08-.45,1.37-.82a50.43,50.43,0,0,1,5.48-6.11,4.31,4.31,0,0,1,2.08-1.21c.8-.15,1.16.17,1,.95a8.31,8.31,0,0,1-1.59,2.9C38.58,18.66,35.69,22.23,33.1,26,30.26,30.18,27.68,34.5,25,38.76,24.71,39.24,24.63,39.91,24,40.11Zm6.11-11.65a2.08,2.08,0,0,0-.88,1.29,15.6,15.6,0,0,0-2.8,5.06,16.06,16.06,0,0,0,3-4.87,2.13,2.13,0,0,0,.85-1.35,2.19,2.19,0,0,0,.9-1.35,2.68,2.68,0,0,0,1-1.26c1.67-2.25,3.28-4.54,5-6.73C41,14.38,41.36,13.86,41.49,12A14,14,0,0,0,38.13,15a44.14,44.14,0,0,0-5.43,7c-.52.81.3.41.62.37l0,0c0,1.32-1.36,2.09-1.48,3.39A1.42,1.42,0,0,0,31,27.09,1.82,1.82,0,0,0,30.07,28.46Z"/><path class="cls-4" d="M11.47,73l0,.48.21,2.26c-.41,3-1.64,5.86-2.53,8.78L8.8,84.1a12.91,12.91,0,0,1,1.07-4,15.43,15.43,0,0,0-.19-10C8.09,65.6,6.36,61.21,4.56,56.84,3,53,1.16,49.31.35,45.21A12.68,12.68,0,0,1,0,42.14c0-.62.1-1.22.74-1.48s1.26.22,1.7.72A11.44,11.44,0,0,1,4.18,44.7,104.06,104.06,0,0,1,9.5,59.24a7.65,7.65,0,0,1,.28,2.17C8.71,60.31,8.64,58.76,8,57.46c-.13-.47.05-1.05-.51-1.36v0a3.35,3.35,0,0,0-.9-2.69h0a17.44,17.44,0,0,0-2-5.49c-.16-.43-.16-.93-.58-1.24a1.17,1.17,0,0,0-.46-.87c0-.48,0-1-.47-1.31a4.8,4.8,0,0,0-1.73-3,1.06,1.06,0,0,0-.47,1.12,28,28,0,0,0,1.5,6.18c.05.16.36.23.54.35a4.83,4.83,0,0,0,.42,2.37c.78,1.92,1.56,3.83,2.27,5.77a4.24,4.24,0,0,0,1,1.9q1.67,4.48,3.34,9a1.42,1.42,0,0,0,.62.86v0a7.32,7.32,0,0,0,.9,4Z"/><path class="cls-4" d="M24.13,25.25A97,97,0,0,0,24,10.39c-.23-2.73-.52-5.44-.77-8.16a2.3,2.3,0,0,1-.05-.45c0-.67.06-1.45.75-1.71S25,.59,25.36,1.12c1.17,2,1.4,4.19,1.71,6.38.25,1.83.3,3.69.45,5.53,0,.35,0,.77.5.81h.31c-.11,2.05-1.14,4-.6,6.41.64-1.69,1.17-3.13,1.74-4.54a13.29,13.29,0,0,0,.81-4.54c.67.59-.05,1.79,1,2.24-.3,1.19-1.2,2.19-1.09,3.51h0a12.47,12.47,0,0,0-1.77,4.47,44,44,0,0,0-1.74,5.84c-.56,1.79-.75,3.71-1.79,5.34-.16-2.37.92-4.55,1-6.91.13-2.77.91-5.49.7-8.29,0-.88.07-1.76.11-2.63a6.6,6.6,0,0,0,0-4.94c-.28-4.58-1-7-2.77-8.78.42,5.12,1,10,1.12,14.9-.34,3.33,0,6.66-.16,10,0,.78.24,1.66-.56,2.26A15.09,15.09,0,0,0,24.13,25.25Z"/><path class="cls-4" d="M15.5,74.84c.05-.16.1-.32.14-.48.52-.62,1-1.25,1.57-1.85A74.11,74.11,0,0,1,24,66.12c.68-.51,1.65-.72,1.8-1.77l.17,0,0-.17c.67.16,1.13-.26,1.6-.6A76.6,76.6,0,0,1,40.4,56.05a1.34,1.34,0,0,0,.92-.83c.72-.75.1-.89-.45-.84-2.61.21-5.11.74-7.1,2.63a23.13,23.13,0,0,0-8.61,6.21c-1.45.52-2.16,1.9-3.28,2.81-.66.55-1.17,1.34-2.2,1.2l.26-.63.29-.46c1.86-.84,3-2.51,4.53-3.79,3.94-3.36,7.89-6.69,13-8.2a23.93,23.93,0,0,1,3-.67,1.54,1.54,0,0,1,1.83.92c.27.75-.36,1.23-.86,1.64a9.58,9.58,0,0,1-1.67,1.09,96.3,96.3,0,0,0-15.45,9.49,48.73,48.73,0,0,0-7.73,7.25C16.5,74.34,16.17,74.81,15.5,74.84Z"/><path class="cls-4" d="M21.73,53.88l1.36-1.77,3.08-3.57a2.92,2.92,0,0,0,.91-1.33l.47-.45,0,0c1.77-1.66,3.73-3.15,4.92-5.34h0a.42.42,0,0,0,.45-.45h0a16.8,16.8,0,0,0,4.45-4.9h0c.31,0,.44-.16.45-.45h0a.44.44,0,0,0,.45-.46h0a.49.49,0,0,0,.46-.46l0,0a.5.5,0,0,0,.46-.46l0,0a.64.64,0,0,0,.47-.47l0,0,.48-.47,0,0,.45-.47a17.39,17.39,0,0,0,3.87-5.11,8.4,8.4,0,0,0-4.46,2.84A3.22,3.22,0,0,0,37.74,33h0a.44.44,0,0,0-.45.45h0a3.31,3.31,0,0,0-2.22,2.23h0l-.58.44-.31.39a5.1,5.1,0,0,0-1.33,1.41,20.72,20.72,0,0,0-3.2,3.91c-.73.21-1,.9-1.36,1.43a1.72,1.72,0,0,0-.77.87l-.42.49-.75-.09.33-.77a5,5,0,0,0,1.64-1.86c.14-.27.61-.5.11-.85l0,0c.71.49.86-.26,1.12-.56,2.1-2.38,4.17-4.79,6.25-7.2a34.15,34.15,0,0,1,6.55-5.62,3.3,3.3,0,0,1,.57-.34c.71-.35,1.51-1,2.19-.18s-.07,1.38-.49,2a79.86,79.86,0,0,1-6.56,7.8C32.6,42.71,27.2,48.57,21.77,54.42Z"/><path class="cls-1" d="M8,57.46c.63,1.3.7,2.85,1.77,3.95l0,0c0,.66-.32,1.4.49,1.85l0-.08a2.34,2.34,0,0,0,.91,2.31c.42.19.17.84.77,1,.13-.73.22-1.38-.39-1.93-.14-.46.32-1.13-.48-1.34l0,0c.58-1.38,0-2.72-.23-4a76,76,0,0,1-.9-8.36,14.09,14.09,0,0,1,.18-2.42.75.75,0,0,1,.66-.77.87.87,0,0,1,.86.56,8.14,8.14,0,0,1,.56,1.2A25.62,25.62,0,0,1,13.71,57h-.55c-.42-2-.79-4-1.28-6a3.69,3.69,0,0,0-1.2-2.49,16.59,16.59,0,0,0,0,4.41c.66,4.9,1.52,9.78,1.74,14.74a5.49,5.49,0,0,0,.76,3.16h.45A4.78,4.78,0,0,1,12.83,73c0-.33.11-.9-.19-.92s-.25.53-.31.85l-.86.06,0,0c0-1.42.09-2.84-.9-4v0a34.94,34.94,0,0,0-1.94-6.52c-.44-1.12-.4-2.5-1.55-3.3a19.71,19.71,0,0,0-1.33-4.58c-.26-.67-.94-1.43-.09-2.18a1.4,1.4,0,0,0,.93,1h0a2.86,2.86,0,0,0,.9,2.69v0C7.48,56.63,7.44,57.16,8,57.46Z"/><path class="cls-5" d="M28.33,13.85H28a9.37,9.37,0,0,1,1.4-4.13.91.91,0,0,1,.86-.61c.44,0,.54.45.64.79s.18.81.32,1.42C32.71,9.22,33.53,7,34.92,5.08a20.49,20.49,0,0,1,2.8-3.42c.41-.37.9-.89,1.54-.41s.38.94.2,1.42c-.49,1.31-.82,2.67-1.41,4-1.7,3.68-3.32,7.39-5,11.1a1.77,1.77,0,0,0-.21,1.47l0,0c-.56.05-.42.57-.57.89-.24.57-1.3,1-.34,1.79L31,23.6c-.38-.89.38-1.61-.14-2.19a.57.57,0,0,0-.19-.22L34,13.85l.3-.77a9.08,9.08,0,0,0,1.28-3.7v0a2.2,2.2,0,0,0,.9-1.8l0,0c.36-.2.39-.57.47-.92l0,0c.78-.55.72-1.52,1.12-2.26S38.89,3,38.47,2a11.16,11.16,0,0,0-3.3,4.34.79.79,0,0,0-.11.82l0,0c-.69-.07-.73.48-.89.91h0q-1.47,2.7-3,5.4c-1-.45-.3-1.65-1-2.24-.13-.36-.25-1.12-.72-.35A20.54,20.54,0,0,0,28.33,13.85Z"/><path class="cls-4" d="M22.64,38.3q-1.47,6.86-3,13.73a4.18,4.18,0,0,1-.14-2.19c.32-4,.41-8,.39-12h.43c.08.87.15,1.74.23,2.61a10.13,10.13,0,0,0,0,3.6c.21-1.19.79-2.3.61-3.55.83-3.3.36-6.58-.08-9.87-.58-4.46-1.46-8.85-2.34-13.25h.65l1.53,7a18.76,18.76,0,0,0,.79,4.2c0,.9-.32,1.85.39,2.65h0a13.39,13.39,0,0,0,.46,4.88A5.2,5.2,0,0,0,22.64,38.3Z"/><path class="cls-5" d="M20.23,66.14l-.29.46c-.29-.45-.55-.23-.78.05s-.58.75-.87,1.13l-.2-.16c.38-1.29,1.38-2.24,1.9-3.45L27.86,53.7a5.39,5.39,0,0,0-3.37,2,55.43,55.43,0,0,0-4.88,6c-.33-.63.18-1.1.31-1.65,1.51-1.81,2.92-3.71,4.6-5.38a13.19,13.19,0,0,1,2.82-2.12c.37-.21.85-.4,1.22,0a1,1,0,0,1,0,1.23,22.55,22.55,0,0,1-2,2.89,72.22,72.22,0,0,0-5.72,7.57C20.5,64.87,20,65.39,20.23,66.14Z"/><path class="cls-4" d="M4.44,24.06c-.16-.57-.39-1.26.19-1.62a1.51,1.51,0,0,1,1.65.27,16,16,0,0,1,3.84,4.53,48.66,48.66,0,0,1,6.79,15.51,3.18,3.18,0,0,0,.81,2.2l-.46,1.46a2.08,2.08,0,0,1-.71-1.57,48.25,48.25,0,0,0-4.24-12.31,34.3,34.3,0,0,0-6-9c-.85-.91-1-.84-1.39.5Z"/><path class="cls-5" d="M21.73,53.88l0,.54c-.81,2-2.16,3.67-2.66,5.77-.35,1-1.45,1.86-.45,3a13.31,13.31,0,0,1-1.25,3.26,23.58,23.58,0,0,0-2.3,5.68c1.56-1.39,1.73-3.32,3-4.55l.2.15c.06.2-.25.59.28.55-1.23,1.73-2.06,3.76-3.83,5.09a1.44,1.44,0,0,1-.31-1.8c.42-.93.68-2,1.09-2.89,1.46-3.29,1.85-6.93,3.35-10.23A15.52,15.52,0,0,1,21.73,53.88Z"/><path class="cls-4" d="M13.67,70.78h-.45a9.89,9.89,0,0,1,.12-2c.82-3.19.37-6.39.1-9.59h.75c.32.06.39-.22.53-.4l.4.48a9.91,9.91,0,0,0-.28,5.09c.69-2.34,1.31-4.29,1.83-6.27.13-.5.41-1.17-.31-1.57h-.5a2.53,2.53,0,0,0,.64-2.93,17.16,17.16,0,0,1-.59-3.24l.45-.47c.46,1.3.31,2.74.87,4,.74,4.39-.9,8.38-2.13,12.43C14.65,67.85,14.15,69.31,13.67,70.78Z"/><path class="cls-5" d="M22.31,45.44c-.31-1,.35-1.81.64-2.7.46-.14.52-.51.54-.91l-.06,0,.51-.19c.59.17.74-.31,1-.66.87-1.28,1.73-2.56,2.61-3.82a8.52,8.52,0,0,1,1-1.18c.45-.45.91-1.21,1.63-.7s.23,1.25,0,1.82c-.34.89-.86,1.7-1.27,2.56-.2.44-.72.78-.45,1.38l0,0c-.42-.2-.42.19-.56.4l-1.24,1.39c-.25-1.11.68-1.71,1.12-2.52.7-1.3,1.63-2.49,1.68-4.08A23.37,23.37,0,0,0,24,45v0a.73.73,0,0,0-.41.06C22.94,44.54,22.84,45.66,22.31,45.44Z"/><path class="cls-1" d="M19.46,17.41h-.65a56.25,56.25,0,0,1-1.93-9.95c-.13-.93-.59-2.36.68-2.72s1.52,1.12,2,2a20.85,20.85,0,0,1,2.15,6.23h-.54c-.55-1.57-1-3.18-1.67-4.72-.41-1-.65-2.21-2.09-2.82-.08,1.06-.39,1.89.28,2.67Q18.56,12.74,19.46,17.41Z"/><path class="cls-5" d="M8.8,84.1l.32.44c-.1.75.76,1.23.49,2.18a2.3,2.3,0,0,0,1-1.64A49.58,49.58,0,0,1,13,78.22c.6-1.3,1.08-2.72,2.54-3.41,0,.23.07.52,0,.66-1.89,2.3-2.61,5.11-3.44,7.88-.28.92-.64,1.81-1,2.7A2.8,2.8,0,0,1,9.93,87.4a1.46,1.46,0,0,1-1.48.06,1.14,1.14,0,0,1-.52-1.35A4.46,4.46,0,0,1,8.8,84.1Z"/><path class="cls-5" d="M4.44,24.06h.47c.24.46.49.92.74,1.38q3.28,6.47,6.57,12.92a9,9,0,0,1,1.19,3h-.53l-5.94-12C6.07,27.64,4.73,26.09,4.44,24.06Z"/><path class="cls-5" d="M17.26,46.41c.15-.49.31-1,.46-1.46a6.2,6.2,0,0,0-.11-2.23c0-3.17-.46-6.34.08-9.51.06-.36,0-.74.12-1.1a.93.93,0,0,1,.69-.78c.43-.09.69.23.87.54a3,3,0,0,1,.48,1.23c0,1.61.73,3.14.51,4.77h-.43c-.62-1-.23-2.08-.5-3.09a3.54,3.54,0,0,0-.74-2.14c-.71.58-.4,1.19-.41,1.75-.14,3.08-.14,6.16,0,9.24-.29,1.07.47,2.09.17,3.17l-1.16,0A.69.69,0,0,1,17.26,46.41Z"/><path class="cls-5" d="M21.15,12.94h.55a41.06,41.06,0,0,1,1.86,12.45c0,1.19,0,2.38,0,3.57C23,28.6,23.09,28,23,27.54a20.92,20.92,0,0,0,0-2.63C22.38,20.91,21.75,16.93,21.15,12.94Z"/><path class="cls-1" d="M12.88,41.42h.53c.8.92.7,2.31,1.64,3.15v0a18.2,18.2,0,0,0,1.36,4.51l0,.86-.45.47Z"/><path class="cls-6" d="M23.51,28.94c0-1.18,0-2.37,0-3.56l.57-.13a15.09,15.09,0,0,1,.2,2.93,1.13,1.13,0,0,1-.8,1.12A1.45,1.45,0,0,0,23.51,28.94Z"/><path class="cls-7" d="M18.66,63.23c-1-1.18.1-2.06.45-3l.81-.08c-.13.55-.64,1-.31,1.65a1.79,1.79,0,0,0-.52,1.45A3,3,0,0,1,18.66,63.23Z"/><path class="cls-2" d="M21.23,40.53c.18,1.25-.4,2.36-.61,3.55a10.13,10.13,0,0,1,0-3.6Z"/><path class="cls-1" d="M15.12,59.29l-.4-.48a3.58,3.58,0,0,1,1.14-2.26h.5C16,57.46,15.54,58.37,15.12,59.29Z"/><path class="cls-4" d="M11.12,65.47a2.34,2.34,0,0,1-.91-2.31c.28,0,.49.54.84.12l0,0c-.68.5,0,.89.1,1.32Z"/><path class="cls-2" d="M17.61,42.72A6.2,6.2,0,0,1,17.72,45a3.18,3.18,0,0,1-.81-2.2Z"/><path class="cls-4" d="M10.25,63.24c-.81-.45-.49-1.19-.49-1.85C10.61,61.82,10.06,62.63,10.25,63.24Z"/><path class="cls-4" d="M13.16,57h.55c.1.59.21,1.18.31,1.77h-.66C13.29,58.17,13.23,57.58,13.16,57Z"/><path class="cls-4" d="M23.94,41.62l-.51.19c0-.5-.08-1,.51-1.26A1,1,0,0,1,23.94,41.62Z"/><path class="cls-1" d="M13.36,58.76H14l.17.44h-.75C13.42,59.07,13.39,58.91,13.36,58.76Z"/><path class="cls-8" d="M16.36,49.91c0-.29,0-.57,0-.86,0-1.63-.11-3.25-1.36-4.51v0a5.43,5.43,0,0,0-.56-2.78A87.29,87.29,0,0,0,8.38,28.62c-.62-1.08-1.35-2.1-2-3.13-.19-.28-.44-.39-.69,0-.25-.46-.5-.92-.74-1.38.42-1.34.54-1.41,1.39-.5a34.3,34.3,0,0,1,6,9,48.25,48.25,0,0,1,4.24,12.31,2.08,2.08,0,0,0,.71,1.57.69.69,0,0,0,0,.35c.1,2.1.73,4.14.69,6.26-.52.09-.64.49-.72.92C16.67,52.65,16.82,51.21,16.36,49.91Z"/><path class="cls-1" d="M14.74,73.41c1.77-1.33,2.6-3.36,3.83-5.09l1.11-1.09c1,.14,1.54-.65,2.2-1.2,1.12-.91,1.83-2.29,3.29-2.8a3,3,0,0,0,1.49-.43,1.8,1.8,0,0,1-.7,1.34l0,.17-.17,0c-.77.42-1.55.82-1.8,1.77a74.11,74.11,0,0,0-6.75,6.39c-.54.6-1.05,1.23-1.57,1.85C15.49,73.9,14.75,74,14.74,73.41Z"/><path class="cls-5" d="M27.53,44.07a1.72,1.72,0,0,1,.77-.87l1.06,0c.09.92-.64,1.41-1.1,2-.33.47-.84.83-.74,1.51l0,0a.58.58,0,0,0-.47.45,2.92,2.92,0,0,1-.91,1.33c-1.6.37-2.24,1.77-3.13,2.91l-.64.42-.24-.24c.61-1,.19-1.78-.37-2.58l-.08-.53h0l.91-.88c1,0,.76-.8.93-1.34v0A1.07,1.07,0,0,0,24,45v0c.85.26.91-1.23,1.83-.84,0,.27,0,.54-.05.82-.62.24-.76.79-.88,1.36a7.23,7.23,0,0,0-.59.53c-.13.15-.25.36,0,.48,0,0,.22-.16.27-.28s.18-.5.27-.76A1.5,1.5,0,0,0,25.75,45c.36,0,.38-.38.61-.52l.75.09C27.77,44.84,27.43,44.27,27.53,44.07Z"/><path class="cls-9" d="M19.43,34.78c.27,1-.12,2.13.5,3.09,0,4-.07,8-.39,12A4.18,4.18,0,0,0,19.68,52l-.88.09c-.13-1.78-.25-3.55-.38-5.32.3-1.08-.46-2.1-.17-3.17.61-.61.39-1.38.4-2.09,0-2.27,0-4.54,0-6.82Z"/><path class="cls-10" d="M22.64,38.3a5.2,5.2,0,0,1,0-2.22l.48-.43c.72.21,1.05-.27,1.31-.79a12.86,12.86,0,0,0,.53-1.39c.5.31.29.85.39,1.28a11.23,11.23,0,0,0-1.46,4.39C23.48,38.83,23.27,38.26,22.64,38.3Z"/><path class="cls-4" d="M18.42,46.8c.13,1.77.25,3.54.38,5.32a8.15,8.15,0,0,1-.16.86c-.18.6-.43.42-.69,0,0-2.12-.59-4.16-.69-6.26Z"/><path class="cls-4" d="M22.59,47.65l-.91.88c-.17-1.11.55-2,.63-3.09.53.22.63-.9,1.25-.4,0,.43,0,.86,0,1.29v0C22.87,46.52,22.78,47.12,22.59,47.65Z"/><path class="cls-8" d="M23,51.45c.89-1.14,1.53-2.54,3.13-2.91l-3.08,3.57C23.07,51.89,23.06,51.67,23,51.45Z"/><path class="cls-5" d="M22.4,51.87a3.14,3.14,0,0,1-1.72,1.46c-.35-.95.46-1.44.5-2.13l1,.43Z"/><path class="cls-11" d="M22.16,51.63l-1-.43a.4.4,0,0,1-.32-.44,1,1,0,0,0,.43-.9l0,0a.92.92,0,0,0,.52-.84C22.35,49.85,22.77,50.67,22.16,51.63Z"/><path class="cls-8" d="M11.65,75.76l-.21-2.26C12.64,74.49,12.67,74.77,11.65,75.76Z"/><path class="cls-8" d="M18.21,54a.5.5,0,0,1,.31.68c-.06.22-.27.39-.47.26a.8.8,0,0,1-.23-.55A.34.34,0,0,1,18.21,54Z"/><path class="cls-4" d="M21.79,49.05a.92.92,0,0,1-.52.84,1.09,1.09,0,0,1,.44-1.37Z"/><path class="cls-8" d="M12.33,73c.06-.32-.06-.87.31-.85s.18.59.19.92Z"/><path class="cls-4" d="M23.49,41.83c0,.4-.08.77-.54.91C23,42.39,23,42,23.49,41.83Z"/><path class="cls-4" d="M21.29,49.86a1,1,0,0,1-.43.9C20.91,50.42,20.83,50,21.29,49.86Z"/><path class="cls-6" d="M25.32,34.75c-.1-.43.11-1-.39-1.28,0-.31,0-.63-.05-.94v0c1-1.63,1.23-3.55,1.79-5.34a44,44,0,0,1,1.74-5.84c1.34-1.19,1.54-2.83,1.77-4.47h0c.23-.16.58-.28.67-.5.89-2.23,2-4.35,3.1-6.49A4,4,0,0,0,34.2,8h0c.63,0,.89-.32.89-.91l0,0c.4-.23.59-.49.11-.82A11.16,11.16,0,0,1,38.47,2c.42,1-.13,1.72-.46,2.49a2.11,2.11,0,0,0-1.12,2.26l0,0c-.41.18-.46.54-.47.92l0,0c-.87.31-1,1-.9,1.8v0c-1.18.74-1.26,2.07-1.68,3.22,0,.1.26.32.4.48l-.3.77c-.82-.13-1.43.05-1.65,1a5.39,5.39,0,0,1-.66,2,6,6,0,0,0-1,4.33.57.57,0,0,1,.19.22h-.18c-.45.15-.46.53-.46.91l0,0c-.47.21-.55.48-.13.83C28.54,27,27.16,31,25.32,34.75Z"/><path class="cls-11" d="M33.32,22.3c-.32,0-1.14.44-.62-.37a44.14,44.14,0,0,1,5.43-7A14,14,0,0,1,41.49,12c-.13,1.84-.49,2.36-4.36,7.23-1.73,2.19-3.34,4.48-5,6.73l-.3-.32c.12-1.29,1.44-2.06,1.48-3.38.2-.06.23-.11.11-.14S33.35,22.24,33.32,22.3Z"/><path class="cls-12" d="M29.41,29.94a16.29,16.29,0,0,1-3,4.87,15.6,15.6,0,0,1,2.8-5.06Z"/><path class="cls-10" d="M32,21.84c-1-.8.1-1.22.34-1.79l.58,0C32.83,20.79,32.21,21.22,32,21.84Z"/><path class="cls-11" d="M32.12,26a2.68,2.68,0,0,1-1,1.26L31,27.08a1.41,1.41,0,0,1,.84-1.41Z"/><path class="cls-12" d="M29.19,29.75a2.08,2.08,0,0,1,.88-1.29.4.4,0,0,1,.18.14,2.13,2.13,0,0,1-.85,1.34Z"/><path class="cls-11" d="M31.15,27.24a2.19,2.19,0,0,1-.9,1.35.46.46,0,0,0-.18-.13A1.85,1.85,0,0,1,31,27.08Z"/><path class="cls-2" d="M30.1,23.12c-.42-.35-.34-.62.13-.83Z"/><path class="cls-2" d="M30.21,22.31c0-.38,0-.76.46-.91C30.61,21.75,30.6,22.13,30.21,22.31Z"/><path class="cls-13" d="M32.9,20.08l-.58,0c.15-.32,0-.84.57-.89C33.53,19.46,33.13,19.77,32.9,20.08Z"/><path class="cls-14" d="M5.69,52.47c-.85.75-.17,1.51.09,2.18a19.71,19.71,0,0,1,1.33,4.58H6.64a4.24,4.24,0,0,1-1-1.9c-.71-1.94-1.49-3.85-2.27-5.77a4.83,4.83,0,0,1-.42-2.37c.18-.21.36-.41.55-.61.58,1,.08,2.43,1.36,3.1h0a.59.59,0,0,0,.59.45Z"/><path class="cls-8" d="M3.45,48.57c-.19.2-.37.4-.55.61-.18-.12-.49-.19-.54-.35a28,28,0,0,1-1.5-6.18,1.06,1.06,0,0,1,.47-1.12,4.8,4.8,0,0,1,1.73,3H3l-.87-.47C2.08,43.87,2,43.84,2,44s.11.09.17.13A10,10,0,0,0,3.45,48.57Z"/><path class="cls-8" d="M6.64,59.22h.47c1.15.8,1.11,2.18,1.55,3.3a34.94,34.94,0,0,1,1.94,6.52,1.42,1.42,0,0,1-.62-.86Q8.3,63.71,6.64,59.22Z"/><path class="cls-8" d="M5.69,52.47c-.09-.12-.18-.24-.28-.35l-.59-.45h0c.24-1.24-.63-2.33-.45-3.56L4.57,48a17.44,17.44,0,0,1,2.05,5.49A1.4,1.4,0,0,1,5.69,52.47Z"/><path class="cls-8" d="M10.59,69c1,1.18.95,2.6.9,4A7.32,7.32,0,0,1,10.59,69Z"/><path class="cls-8" d="M7.51,56.12a2.86,2.86,0,0,1-.9-2.69A3.35,3.35,0,0,1,7.51,56.12Z"/><path class="cls-8" d="M8,57.46c-.57-.3-.53-.83-.51-1.36C8.06,56.41,7.88,57,8,57.46Z"/><path class="cls-8" d="M4,46.71c.42.31.42.81.58,1.24l-.21.16c-.49-.34-.45-.84-.43-1.34Z"/><path class="cls-8" d="M3.06,44.53c.46.33.43.83.47,1.31l0,0C3,45.55,3.05,45,3,44.54Z"/><path class="cls-8" d="M3.53,45.84a1.17,1.17,0,0,1,.46.87l-.06.06a.9.9,0,0,1-.44-.89Z"/><path class="cls-1" d="M23.53,29.3a1.13,1.13,0,0,0,.8-1.12c.8-.6.52-1.48.56-2.26.14-3.34-.18-6.67.16-10,.59,0,.69-.42.7-.88V11.17c.75.82.31,1.84.44,2.76.15,1.15-.34,2.37.44,3.44.21,2.8-.57,5.52-.7,8.29-.12,2.36-1.2,4.54-1,6.91v0c-.56.45-1.07,1-1.91.9-.51-.68-.24-1.49-.39-2.24C23.81,31,23.39,30,23.53,29.3Z"/><path class="cls-8" d="M26.62,17.37c-.78-1.07-.29-2.29-.44-3.44-.13-.92.31-1.94-.44-2.76V9c-.38.75-.61,1.49,0,2.17V15c0,.46-.11.87-.7.88-.13-4.9-.7-9.78-1.12-14.9,1.77,1.79,2.49,4.2,2.77,8.78l0,4.94C26.69,15.61,26.66,16.49,26.62,17.37Z"/><path class="cls-11" d="M28.33,13.85a20.54,20.54,0,0,1,1.23-3c.47-.77.59,0,.72.35a13.29,13.29,0,0,1-.81,4.54c-.57,1.41-1.1,2.85-1.74,4.54C27.19,17.86,28.22,15.9,28.33,13.85Z"/><path class="cls-2" d="M34.2,8a4,4,0,0,1-.27,1.92c-1.07,2.14-2.21,4.26-3.1,6.49-.09.22-.44.34-.67.5-.11-1.32.79-2.32,1.09-3.51Q32.74,10.72,34.2,8Z"/><path class="cls-2" d="M30.18,16.92c-.23,1.64-.43,3.28-1.77,4.47A12.47,12.47,0,0,1,30.18,16.92Z"/><path class="cls-9" d="M26,64.14a1.8,1.8,0,0,0,.7-1.34l0,0a2.4,2.4,0,0,0,1.78-.91,2.11,2.11,0,0,0,1-.81C32.63,58.76,36,56.62,40,55.61l.45.44a76.6,76.6,0,0,0-12.84,7.49C27.09,63.88,26.63,64.3,26,64.14Z"/><path class="cls-11" d="M29.37,61.1a2.11,2.11,0,0,1-1,.81c-1.15-.8-1.29.39-1.78.91l0,0a3,3,0,0,1-1.49.43A22.93,22.93,0,0,1,33.77,57v0a14.69,14.69,0,0,1-3.61,2.75C29.75,60,28.69,60.11,29.37,61.1Z"/><path class="cls-8" d="M33.77,57c2-1.89,4.49-2.42,7.1-2.63.55-.05,1.17.09.45.84h0c-.62-.75-1.3-.32-2-.16-1.93.45-3.62,1.56-5.57,1.92Z"/><path class="cls-7" d="M19.68,67.23l-1.11,1.09c-.53,0-.22-.35-.28-.55.29-.37.56-.76.87-1.12s.49-.5.78-.05Z"/><path class="cls-6" d="M24,66.12c.25-1,1-1.35,1.8-1.77C25.61,65.4,24.64,65.61,24,66.12Z"/><path class="cls-8" d="M40.4,56.05,40,55.61a1.74,1.74,0,0,1,1.39-.38h0A1.34,1.34,0,0,1,40.4,56.05Z"/><path class="cls-12" d="M34.19,36.45l.31-.39a.7.7,0,0,0,.58-.44h0a2.46,2.46,0,0,0,2.22-2.23h0l.45-.45h0c1-.47,1.6-1.48,2.71-1.73-.14.44-.29.89-.43,1.34,0,.29,0,.59,0,.88l0,0a.62.62,0,0,0-.48.47l0,0a.54.54,0,0,0-.47.47l0,0a.46.46,0,0,0-.46.46l0,0a.45.45,0,0,0-.46.46h0a.42.42,0,0,0-.45.46h0a.4.4,0,0,0-.45.45h0c-1.52.09-1.92,1.69-3.07,2.28l-.07-.07C34.2,37.69,34.19,37.07,34.19,36.45Z"/><path class="cls-8" d="M40,32.56c.14-.45.29-.9.43-1.34v0l.48-.39.15-.24-.25.15-.41,0-.57,0a8.4,8.4,0,0,1,4.46-2.84A17.39,17.39,0,0,1,40.45,33Zm2.33-2.87c0-.05,0-.12,0-.14a.21.21,0,0,0-.17,0c-.13.09-.12.19.05.23S42.3,29.71,42.35,29.69Z"/><path class="cls-12" d="M29.66,41.77a20.72,20.72,0,0,1,3.2-3.91c.33.52.86.41,1.34.45l.07.07c-.47.87-1.68,1.34-1.38,2.62h0q-.47,0-.45.45h0c-.88-.27-1.2.54-1.75.91a.85.85,0,0,0-.9-.45Z"/><path class="cls-9" d="M30.69,42.36c.55-.37.87-1.18,1.75-.91-1.19,2.19-3.15,3.68-4.92,5.34-.1-.68.41-1,.74-1.51.46-.62,1.19-1.11,1.1-2l0,0c.35,0,.48-.12.45-.45h0C30.18,42.87,30.4,42.53,30.69,42.36Z"/><path class="cls-9" d="M32.89,41c-.3-1.28.91-1.75,1.38-2.62,1.15-.59,1.55-2.19,3.07-2.28A16.8,16.8,0,0,1,32.89,41Z"/><path class="cls-11" d="M37.29,33.39a2.46,2.46,0,0,1-2.22,2.23A3.31,3.31,0,0,1,37.29,33.39Z"/><path class="cls-11" d="M39.86,30.7l.57,0a3.15,3.15,0,0,0,0,.44v0c-1.11.25-1.74,1.26-2.71,1.73A3.22,3.22,0,0,1,39.86,30.7Z"/><path class="cls-2" d="M26.64,42.78c.42-.46.83-.92,1.24-1.39l.45.45a5,5,0,0,1-1.64,1.86l-.08-.06c0-.29,0-.58.05-.87Z"/><path class="cls-11" d="M34.2,38.31c-.48,0-1,.07-1.34-.45a5.1,5.1,0,0,1,1.33-1.41C34.19,37.07,34.2,37.69,34.2,38.31Z"/><path class="cls-12" d="M29.36,43.25l-1.06,0c.4-.53.63-1.22,1.36-1.43l.13.14c0,.29,0,.58,0,.87h0l-.45.45Z"/><path class="cls-2" d="M25.74,45l.05-.82,0,0,.84-.47.08.06-.33.77c-.23.14-.25.52-.61.52Z"/><path class="cls-9" d="M40,32.56l.43.41-.45.47Z"/><path class="cls-13" d="M28.33,41.84l-.45-.45c.14-.21.14-.6.56-.4S28.47,41.57,28.33,41.84Z"/><path class="cls-12" d="M27.53,44.07c-.1.2.24.77-.42.49Z"/><path class="cls-9" d="M27.08,47.21a.58.58,0,0,1,.47-.45Z"/><path class="cls-9" d="M32.44,41.45q0-.48.45-.45A.42.42,0,0,1,32.44,41.45Z"/><path class="cls-9" d="M37.34,36.1a.4.4,0,0,1,.45-.45C37.78,35.94,37.65,36.11,37.34,36.1Z"/><path class="cls-11" d="M35.08,35.62a.7.7,0,0,1-.58.44Z"/><path class="cls-9" d="M37.78,35.66a.42.42,0,0,1,.45-.46A.44.44,0,0,1,37.78,35.66Z"/><path class="cls-9" d="M38.22,35.21a.45.45,0,0,1,.46-.46A.49.49,0,0,1,38.22,35.21Z"/><path class="cls-9" d="M38.66,34.77a.46.46,0,0,1,.46-.46A.5.5,0,0,1,38.66,34.77Z"/><path class="cls-9" d="M39.1,34.33a.54.54,0,0,1,.47-.47A.64.64,0,0,1,39.1,34.33Z"/><path class="cls-9" d="M39.54,33.88a.62.62,0,0,1,.48-.47Z"/><path class="cls-11" d="M37.75,33l-.45.45A.44.44,0,0,1,37.75,33Z"/><path class="cls-9" d="M13.36,58.76c0,.15.06.31.08.46.27,3.2.72,6.4-.1,9.59a9.89,9.89,0,0,0-.12,2,5.49,5.49,0,0,1-.76-3.16c-.22-5-1.08-9.84-1.74-14.74a16.59,16.59,0,0,1,0-4.41A3.69,3.69,0,0,1,11.88,51c.49,2,.86,4,1.28,6C13.23,57.58,13.29,58.17,13.36,58.76Zm-.73,1.75c0,.05-.11.1-.1.16a2.63,2.63,0,0,0,.06.39c0-.05.11-.11.11-.16A1.78,1.78,0,0,0,12.63,60.51Z"/><path class="cls-2" d="M11.12,65.47v-.91a2.36,2.36,0,0,1,.38,0c.61.55.52,1.2.39,1.93C11.29,66.31,11.54,65.66,11.12,65.47Z"/><path class="cls-13" d="M11.5,64.58a2.36,2.36,0,0,0-.38,0c-.13-.43-.78-.82-.1-1.32C11.82,63.45,11.36,64.12,11.5,64.58Z"/><path class="cls-2" d="M30.66,21.19a6,6,0,0,1,1-4.33,5.39,5.39,0,0,0,.66-2c.22-.92.83-1.1,1.65-1Z"/><path class="cls-11" d="M23.53,29.3c-.14.72.28,1.72-1,1.89a3.09,3.09,0,0,1-.43,0h0c-.1-.89.31-1.85-.39-2.65a18.76,18.76,0,0,1-.79-4.2,4.94,4.94,0,0,0,.1-3.22c-.41-2.75-.85-5.5-1.27-8.25.45.24.52.66.61,1.11.42,2.23.8,4.47,1.33,6.67S22,25.36,23,27.54c.1.5,0,1.06.52,1.41A1.35,1.35,0,0,1,23.53,29.3Z"/><path class="cls-2" d="M19.82,12.89c.42,2.75.86,5.5,1.27,8.25a4.94,4.94,0,0,1-.1,3.22l-1.53-6.95q-.9-4.68-1.78-9.34c.89-.1.74.67.89,1.13C19,10.43,18.92,11.82,19.82,12.89Z"/><path class="cls-9" d="M22.15,31.2a3.09,3.09,0,0,0,.43,0c.15.75-.12,1.56.39,2.24l.12,2.22-.48.43A13.39,13.39,0,0,1,22.15,31.2Z"/><path class="cls-9" d="M21.78,28.56c.7.8.29,1.76.39,2.65C21.46,30.41,21.82,29.46,21.78,28.56Z"/><path class="cls-2" d="M19.09,63.21a1.79,1.79,0,0,1,.52-1.45,55.43,55.43,0,0,1,4.88-6,5.39,5.39,0,0,1,3.37-2L20,64.17C19.94,63.61,19.69,63.25,19.09,63.21Z"/><path class="cls-3" d="M19.09,63.21c.6,0,.85.4.9,1-.52,1.21-1.52,2.16-1.9,3.45-1.25,1.23-1.42,3.16-3,4.55a23.58,23.58,0,0,1,2.3-5.68,13.31,13.31,0,0,0,1.25-3.26A3,3,0,0,0,19.09,63.21Z"/><path class="cls-9" d="M15.12,59.29c.42-.92.83-1.83,1.24-2.75.72.4.44,1.07.31,1.57-.52,2-1.14,3.93-1.83,6.27A9.91,9.91,0,0,1,15.12,59.29Z"/><path class="cls-6" d="M25.79,44.16c-.92-.39-1,1.1-1.83.84a23.37,23.37,0,0,1,5.48-8.82c-.05,1.59-1,2.78-1.68,4.08-.44.81-1.37,1.41-1.12,2.52h0c-1,0-1.14.53-.89,1.34Z"/><path class="cls-6" d="M23.51,46.33c0-.43,0-.86,0-1.29A.73.73,0,0,1,24,45,1.07,1.07,0,0,1,23.51,46.33Z"/><path class="cls-6" d="M19.82,12.89c-.9-1.07-.85-2.46-1.25-3.69-.15-.46,0-1.23-.89-1.13-.67-.78-.36-1.61-.28-2.67,1.44.61,1.68,1.82,2.09,2.82.63,1.54,1.12,3.15,1.67,4.72.59,4,1.22,8,1.78,12a20.92,20.92,0,0,1,0,2.63c-1-2.18-.69-4.59-1.23-6.87s-.91-4.44-1.33-6.67C20.34,13.55,20.27,13.13,19.82,12.89Z"/><path class="cls-2" d="M5.65,25.44c.25-.34.5-.23.69,0,.69,1,1.42,2.05,2,3.13a87.29,87.29,0,0,1,6.11,13.16,5.43,5.43,0,0,1,.56,2.78c-.94-.84-.84-2.23-1.64-3.15a9,9,0,0,0-1.19-3Q9,31.89,5.65,25.44Z"/><path class="cls-2" d="M18.67,34.72c0,2.28,0,4.55,0,6.82,0,.71.21,1.48-.4,2.09-.11-3.08-.11-6.16,0-9.24Z"/><path class="cls-8" d="M18.67,34.72l-.39-.33c0-.56-.3-1.17.41-1.75a3.54,3.54,0,0,1,.74,2.14Z"/><path class="cls-2" d="M15,44.54c1.25,1.26,1.32,2.88,1.36,4.51A18.2,18.2,0,0,1,15,44.54Z"/><path class="cls-6" d="M22.59,47.65c.19-.53.28-1.13.93-1.34C23.35,46.85,23.55,47.65,22.59,47.65Z"/><path class="cls-15" d="M25.75,45a1.5,1.5,0,0,1-.91,1.32l0,0c.12-.57.26-1.12.88-1.36Z"/><path class="cls-6" d="M24.84,46.31c-.09.26-.16.52-.27.76s-.23.3-.27.28c-.28-.12-.16-.33,0-.48a7.23,7.23,0,0,1,.59-.53Z"/><path class="cls-4" d="M23.09,35.65,23,33.43c.84.13,1.35-.45,1.91-.9,0,.31,0,.63.05.94a12.86,12.86,0,0,1-.53,1.39C24.14,35.38,23.81,35.86,23.09,35.65Z"/><path class="cls-4" d="M33.32,22.3c0-.06.07-.17.09-.16s.09.08-.11.14Z"/><path class="cls-12" d="M3.49,45.88a.9.9,0,0,0,.44.89c0,.5-.06,1,.43,1.34-.18,1.23.69,2.32.45,3.56C3.53,51,4,49.55,3.45,48.57a10,10,0,0,1-1.32-4.45l0,0,.87.47C3.05,45,3,45.55,3.49,45.88Z"/><path class="cls-12" d="M4.82,51.67l.59.45A.59.59,0,0,1,4.82,51.67Z"/><path class="cls-12" d="M2.13,44.12C2.07,44.08,2,44,2,44s.12-.12.21.08Z"/><path class="cls-1" d="M41.34,55.23a1.74,1.74,0,0,0-1.39.38c-4,1-7.32,3.15-10.58,5.49-.68-1,.38-1.11.79-1.36A14.69,14.69,0,0,0,33.77,57c1.95-.36,3.64-1.47,5.57-1.92C40,54.91,40.72,54.48,41.34,55.23Z"/><path class="cls-5" d="M26.63,62.82c.49-.52.63-1.71,1.78-.91A2.4,2.4,0,0,1,26.63,62.82Z"/><path class="cls-12" d="M42.35,29.69c-.05,0-.11.07-.15.06s-.18-.14-.05-.23a.21.21,0,0,1,.17,0S42.34,29.64,42.35,29.69Z"/><path class="cls-12" d="M40.46,31.18a3.15,3.15,0,0,1,0-.44l.41,0,.1.09Z"/><path class="cls-12" d="M40.84,30.7l.25-.15-.15.24Z"/><path class="cls-5" d="M29.78,42.78c0-.29,0-.58,0-.87a.85.85,0,0,1,.9.45C30.4,42.53,30.18,42.87,29.78,42.78Z"/><path class="cls-5" d="M29.32,43.23l.45-.45C29.8,43.11,29.67,43.27,29.32,43.23Z"/><path class="cls-5" d="M25.77,44.11c-.25-.81-.07-1.33.89-1.34,0,.29,0,.58-.05.87Z"/><path class="cls-1" d="M12.63,60.51a1.78,1.78,0,0,1,.07.39c0,.05-.07.11-.11.16a2.63,2.63,0,0,1-.06-.39C12.52,60.61,12.6,60.56,12.63,60.51Z"/></g></g></svg>