<svg xmlns="http://www.w3.org/2000/svg" viewBox="0 0 26.33 77.37"><defs><style>.cls-1{fill:#515141;}.cls-2{fill:#5d6849;}.cls-3{fill:#424033;}.cls-4{fill:#ddd5ae;}.cls-5{fill:#bdc298;}.cls-6{fill:#a0b08a;}.cls-7{fill:#768b5c;}.cls-8{fill:#91a374;}.cls-9{fill:#879761;}</style></defs><g id="Слой_2" data-name="Слой 2"><g id="Слой_1-2" data-name="Слой 1"><path class="cls-1" d="M4.17,55.18c-1.21-.61-1.35-1.91-1.69-3A43.83,43.83,0,0,1,0,38.58a41,41,0,0,1,1.34-10.5c1.11-4.2,2.3-8.38,3.2-12.63A37.67,37.67,0,0,1,10.88,1.9c1.76-2.53,3.52-2.51,5.48,0A23.11,23.11,0,0,1,20,8.43,132.42,132.42,0,0,1,25.06,27a62.44,62.44,0,0,1,1.19,7.43A30.59,30.59,0,0,1,26,41.25a61.87,61.87,0,0,1-2.63,12.26,15.66,15.66,0,0,1-6.18,8.38,7.47,7.47,0,0,0-3.52,5.81c-.06.43-.14.87-.22,1.31l-.55,0A12.47,12.47,0,0,1,14,63.22c.84-.78,2-1.19,2.68-2.13a.5.5,0,0,0,.34-.22A6.53,6.53,0,0,0,19.12,59a2.07,2.07,0,0,0,.73-1c2.92-3.35,3.67-7.58,4.53-11.7.39-1.91.64-3.92.89-5.89a30.7,30.7,0,0,0-.48-11c-.67-2.85-1.2-5.74-1.92-8.59A97.23,97.23,0,0,0,18.49,6.94a6.52,6.52,0,0,0-1.77-3A4.67,4.67,0,0,0,14.6,1.2c-1.28-.76-1.32-.76-2.44.59a1,1,0,0,0-.81.88.59.59,0,0,0-.2.35,2.45,2.45,0,0,0-.9,1.33,32.7,32.7,0,0,0-5,11.71c-.84,4.11-1.93,8.15-3.05,12.18a34.92,34.92,0,0,0-1.3,9.57A37,37,0,0,0,2.31,48.7c.35,1.12.69,2.25,1,3.38l.27.54a6.16,6.16,0,0,1,.53,2.61Z"/><path class="cls-2" d="M12.87,69l.55,0a38.45,38.45,0,0,1-1,6.11c-.11.71-.24,1.67-1.22,1.95-.47.14-.91.51-1.46.14a1.34,1.34,0,0,1-.58-1.53c.47-2.38.91-4.76,1.36-7.14h.61c-.15,2.63-.9,5.18-1.27,7.83,1.12,0,1.63-.3,1.79-1.32C12,73,12.47,71,12.87,69Z"/><path class="cls-3" d="M11.17,68.54h-.61c0-.51,0-1,.13-1.53A5.4,5.4,0,0,0,8.23,61.4a9.43,9.43,0,0,1-4.06-6.22l0,0c.54.35.66,1.12,1.32,1.36v0A5.81,5.81,0,0,0,7.7,59.69l0,0a1.86,1.86,0,0,0,.91,1,22.88,22.88,0,0,0,2.74,2.56A17.51,17.51,0,0,1,11.17,68.54Z"/><path class="cls-4" d="M16.72,3.93a6.52,6.52,0,0,1,1.77,3,97.23,97.23,0,0,1,4.38,13.88c.72,2.85,1.25,5.74,1.92,8.59a30.7,30.7,0,0,1,.48,11c-.25,2-.5,4-.89,5.89-.86,4.12-1.61,8.35-4.53,11.7l-.13-.12a2.31,2.31,0,0,1,.35-1.41,9,9,0,0,0,1.38-3.05l.35-1.66c.53-.24.73-.54.22-1L22.39,49c.37-.12.33-.33.12-.57.16-.71.35-1.41.48-2.13a47.37,47.37,0,0,0,1.18-8,.89.89,0,0,0,.41-1c-.57-1.93-.28-3.91-.4-5.86,0-.31-.33-.52-.4-.75-.31-1.12-1.25-2.11-.6-3.44.17-.34-.38-.54-.76-.59a6.4,6.4,0,0,0,.26-1.47c-.08-1.23.13-2.59-1.11-3.45-.41-1.69-.87-3.37-1.21-5.07a40.82,40.82,0,0,0-2.58-8A9.85,9.85,0,0,1,16.62,4Z"/><path class="cls-5" d="M3.35,52.08C3,51,2.66,49.82,2.31,48.7A37,37,0,0,1,.85,37.81a34.92,34.92,0,0,1,1.3-9.57c1.12-4,2.21-8.07,3.05-12.18A32.7,32.7,0,0,1,10.25,4.35l.16.14A2.53,2.53,0,0,1,10.07,6a57.48,57.48,0,0,0-2.8,6.51,8.13,8.13,0,0,0-.86,4.08A7.24,7.24,0,0,1,6,19.5,15.62,15.62,0,0,1,5.39,22c-.68,1.39.81,3.55-1.55,4.3-.1,0-.15.41-.12.62a6.34,6.34,0,0,1-1,3.8A6.72,6.72,0,0,0,2,34.79,59.31,59.31,0,0,0,3.13,47.61c.25,1.5.85,3,.64,4.54Z"/><path class="cls-4" d="M11.17,68.54a17.51,17.51,0,0,0,.16-5.31c.38-.2.82-.35.83-.9l.51-5.74.52.07.09,2.51-.19.53c0,.27,0,.55,0,.83l0,.93c0,.6-.37,1.29.37,1.75H14A12.47,12.47,0,0,0,12.87,69c-.4,2-.86,4-1.18,6.06-.16,1-.67,1.35-1.79,1.32C10.27,73.72,11,71.17,11.17,68.54Z"/><path class="cls-4" d="M12.16,1.79C13.28.44,13.32.44,14.6,1.2a4.67,4.67,0,0,1,2.12,2.73l-.1.09c-1.09-.25-1.53-1.83-2.93-1.42-.14-1-.9-.78-1.54-.82Z"/><path class="cls-6" d="M5.47,56.59c-.66-.24-.78-1-1.32-1.36a6.16,6.16,0,0,0-.53-2.61l.11-.1a.92.92,0,0,1,.88.79C4.89,54.4,5.18,55.5,5.47,56.59Z"/><path class="cls-6" d="M14,63.22h-.55c.16-.29.32-.57.49-.85.82-.53,1.4-1.5,2.55-1.46l.19.19C16,62,14.87,62.44,14,63.22Z"/><path class="cls-4" d="M19.12,59a6.53,6.53,0,0,1-2.07,1.84c0-.26,0-.51,0-.76.62-.41.81-1.37,1.75-1.36A1.58,1.58,0,0,0,19.12,59Z"/><path class="cls-4" d="M19.85,58a2.07,2.07,0,0,1-.73,1,1.58,1.58,0,0,1-.3-.28c0-.56.24-1,.9-.88Z"/><path class="cls-5" d="M10.25,4.35A2.45,2.45,0,0,1,11.15,3l.12.11.19.47-.06.46-1,.43Z"/><path class="cls-4" d="M11.35,2.67a1,1,0,0,1,.81-.88h0a.85.85,0,0,1-.43.91Z"/><path class="cls-6" d="M17.07,60.11c0,.25,0,.5,0,.76a.5.5,0,0,1-.34.22l-.19-.18.06-.84Z"/><path class="cls-6" d="M3.35,52.08l.42.06c0,.13,0,.25,0,.38l-.11.1Z"/><path class="cls-5" d="M11.35,2.67l.37,0v.47l-.46,0L11.15,3A.59.59,0,0,1,11.35,2.67Z"/><path class="cls-7" d="M3.73,52.52c0-.13,0-.25,0-.38.21-1.56-.39-3-.64-4.53A59.31,59.31,0,0,1,2,34.79c.41,0,.78.16.67.62s0,1.26.44,1.32c1.34.18,1.19,1.1,1.26,2a1.38,1.38,0,0,0,.4,1c1.47.87,1.59,3,3.65,3.47,1.18.25,1.09.65,1.46-.86l.06-.06c.95-.1.91-.74.77-1.42-.24-1.15.31-1.24,1.2-.92a4.38,4.38,0,0,0,.63.12V45l-1.29-.45c-.06-.21-.13-.25-.16-.1s.1.06.16.1c-.36,1.67-.66,3.31.71,4.73.2.21.15.71.14,1.07s-.16.85-.63.67c-1.15-.46-1,.81-1.55,1.1l-.45-.45a1,1,0,0,0-.42-.91,1.8,1.8,0,0,0,0-.4c0-.18-.13-.36-.19-.54-.34.19-.22.46-.11.7a1.48,1.48,0,0,0,.28.28,1,1,0,0,0,.47.87l.45.44a7.4,7.4,0,0,1,.11,2.36c-.21,1.1-.55,2.49.27,3.38a6,6,0,0,1,1.38,3.55,1.26,1.26,0,0,0,.46.95c0,.55-.45.7-.83.9a22.88,22.88,0,0,1-2.74-2.56c0-.62-.24-1-.91-1l0,0c-.57-1.17-.74-2.63-2.24-3.13v0c-.29-1.09-.58-2.19-.86-3.28A.92.92,0,0,0,3.73,52.52Z"/><path class="cls-6" d="M5.46,56.56c1.5.5,1.67,2,2.24,3.13A5.81,5.81,0,0,1,5.46,56.56Z"/><path class="cls-6" d="M7.68,59.67c.67,0,.92.38.91,1A1.86,1.86,0,0,1,7.68,59.67Z"/><path class="cls-6" d="M13.69,2.6c1.4-.41,1.84,1.17,2.93,1.42a9.85,9.85,0,0,0,1.16,4.64,40.82,40.82,0,0,1,2.58,8.05c.34,1.7.8,3.38,1.21,5.07-.59.35-1.2.78-.75,1.52.31.52.26.61-.23.91s-.57.77-.84,1.18h-.47c-.1-.51.23-1.42-.44-1.42s-.34.91-.44,1.42c-.2.08-.58.17-.58.23.13,1.59-1.15,2.32-2,3.31a.9.9,0,0,0-.54.91c-1.38-.74-1.26-2.33-1.67-3.5a3.36,3.36,0,0,1,.55-3.56c.19-.19.14-.71.09-1.06a64.24,64.24,0,0,1-.16-13.51c.14-1.91.69-3.65-.44-5.39C13.62,2.77,13.67,2.68,13.69,2.6Z"/><path class="cls-6" d="M22.42,26.7c.38.05.93.25.76.59-.65,1.33.29,2.32.6,3.44.07.23.38.44.4.75.12,1.95-.17,3.93.4,5.86a.89.89,0,0,1-.41,1,.86.86,0,0,1-.86-.83c-.09-.85-.2-1.69-.3-2.53-.64,1.32-2,2.21-1.94,3.8a5,5,0,0,0-.45.47c-1.44,1.92-2,4.33-3.56,6.21a3.34,3.34,0,0,0-2.08.46c-.47.34-.55-.17-.63-.51.19-.87-.1-1.83.47-2.63.3-.08.8-.05.64-.53s-.67-.31-1.05-.35c.28-.3.57-.6.85-.91a.92.92,0,0,0,.47-.88.9.9,0,0,0,.45-.88h0c.86,0,1-.78,1.35-1.34h0a1.49,1.49,0,0,0,.93-1.34c2-1.7,1.79-4.7,3.71-6.51.27-.27-.12-1.23-.18-1.87A2.87,2.87,0,0,1,22.42,26.7Z"/><path class="cls-8" d="M22.42,26.7A2.87,2.87,0,0,0,22,28.14c.06.64.45,1.6.18,1.87-1.92,1.81-1.68,4.81-3.71,6.51-1,0-1,.65-.93,1.34h0c-.89,0-1,.75-1.35,1.34h0a.9.9,0,0,0-.45.88.92.92,0,0,1-.47.88c-.9-.45-.78-1.45-1.14-2.2-.07,1.07-.6,2.17.29,3.11.38,0,.91-.12,1.05.35s-.34.45-.64.53c-.74-.7-.83-.1-.94.47l-.44-.05a3.79,3.79,0,0,1-.34-2.57,23.49,23.49,0,0,0,0-7.2c.76-.55.09-1.55.67-2.2.53,1.46-.3,3.06.6,4.42.16.33.19,1.11.76.46.36-.41.53-1,.94-1.45,1-1.1,2.69-1.84,2.16-3.82,0-.09.16-.24.24-.36a9.12,9.12,0,0,0,1.29-5.05c.27-.41.46-.95.84-1.18s.54-.39.23-.91c-.45-.74.16-1.17.75-1.52,1.24.86,1,2.22,1.11,3.45A6.4,6.4,0,0,1,22.42,26.7Z"/><path class="cls-9" d="M21.07,38.74c-.08-1.59,1.3-2.48,1.94-3.8.1.84.21,1.68.3,2.53a.86.86,0,0,0,.86.83,47.37,47.37,0,0,1-1.18,8c-.13.72-.32,1.42-.48,2.13l-.12.57c-.12.6-.24,1.2-.37,1.79h-1a1.23,1.23,0,0,1-.31-.29,2.79,2.79,0,0,1-.22-1.52c0-.94-1.06.33-1.4-.24A9.52,9.52,0,0,0,18,47.2c.19-.07.23-.14.09-.17s-.07.11-.1.16a.9.9,0,0,1-.87-.43c2-2.15,3-4.91,4.49-7.33C21.86,39,21.5,38.78,21.07,38.74Z"/><path class="cls-8" d="M17.07,60.11l-.49,0c.4-2.65,2.24-4.52,3.6-6.65h1.27a9,9,0,0,1-1.38,3.05,2.31,2.31,0,0,0-.35,1.41c-.66-.08-.86.32-.9.88C17.88,58.74,17.69,59.7,17.07,60.11Z"/><path class="cls-9" d="M21.45,53.41H20.18c.41-.53.28-1.33.88-1.77l.74.1Z"/><path class="cls-8" d="M21.8,51.75l-.74-.1c0-.3,0-.6,0-.9h1C22.53,51.21,22.33,51.51,21.8,51.75Z"/><path class="cls-8" d="M22.39,49l.12-.57C22.72,48.62,22.76,48.83,22.39,49Z"/><path class="cls-8" d="M12.56,40.05a4.38,4.38,0,0,1-.63-.12c-.89-.32-1.44-.23-1.2.92.14.68.18,1.32-.77,1.42l-.45-.43a1.62,1.62,0,0,0-.89-1.78,1.76,1.76,0,0,0-1.47-2c.49,1,.68,1.68,1.43,2a1.62,1.62,0,0,0,.9,1.78l.42.45c-.37,1.51-.28,1.11-1.46.86-2.06-.45-2.18-2.6-3.65-3.47a1.38,1.38,0,0,1-.4-1c-.07-.9.08-1.82-1.26-2-.46-.06-.59-.73-.44-1.32s-.26-.61-.67-.62a6.72,6.72,0,0,1,.67-4.06,6.34,6.34,0,0,0,1-3.8c0-.21,0-.59.12-.62,2.36-.75.87-2.91,1.55-4.3A15.62,15.62,0,0,0,6,19.5a7.24,7.24,0,0,0,.42-2.93,8.13,8.13,0,0,1,.86-4.08A57.48,57.48,0,0,1,10.07,6a2.53,2.53,0,0,0,.34-1.49l1-.43c1.16,1.73.14,3.16-.78,4.47C9.86,9.62,8.92,10.62,9.15,12a1.5,1.5,0,0,1-.53,1.67,1.18,1.18,0,0,0,0,1.91.52.52,0,0,1,0,.9c-.07-.2-.13-.23-.16-.1s.11.06.16.09c-.14.8.38,1.47.45,2.23a2.73,2.73,0,0,0-.41.1.55.55,0,0,0-.31.84.37.37,0,0,0,.34.15c.33-.09.34-.39.36-.67s0-.28,0-.42c1,.4.75,1.29,1,2.05s-.43,1.2-.2,1.65c.88,1.7.63,3.51.75,5.3,0,.69.3,1.45-.4,1.75s-1-.61-1.5-1c-.15-.14-.28-.09-.38.24.83,1.75,1.78,3.57,2.57,5.45.46,1.13,1.34,2.19.58,3.64-.41.79.28,1.35,1.16,1.43Z"/><path class="cls-7" d="M21.05,50.75c0,.3,0,.6,0,.9-.6.44-.47,1.24-.88,1.77-1.36,2.13-3.2,4-3.6,6.65l-.06.84c-1.15,0-1.73.92-2.55,1.45-.06-.51-.26-.89-.86-.9,0-.31,0-.62,0-.93.29-.06.7-.11.7-.43,0-1.09.76-2.07.34-3.22-.19-.49-.12-1.14.72-.7.45.23.71.16.78-.32s0-1.09-.54-.91c-1,.33-.89-.22-.86-.84.07-1.87.12-3.75.18-5.62a1.25,1.25,0,0,0,1.22-.79,1.63,1.63,0,0,1,1.35-1l.06,0a.9.9,0,0,0,.87.43h0a9.52,9.52,0,0,1,1.16,1.5c.34.57,1.41-.7,1.4.24a2.79,2.79,0,0,0,.22,1.52A1.23,1.23,0,0,0,21.05,50.75ZM16.57,54c.65-.74,1.79-.72,1.7-1.92a.41.41,0,0,0-.32-.23,2.13,2.13,0,0,0-1.6,1.57C16.33,53.45,16.39,53.53,16.57,54Z"/><path class="cls-2" d="M12.56,40.05c0-.29,0-.57,0-.85,0-1.38.49-2.93-.23-4.11s.11-1.31.74-1.7a23.49,23.49,0,0,1,0,7.2,3.74,3.74,0,0,0,.35,2.57c-.38,4.47-.73,8.94-.78,13.43l-.51,5.74a1.26,1.26,0,0,1-.46-.95,6,6,0,0,0-1.38-3.55c-.82-.89-.48-2.28-.27-3.38a7.4,7.4,0,0,0-.11-2.36h0c.57-.29.4-1.56,1.55-1.1.47.18.62-.29.63-.67s.06-.86-.14-1.07c-1.37-1.42-1.07-3.06-.71-4.73h0l1.29.45Zm-.69,6.13a3.23,3.23,0,0,0-.14.69c0,.31-.18.72.32.86a.26.26,0,0,0,.18-.07.67.67,0,0,0,.08-.95A5.3,5.3,0,0,0,11.87,46.18Z"/><path class="cls-2" d="M14.46,48.49c-.07,1.87-.12,3.75-.19,5.62,0,.62-.17,1.17.86.84.58-.18.61.48.54.91s-.33.55-.78.32c-.84-.44-.91.21-.72.7.42,1.15-.35,2.13-.34,3.22,0,.32-.41.37-.7.43,0-.28,0-.56,0-.83a.47.47,0,0,0,.19-.53l-.09-2.51a15.71,15.71,0,0,0,.33-5.07A12.51,12.51,0,0,1,14,47.2C14.54,47.47,14.36,48,14.46,48.49Z"/><path class="cls-6" d="M14,47.2a12.51,12.51,0,0,0-.43,4.39,15.71,15.71,0,0,1-.33,5.07l-.52-.07c.05-4.49.4-9,.78-13.43l.43.05c0,.71.09,1.41.14,2.12S14,46.58,14,47.2Z"/><path class="cls-2" d="M13.11,61.46c.6,0,.8.39.86.9-.17.28-.33.56-.49.85C12.74,62.75,13.15,62.06,13.11,61.46Z"/><path class="cls-6" d="M13.28,59.17a.47.47,0,0,1-.19.53C13.16,59.52,13.22,59.35,13.28,59.17Z"/><path class="cls-7" d="M13.09,33.39c-.63.39-1.49.45-.74,1.7s.21,2.73.23,4.11c-.88-.08-1.57-.64-1.16-1.43.76-1.45-.12-2.51-.58-3.64-.79-1.88-1.74-3.7-2.57-5.45.1-.33.23-.38.38-.24.47.41.74,1.34,1.5,1s.45-1.06.4-1.75c-.12-1.79.13-3.6-.75-5.3-.23-.45.38-1,.2-1.65s0-1.65-1-2.05h0C9,18,8.46,17.28,8.6,16.48h0a.52.52,0,0,0,0-.9,1.18,1.18,0,0,1,0-1.91A1.5,1.5,0,0,0,9.15,12c-.23-1.39.71-2.39,1.47-3.48.92-1.31,1.94-2.74.78-4.47l.06-.46.27-.44V2.69a.85.85,0,0,0,.43-.91c.64,0,1.4-.16,1.54.82,0,.08-.07.17,0,.22,1.13,1.74.58,3.48.44,5.39a64.24,64.24,0,0,0,.16,13.51c.05.35.1.87-.09,1.06a3.36,3.36,0,0,0-.55,3.56c.41,1.17.29,2.76,1.67,3.5h0c0,.86-.11,1.71-.17,2.56-1.09.88-.5,2.14-.74,3.22-.9-1.36-.07-3-.6-4.42C13.18,31.84,13.85,32.84,13.09,33.39Z"/><path class="cls-8" d="M11.73,3.16l-.27.44c-.07-.16-.13-.31-.19-.47Z"/><path class="cls-2" d="M9,50.78a1.48,1.48,0,0,1-.28-.28c-.11-.24-.23-.51.11-.7.06.18.15.36.19.54a1.84,1.84,0,0,1,0,.41Z"/><path class="cls-2" d="M9.49,51.65A1,1,0,0,1,9,50.78l.05,0a.94.94,0,0,1,.42.9Z"/><path class="cls-2" d="M9.49,51.65l.45.45h0l-.45-.44Z"/><path class="cls-2" d="M11.27,44.53c-.06,0-.17-.08-.16-.1s.1-.11.16.1Z"/><path class="cls-5" d="M14.36,35.61c.24-1.08-.35-2.34.74-3.22.46,0,1.23.43,1.16-.41s1.13-1.81-.5-2.14l.06-.91c.85-1,2.13-1.72,2-3.31,0-.06.38-.15.58-.23h0c0,.28.06.63.35.68.49.08.48-.35.55-.68h.46a9.12,9.12,0,0,1-1.29,5.05c-.08.12-.26.27-.24.36.53,2-1.14,2.72-2.16,3.82-.41.44-.58,1-.94,1.45C14.55,36.72,14.52,35.94,14.36,35.61Z"/><path class="cls-5" d="M18.4,25.39c.1-.51-.22-1.42.44-1.42s.34.91.44,1.42H18.4Z"/><path class="cls-7" d="M15.82,28.93l-.06.91h-.48A.9.9,0,0,1,15.82,28.93Z"/><path class="cls-7" d="M21.07,38.74c.43,0,.79.24.5.69C20,41.85,19,44.61,17.08,46.76l-.06,0c0-.43,0-.86,0-1.29,1.52-1.88,2.12-4.29,3.56-6.21A5,5,0,0,1,21.07,38.74Z"/><path class="cls-8" d="M17.06,45.42c0,.43,0,.86,0,1.29a1.63,1.63,0,0,0-1.35,1,1.25,1.25,0,0,1-1.22.79c-.09-.46.09-1-.5-1.29,0-.62.05-1.25.07-1.87a1.24,1.24,0,0,0,.33,0c.08.34.16.85.63.51A3.34,3.34,0,0,1,17.06,45.42Z"/><path class="cls-7" d="M14.41,41.86c-.89-.94-.36-2-.29-3.11.36.75.24,1.75,1.14,2.2C15,41.26,14.69,41.56,14.41,41.86Z"/><path class="cls-2" d="M14.35,45.37a1.24,1.24,0,0,1-.33,0c0-.71-.09-1.41-.14-2.12.11-.57.2-1.17.94-.47C14.25,43.54,14.54,44.5,14.35,45.37Z"/><path class="cls-7" d="M16.17,39.2c.31-.59.46-1.33,1.35-1.34C17.19,38.42,17,39.16,16.17,39.2Z"/><path class="cls-7" d="M17.51,37.86c0-.69,0-1.33.93-1.34A1.49,1.49,0,0,1,17.51,37.86Z"/><path class="cls-7" d="M15.73,40.07a.9.9,0,0,1,.45-.88A.9.9,0,0,1,15.73,40.07Z"/><path class="cls-7" d="M18,47.19s.07-.17.1-.16.1.1-.09.17Z"/><path class="cls-7" d="M8.58,40.1c-.75-.36-.94-1.08-1.43-2a1.76,1.76,0,0,1,1.47,2Z"/><path class="cls-7" d="M8.62,40.06a1.62,1.62,0,0,1,.89,1.78l0,0a1.62,1.62,0,0,1-.9-1.78Z"/><path class="cls-7" d="M9,18.71c0,.14,0,.28,0,.42s0,.58-.36.67a.37.37,0,0,1-.34-.15.55.55,0,0,1,.31-.84,2.73,2.73,0,0,1,.41-.1Z"/><path class="cls-7" d="M9.9,42.33l-.42-.45,0,0,.45.43Z"/><path class="cls-7" d="M8.6,16.48s-.16-.07-.16-.09.09-.1.16.1Z"/><path class="cls-2" d="M16.57,54c-.18-.45-.24-.53-.22-.58A2.13,2.13,0,0,1,18,51.83a.41.41,0,0,1,.32.23C18.36,53.26,17.22,53.24,16.57,54Z"/><path class="cls-7" d="M11.87,46.18a5.3,5.3,0,0,1,.44.53.67.67,0,0,1-.08.95.26.26,0,0,1-.18.07c-.5-.14-.3-.55-.32-.86A3.23,3.23,0,0,1,11.87,46.18Z"/><path class="cls-6" d="M15.27,29.83h.49c1.63.33.44,1.44.5,2.14s-.7.42-1.16.41C15.16,31.54,15.22,30.69,15.27,29.83Z"/><path class="cls-6" d="M18.39,25.38h.9c-.07.33-.06.76-.55.68C18.45,26,18.42,25.66,18.39,25.38Z"/></g></g></svg>