<svg width="1470" height="161" viewBox="0 0 1470 161" fill="none" xmlns="http://www.w3.org/2000/svg">
<path d="M74.7896 7.96664V103.021C74.7896 156.775 75.8822 157.649 86.5894 157.649H90.5227C92.2708 157.649 92.2708 159.616 90.5227 159.616C84.4043 159.616 69.5453 158.961 66.486 158.961C63.2083 158.961 48.3493 159.616 42.2309 159.616C40.4827 159.616 40.4827 157.649 42.2309 157.649H46.1641C56.8714 157.649 57.964 156.775 57.964 103.021V7.96664C51.8455 8.18515 45.0716 8.18515 40.0457 8.18515C16.6646 8.18515 8.36104 24.3553 3.99074 52.7622L2.24262 65.2176C1.80559 66.5287 -0.379565 66.7472 0.0574652 65.2176L1.80559 52.7622C4.8648 29.1626 2.89816 8.18515 4.20925 7.5296C5.52034 6.87405 15.7905 6 30.8681 6C36.331 6 56.6529 6.43702 66.2675 6.43702C75.8822 6.43702 79.3784 6 101.448 6H101.667C116.744 6 127.015 6.87405 128.326 7.5296C129.637 8.18515 127.67 29.1626 130.948 52.7622L132.478 65.2176C132.915 66.7472 130.948 66.5287 130.511 65.2176L128.544 52.7622C124.174 24.3553 115.87 8.18515 92.2708 7.96664H74.7896Z" fill="white"/>
<path d="M158.088 103.021V64.7805C158.088 11.0258 156.996 10.1518 146.288 10.1518H143.448C141.7 10.1518 141.7 8.18515 143.448 8.18515C149.566 8.18515 163.333 8.84068 166.61 8.84068C169.67 8.84068 184.747 8.18515 190.865 8.18515C192.614 8.18515 192.614 10.1518 190.865 10.1518H186.495C175.788 10.1518 174.695 11.0258 174.695 64.7805V82.2618L214.902 81.8247L253.798 82.4803V64.7805C253.798 11.0258 252.705 10.1518 241.998 10.1518H237.409C235.661 10.1518 235.661 8.18515 237.409 8.18515C243.746 8.18515 258.605 8.84068 261.883 8.84068C265.161 8.84068 279.146 8.18515 285.483 8.18515C287.231 8.18515 287.231 10.1518 285.483 10.1518H281.986C271.498 10.1518 274.5 44.6772 274.5 64.7805C274.5 84.8839 285.483 83.575 285.483 111.106C285.483 138.637 271.498 157.649 281.986 157.649H285.483C287.231 157.649 287.231 159.616 285.483 159.616C279.146 159.616 265.161 158.961 261.883 158.961C258.605 158.961 243.746 159.616 237.409 159.616C235.661 159.616 235.661 157.649 237.409 157.649H241.998C252.705 157.649 253.798 156.775 253.798 103.021V84.6654L215.121 84.8839C199.388 84.8839 182.999 84.6654 174.695 84.4469V103.021C174.695 156.775 175.788 157.649 186.495 157.649H190.865C192.614 157.649 192.614 159.616 190.865 159.616C184.747 159.616 169.67 158.961 166.61 158.961C163.333 158.961 149.566 159.616 143.448 159.616C141.7 159.616 141.7 157.649 143.448 157.649H146.288C156.996 157.649 158.088 156.775 158.088 103.021Z" fill="white"/>
<path d="M291.5 42.5C292.014 60.4926 308.816 70.0879 327.719 76C340.124 79.8797 353.931 78.8531 361 78C377.148 76.0511 379.07 69.8064 379.07 54.7288V50.14C379.07 48.3919 381.255 48.3919 381.255 50.14C381.255 56.477 380.163 77.8915 380.163 81.1692C380.163 84.2284 381.255 107.828 381.255 111.106C381.255 112.854 379.07 112.854 379.07 111.106V107.828C379.07 92.7505 373.17 82.4803 345.856 82.4803H327.719C327.719 82.4803 347.212 110.152 345.856 133.5C344.5 156.848 326.845 152.842 325.971 156.557C332.308 156.557 360.496 157.212 367.27 157.212C392.618 157.212 410.536 135.361 413.377 113.072L414.688 101.491C414.907 100.18 417.31 100.18 417.092 101.71L415.781 113.509C411.847 149.127 410.536 157.431 409.007 158.742C408.133 159.616 395.022 159.616 379.944 159.616C364.648 159.616 324.66 158.961 324.66 158.961L293.849 159.616C291.664 159.616 291.664 158.086 293.849 158.086C306.523 158.086 308.49 156.557 310.238 129.024C311.33 113.946 314 86.6034 314 66.5C314 12.7453 309.145 10.1518 298.438 10.1518H294.505C292.757 10.1518 292.757 8.18515 294.505 8.18515C300.623 8.18515 315.482 8.84068 318.76 8.84068C321.819 8.84068 387.811 8.18515 395.677 8.18515C399.611 8.18515 404.636 8.40366 405.947 9.05921C407.04 9.71475 409.007 25.6663 412.284 49.266L413.158 57.1325C413.595 58.6621 411.41 58.4436 410.973 57.1325L409.881 49.266C405.729 24.7923 388.685 11.0258 363.774 10.8073C363.774 10.8073 333.405 9.79577 333.5 12.5C335 55 291 25 291.5 42.5Z" fill="white"/>
<path d="M513.106 103.021V64.7805C513.106 11.0258 512.013 10.1518 501.306 10.1518H498.465C496.717 10.1518 496.717 8.18515 498.465 8.18515C504.584 8.18515 518.35 8.84068 521.628 8.84068C524.687 8.84068 547.385 8 553.504 8C553.5 9.5 553.5 9.5 552.504 10.5C551.508 11.5 533.504 0 533.504 0C522.797 0 528.004 13.5 533.504 22.5L529.713 82.2618L569.92 81.8247L608.815 82.4803V64.7805C608.815 11.0258 607.723 10.1518 597.016 10.1518H592.427C590.679 10.1518 590.679 8.18515 592.427 8.18515C598.764 8.18515 613.623 8.84068 616.9 8.84068C620.178 8.84068 634.163 8.18515 640.5 8.18515C642.248 8.18515 642.248 10.1518 640.5 10.1518H637.004C626.515 10.1518 625.422 11.0258 625.422 64.7805V103.021C625.422 156.775 626.515 157.649 637.004 157.649H640.5C642.248 157.649 642.248 159.616 640.5 159.616C634.163 159.616 620.178 158.961 616.9 158.961C613.623 158.961 598.764 159.616 592.427 159.616C590.679 159.616 590.679 157.649 592.427 157.649H597.016C607.723 157.649 608.815 156.775 608.815 103.021V84.6654L570.138 84.8839C554.405 84.8839 538.016 84.6654 529.713 84.4469V103.021C529.713 156.775 530.805 157.649 541.513 157.649H545.883C547.631 157.649 547.631 159.616 545.883 159.616C539.765 159.616 524.687 158.961 521.628 158.961C518.35 158.961 504.584 159.616 498.465 159.616C496.717 159.616 496.717 157.649 498.465 157.649H501.306C512.013 157.649 513.106 156.775 513.106 103.021Z" fill="white"/>
<path d="M683.233 64.7805V79.8581H701.37C728.684 79.8581 734.584 69.8064 734.584 54.7288V50.14C734.584 48.3919 736.769 48.3919 736.769 50.14C736.769 56.477 735.676 77.8915 735.676 81.1692C735.676 84.2284 736.769 107.828 736.769 111.106C736.769 112.854 734.584 112.854 734.584 111.106V107.828C734.584 92.7505 728.684 82.4803 701.37 82.4803H683.233V124.435C683.233 141.261 682.359 152.842 681.485 156.557C687.822 156.557 716.01 157.212 722.784 157.212C748.132 157.212 766.05 135.361 768.891 113.072L770.202 101.491C770.42 100.18 772.824 100.18 772.605 101.71L771.294 113.509C767.361 149.127 766.05 157.431 764.52 158.742C763.646 159.616 750.535 159.616 735.458 159.616C720.162 159.616 680.174 158.961 680.174 158.961L649.363 159.616C647.178 159.616 647.178 158.086 649.363 158.086C662.037 158.086 664.003 156.557 665.752 129.024C666.844 113.946 653.952 101.491 653.952 76C653.952 24.3541 670.5 29.5 653.952 10.1518H650.018C648.27 10.1518 648.27 8.18515 650.018 8.18515C656.137 8.18515 670.996 8.84068 674.274 8.84068C677.333 8.84068 743.324 8.18515 751.191 8.18515C755.124 8.18515 760.15 8.40366 761.461 9.05921C762.554 9.71475 764.52 25.6663 767.798 49.266L768.672 57.1325C769.109 58.6621 766.924 58.4436 766.487 57.1325L765.394 49.266C761.243 24.7923 744.198 11.0258 719.288 10.8073H691.536C681.485 10.8073 683.233 11.0258 683.233 64.7805Z" fill="white"/>
<path d="M810.642 159.179C807.365 159.179 788.354 159.616 786.606 159.616C784.858 159.616 784.858 157.649 786.606 157.649C792.069 157.649 795.346 157.431 796.657 157.212C799.717 154.153 800.591 149.346 801.028 137.546C801.465 125.528 801.683 103.895 801.683 93.8431C801.683 93.8431 842 63 841 45C840 27 800.591 10.1518 789.883 10.1518H785.95C784.202 10.1518 784.202 8.18515 785.95 8.18515C792.069 8.18515 806.928 8.84068 810.205 8.84068C813.265 8.84068 833.368 8.18515 837.083 8.18515C874.667 8.18515 893.023 20.859 893.023 44.0216C893.023 62.5954 870.078 75.2693 846.479 79.4211C865.053 79.8581 872.701 86.6321 886.904 115.258C905.041 153.716 909.193 157.649 922.522 157.649H924.052C926.018 157.649 926.237 159.616 924.052 159.616H916.185C908.537 159.616 904.385 160.49 901.108 160.49C896.3 160.49 893.46 159.179 889.963 155.246C885.375 150.001 879.256 139.731 871.827 122.25C855.438 84.4469 849.101 81.3877 827.25 80.9507H818.29V103.021C818.29 156.775 819.383 157.649 830.09 157.649H834.461C836.209 157.649 836.209 159.616 834.461 159.616C828.342 159.616 813.702 159.179 810.642 159.179ZM818.29 43.1475V78.7655C822.442 78.547 828.124 78.547 836.646 78.547C853.471 78.547 873.575 68.7138 873.575 44.0216C873.575 21.296 862.649 10.1518 835.335 10.1518H826.812C818.727 10.1518 818.29 11.0258 818.29 43.1475Z" fill="white"/>
<path d="M926.15 159.616C924.402 159.616 924.402 157.649 926.15 157.649H930.083C940.79 157.649 941.883 156.775 941.883 103.021V64.7805C941.883 11.0258 940.79 10.1518 930.083 10.1518H926.15C924.402 10.1518 924.402 8.18515 926.15 8.18515C932.268 8.18515 947.127 8.84068 950.405 8.84068C953.464 8.84068 982.745 8.18515 986.678 8.18515C1023.39 8.18515 1044.15 16.9257 1044.15 43.8031C1044.15 65.6546 1025.57 76.7989 999.571 80.0766C1027.54 82.4803 1049.17 94.7171 1049.17 118.317C1049.17 144.32 1032.35 159.616 992.36 159.616C988.427 159.616 953.464 158.961 950.405 158.961C947.127 158.961 932.268 159.616 926.15 159.616ZM970.508 157.649H989.082C1018.14 157.649 1002.5 156.94 1002.5 130.5C1035 103 1018.36 81.8247 986.897 81.8247H959.146V103.021C959.146 156.775 959.801 157.649 970.508 157.649ZM939 90C952.5 86.5 959.146 79.4211 959.146 79.4211H984.056C1011.15 79.4211 1025.57 69.8064 1025.57 43.5846C1025.57 17.3628 1011.37 10.8073 983.401 10.8073H967.668C956.96 10.8073 923.049 94.1353 939 90Z" fill="white"/>
<path d="M1155.91 105.424L1130.35 106.08C1119.64 106.08 1097.79 105.643 1091.23 105.424L1087.52 114.602C1083.8 123.78 1079.65 137.546 1079.65 147.161C1079.65 154.153 1084.02 157.868 1091.89 157.868C1093.63 157.868 1097.13 157.212 1098.01 157.212C1099.1 157.212 1099.53 157.649 1099.53 158.305C1099.53 158.961 1099.1 159.616 1096.91 159.616C1092.98 159.616 1075.72 159.179 1072 159.179C1069.16 159.179 1059.33 159.616 1053.86 159.616C1052.99 159.616 1052.55 159.179 1052.55 158.523C1052.55 158.086 1053.21 157.649 1053.86 157.649H1054.74C1060.86 157.649 1065.88 153.061 1070.47 144.539C1075.94 135.142 1081.4 122.687 1084.89 113.509L1127.07 8.18515C1127.29 7.74811 1127.5 7.5296 1128.6 7.5296H1130.78C1132.09 7.5296 1132.75 7.74811 1132.97 8.18515L1172.74 103.021C1194.37 154.153 1197.65 157.649 1208.14 157.649H1209.88C1210.98 157.649 1211.41 158.086 1211.41 158.523C1211.41 159.179 1210.98 159.616 1210.1 159.616C1203.77 159.616 1191.31 158.961 1188.03 158.961C1184.76 158.961 1167.93 159.616 1161.59 159.616C1159.84 159.616 1159.19 157.649 1160.94 157.649H1165.53C1174.92 157.649 1176.67 153.935 1155.91 105.424ZM1154.82 103.021L1122.26 26.7589L1091.89 103.458L1129.03 103.239H1154.82V103.021Z" fill="white"/>
<path d="M1247.02 64.7805V124.435C1247.02 141.261 1246.14 152.842 1245.27 156.557C1251.61 156.557 1280.23 157.212 1287.01 157.212C1312.35 157.212 1329.4 129.461 1332.24 107.172L1334.42 87.2876C1334.64 85.9765 1337.05 85.9765 1336.83 87.5061L1334.64 107.61C1330.71 144.102 1328.96 156.994 1327.43 158.305C1326.56 159.179 1313.45 159.616 1298.37 159.616C1283.07 159.616 1243.96 158.961 1243.96 158.961L1213.15 159.616C1210.96 159.616 1210.96 158.086 1213.15 158.086C1225.82 158.086 1227.79 156.557 1229.54 129.024C1230.63 113.946 1229.76 83.7914 1229.76 73.7397C1229.76 63.688 1229.1 42.055 1229.1 30.0366C1229.1 10.3703 1228.66 10.1518 1214.68 10.1518C1212.93 10.1518 1212.93 8.18515 1214.68 8.18515C1216.43 8.18515 1238.06 8.62217 1241.34 8.62217C1244.62 8.62217 1261.88 8.18515 1268.21 8.18515C1269.96 8.18515 1269.96 10.1518 1268.21 10.1518H1262.1C1247.24 10.1518 1247.02 11.2444 1247.02 64.7805Z" fill="white"/>
<path d="M1380.18 64.7805V124.435C1380.18 141.261 1379.3 152.842 1378.43 156.557C1384.77 156.557 1413.39 157.212 1420.16 157.212C1445.51 157.212 1462.56 129.461 1465.4 107.172L1467.58 87.2876C1467.8 85.9765 1470.2 85.9765 1469.99 87.5061L1467.8 107.61C1463.87 144.102 1462.12 156.994 1460.59 158.305C1459.72 159.179 1446.6 159.616 1431.53 159.616C1416.23 159.616 1377.12 158.961 1377.12 158.961L1346.31 159.616C1344.12 159.616 1344.12 158.086 1346.31 158.086C1358.98 158.086 1360.95 156.557 1362.7 129.024C1363.79 113.946 1362.91 83.7914 1362.91 73.7397C1362.91 63.688 1362.26 42.055 1362.26 30.0366C1362.26 10.3703 1361.82 10.1518 1347.84 10.1518C1346.09 10.1518 1346.09 8.18515 1347.84 8.18515C1349.58 8.18515 1371.22 8.62217 1374.49 8.62217C1377.77 8.62217 1395.04 8.18515 1401.37 8.18515C1403.12 8.18515 1403.12 10.1518 1401.37 10.1518H1395.25C1380.39 10.1518 1380.18 11.2444 1380.18 64.7805Z" fill="white"/>
</svg>
